<svg width="266" height="182" viewBox="0 0 266 182" fill="none" xmlns="http://www.w3.org/2000/svg">
<mask id="mask0_939_12203" style="mask-type:alpha" maskUnits="userSpaceOnUse" x="0" y="0" width="266" height="182">
<rect width="266" height="182" fill="url(#paint0_linear_939_12203)"/>
</mask>
<g mask="url(#mask0_939_12203)">
<path fill-rule="evenodd" clip-rule="evenodd" d="M53.474 128.052C52.9758 128.297 52.385 128.07 52.1547 127.527C51.9256 127.001 52.1432 126.371 52.6415 126.126C52.6415 126.126 66.6883 118.176 82.3898 109.561C86.6264 107.232 90.9807 104.886 95.2151 102.645C100.331 99.9133 105.244 97.3218 109.544 95.133C118.008 90.808 124.022 87.9537 124.022 87.9537C125.017 87.4634 126.165 87.481 127.151 87.9887C127.151 87.9887 138.717 94.2574 151.716 101.629C168.764 111.295 188.239 122.782 188.239 122.782C188.732 123.027 188.939 123.674 188.699 124.2C188.458 124.725 187.863 124.935 187.37 124.69C187.37 124.69 166.858 115.462 149.191 107.145C138.696 102.207 129.235 97.5842 125.568 95.7807C123.28 96.9188 118.567 99.2478 112.563 102.084C108.204 104.151 103.158 106.444 97.8937 108.826C93.5342 110.787 89.0306 112.783 84.6206 114.709C68.2778 121.836 53.474 128.052 53.474 128.052Z" fill="#7EF0D5"/>
<path fill-rule="evenodd" clip-rule="evenodd" d="M53.8971 128.052C53.4219 128.559 52.6545 128.542 52.1846 128.052C51.7147 127.544 51.7189 126.721 52.1941 126.231L70.8864 106.129C71.3647 105.622 72.1006 105.534 72.6798 105.901C72.6798 105.901 77.3316 109.123 83.6402 112.485C86.1663 113.834 89.0384 114.832 91.7685 116.285C92.9017 116.88 93.9824 117.598 95.0557 118.264C100.661 121.766 105.713 125.075 108.043 126.634C112.496 123.744 126.504 114.744 139.714 106.585C144.83 103.433 149.923 100.596 154.101 97.9343C154.918 97.409 155.697 96.8838 156.424 96.3585C161.899 92.3662 165.324 89.3895 165.324 89.3895C166.358 88.7242 167.711 89.0041 168.418 90.0547L171.883 94.3972L172.882 95.6579L172.047 96.3936L172.222 96.6561C172.732 97.444 173.275 98.3019 173.855 99.195C182.664 112.73 198.564 136.947 198.564 136.947C198.953 137.525 198.827 138.33 198.284 138.733C197.74 139.153 196.983 139.013 196.594 138.435C196.594 138.435 180.217 114.604 171.018 101.349C170.414 100.473 169.836 99.6503 169.298 98.8799L169.115 98.6174L168.192 99.23L167.402 97.812L165.632 94.6601C163.893 95.5531 161.191 97.0239 157.929 98.95C157.16 99.4053 156.373 99.9132 155.569 100.456C151.458 103.24 146.809 106.83 141.869 110.297C126.445 121.1 109.446 132.464 109.446 132.464C108.59 133.025 107.509 133.042 106.642 132.499C106.642 132.499 99.7633 128.437 92.1112 123.552C91.0431 122.869 89.9435 122.204 88.9017 121.433C86.3924 119.577 84.1921 117.388 81.8699 115.672C77.6407 112.555 73.8898 110.227 72.1689 109.194L53.8971 128.052Z" fill="#7EF0D5"/>
<path fill-rule="evenodd" clip-rule="evenodd" d="M234.622 155.281C235.134 155.351 235.504 155.841 235.447 156.384C235.39 156.927 234.928 157.33 234.416 157.277L215.988 155.614C215.715 155.579 215.455 155.473 215.243 155.281L196.887 140.03L179.63 168.466C179.111 169.271 178.251 169.762 177.328 169.779C176.405 169.779 175.537 169.306 175.007 168.501C175.007 168.501 166.682 156.454 156.195 140.993C150.313 132.325 143.743 122.607 137.572 113.344C133.158 106.725 128.953 100.334 125.323 94.7832C121.323 88.6722 118.019 83.542 115.883 80.2151C115.883 80.2151 88.0981 117.879 88.1213 117.844L50.2078 170.129C49.9608 170.497 49.5686 170.707 49.1523 170.707L34.0826 170.305C33.5665 170.305 33.1481 169.849 33.1481 169.306C33.1481 168.764 33.5665 168.309 34.0826 168.309L48.4606 167.923L83.8237 114.465C83.8311 114.465 83.8395 114.447 83.8468 114.43L113.321 71.74C113.99 70.812 115.04 70.269 116.146 70.2865C117.251 70.3216 118.281 70.8997 118.917 71.8627C118.917 71.8627 124.083 79.4271 131.328 90.3009C135.006 95.8166 139.217 102.19 143.569 108.861C149.652 118.177 156.017 128.07 161.68 136.895C168.536 147.594 174.346 156.752 177.369 161.532L194.681 135.599C195.005 135.092 195.515 134.759 196.087 134.671C196.658 134.584 197.238 134.759 197.684 135.144L216.756 152.672L234.622 155.281Z" fill="#7EF0D5"/>
<path fill-rule="evenodd" clip-rule="evenodd" d="M25.0308 133.463C24.6744 133.603 24.2781 133.41 24.1467 133.025C24.0153 132.64 24.1993 132.22 24.5556 132.08L48.5179 122.449C48.8617 122.326 49.2475 122.414 49.4998 122.694L72.1858 147.611C74.2053 146.491 79.6634 143.461 85.6576 140.064C95.5899 134.426 106.988 127.807 106.988 127.807C107.939 127.299 109.093 127.545 109.786 128.403C109.786 128.403 112.209 131.187 115.638 135.337C116.813 136.755 118.106 138.348 119.441 140.047C127.209 149.958 137.172 163.265 140.054 167.117C141.517 166.224 144.15 164.613 147.197 162.705C155.386 157.574 166.581 150.395 166.581 150.395C166.749 150.29 166.943 150.238 167.14 150.22L212.634 150.273C213.014 150.273 213.325 150.605 213.328 151.008C213.331 151.411 213.025 151.743 212.645 151.743L167.468 152.532C165.784 153.652 155.912 160.201 148.611 165.156C144.041 168.256 140.489 170.76 140.489 170.76C139.821 171.18 138.955 171.04 138.446 170.41C138.446 170.41 125.055 155.018 115.59 143.566C114.213 141.885 112.941 140.292 111.8 138.839C109.866 136.37 108.31 134.339 107.347 133.06C103.709 134.846 94.9139 139.154 87.08 143.076C79.3112 146.981 72.5022 150.483 72.5022 150.483C71.9997 150.763 71.3911 150.641 71.0042 150.203L48.5736 124.516L25.0308 133.463Z" fill="#7EF0D5"/>
<path d="M116.639 66C119.779 66.0001 122.431 68.7292 122.431 72.2295C122.431 75.7299 119.78 78.4598 116.639 78.46C113.498 78.46 110.847 75.73 110.847 72.2295C110.847 68.7291 113.498 66 116.639 66Z" fill="white" stroke="#7EF0D5" stroke-width="2"/>
<path d="M166.146 86.7642C168.53 86.7642 170.543 88.8363 170.543 91.4927C170.543 94.1492 168.53 96.2212 166.146 96.2212C163.761 96.221 161.749 94.1491 161.749 91.4927C161.749 88.8364 163.761 86.7643 166.146 86.7642Z" fill="white" stroke="#7EF0D5" stroke-width="1.5"/>
<path d="M71.811 102.334C73.4398 102.335 74.8129 103.75 74.813 105.562C74.813 107.374 73.4398 108.789 71.811 108.79C70.1822 108.79 68.8091 107.375 68.8091 105.562C68.8091 103.75 70.1822 102.334 71.811 102.334Z" fill="white" stroke="#7EF0D5"/>
</g>
<defs>
<linearGradient id="paint0_linear_939_12203" x1="133" y1="0" x2="133" y2="201.5" gradientUnits="userSpaceOnUse">
<stop offset="0.494583" stop-color="white"/>
<stop offset="0.950192" stop-color="white" stop-opacity="0"/>
</linearGradient>
</defs>
</svg>
