<svg width="268" height="260" viewBox="0 0 268 260" fill="none" xmlns="http://www.w3.org/2000/svg">
<mask id="mask0_939_12048" style="mask-type:alpha" maskUnits="userSpaceOnUse" x="0" y="0" width="268" height="260">
<rect width="268" height="260" fill="url(#paint0_linear_939_12048)"/>
</mask>
<g mask="url(#mask0_939_12048)">
<circle cx="93" cy="56" r="45.5" fill="white" stroke="#7DEFD4" stroke-width="5"/>
<circle cx="191" cy="141" r="28.5" fill="white" stroke="#7DEFD4" stroke-width="3"/>
<circle cx="134" cy="233" r="26.25" fill="white" stroke="#7DEFD4" stroke-width="1.5"/>
<path fill-rule="evenodd" clip-rule="evenodd" d="M92.7715 29.409C90.9465 28.2205 88.695 27.8721 86.6814 28.1903C84.6701 28.5082 82.5581 29.5546 81.3148 31.5647C80.833 32.3436 80.5256 33.1948 80.3897 34.0978C78.4328 33.9667 76.4521 34.5602 74.9637 35.8016C73.4564 37.0586 72.4935 38.9394 72.4935 41.2207C72.4935 41.969 72.5963 42.7365 72.8002 43.52C72.0574 43.6772 71.3424 43.9516 70.6733 44.3293C68.4635 45.5768 66.9109 47.8452 66.2978 50.2996C65.6734 52.7991 65.9728 55.6954 67.7513 58.1764C68.6522 59.4334 69.8726 60.5014 71.4057 61.3411C71.0263 61.8489 70.7057 62.3964 70.4453 62.9699C69.3812 65.3124 69.3011 68.0881 70.114 70.5286C70.9384 73.0039 72.7439 75.2964 75.5906 76.3921C77.4458 77.1064 79.5654 77.2449 81.8888 76.7659C81.9949 77.9521 82.3186 79.0301 82.8746 79.9729C84.0649 81.9914 86.059 82.9431 88.0135 83.0654C89.8807 83.1821 91.9395 82.5236 93.5 81.1931C95.0605 82.5236 97.1192 83.1821 98.9865 83.0654C100.941 82.9431 102.935 81.9914 104.125 79.9729C104.681 79.0301 105.005 77.9521 105.111 76.7659C107.434 77.2449 109.554 77.1064 111.409 76.3921C114.256 75.2964 116.061 73.0039 116.886 70.5286C117.699 68.0881 117.619 65.3124 116.555 62.9699C116.294 62.3964 115.974 61.8489 115.594 61.3411C117.127 60.5014 118.348 59.4334 119.249 58.1764C121.027 55.6954 121.326 52.7991 120.702 50.2996C120.089 47.8452 118.536 45.5768 116.327 44.3293C115.657 43.9516 114.942 43.6772 114.2 43.52C114.404 42.7365 114.506 41.969 114.506 41.2207C114.506 38.9394 113.544 37.0586 112.036 35.8016C110.548 34.5602 108.567 33.9667 106.61 34.0978C106.474 33.1948 106.167 32.3436 105.685 31.5647C104.442 29.5546 102.33 28.5082 100.318 28.1903C98.305 27.8721 96.0535 28.2205 94.2285 29.409C93.4652 29.906 93.5347 29.906 92.7715 29.409ZM96.0082 75.7081V69.4006C96.0112 68.2021 96.2832 66.4429 96.9847 65.0781C97.6432 63.7966 98.4865 63.1456 99.7705 63.1456C101.156 63.1456 102.279 62.0219 102.279 60.6354C102.279 59.2491 101.156 58.1251 99.7705 58.1251C98.3005 58.1251 97.054 58.4786 96.0082 59.0521V56.8496C96.0112 55.6511 96.2832 53.8921 96.9847 52.5271C97.6432 51.2456 98.4865 50.5946 99.7705 50.5946C101.156 50.5946 102.279 49.4708 102.279 48.0845C102.279 46.6981 101.156 45.5743 99.7705 45.5743C98.3005 45.5743 97.054 45.9275 96.0082 46.5012V35.5169C96.0125 34.5249 96.4177 33.9731 96.9647 33.6168C97.609 33.1973 98.571 32.9967 99.536 33.1492C100.503 33.3021 101.135 33.7462 101.42 34.2072C101.651 34.5806 101.931 35.4109 101.227 37.055C100.754 38.161 101.131 39.4478 102.127 40.1224C103.122 40.797 104.456 40.6696 105.306 39.8187C106.226 38.8989 107.891 38.8794 108.825 39.6583C109.199 39.9702 109.49 40.4427 109.49 41.2207C109.49 42.0642 109.137 43.4444 107.762 45.3704C107.059 46.3565 107.159 47.705 108.001 48.5756C108.844 49.4461 110.187 49.5902 111.195 48.918C112.275 48.1971 113.141 48.2952 113.862 48.702C114.709 49.1802 115.508 50.2064 115.835 51.5174C116.152 52.7831 115.981 54.1226 115.172 55.2501C114.366 56.3746 112.691 57.6089 109.391 58.1594C108.171 58.3629 107.281 59.4266 107.295 60.6646C107.31 61.9026 108.224 62.9454 109.449 63.1204C110.703 63.2996 111.517 64.0116 111.988 65.0471C112.491 66.1561 112.568 67.6164 112.127 68.9411C111.697 70.2311 110.838 71.2334 109.608 71.7064C108.374 72.1814 106.35 72.2809 103.317 70.9011C102.44 70.5024 101.413 70.6411 100.673 71.2576C99.9337 71.8744 99.612 72.8604 99.8455 73.7951C100.155 75.0354 100.667 77.9301 98.6735 78.0549C97.296 78.1409 96.0155 77.0924 96.0082 75.7081ZM90.9917 35.5169C90.9875 34.5249 90.5822 33.9731 90.0352 33.6168C89.391 33.1973 88.4289 32.9967 87.4639 33.1492C86.4967 33.3021 85.8653 33.7462 85.5802 34.2072C85.3492 34.5806 85.0685 35.4109 85.7725 37.055C86.2461 38.161 85.8689 39.4478 84.8733 40.1224C83.8776 40.797 82.5437 40.6696 81.6935 39.8187C80.7744 38.8989 79.1091 38.8794 78.1751 39.6583C77.8013 39.9702 77.51 40.4427 77.51 41.2207C77.51 42.0642 77.8629 43.4444 79.2375 45.3704C79.9413 46.3565 79.8407 47.705 78.9984 48.5756C78.1561 49.4461 76.8126 49.5902 75.8051 48.918C74.7247 48.1971 73.8585 48.2952 73.138 48.702C72.2908 49.1802 71.492 50.2064 71.1645 51.5174C70.8483 52.7831 71.0192 54.1226 71.8274 55.2501C72.6335 56.3746 74.3087 57.6089 77.6088 58.1594C78.8291 58.3629 79.7189 59.4266 79.7045 60.6646C79.6902 61.9026 78.7759 62.9454 77.5512 63.1204C76.297 63.2996 75.4825 64.0116 75.0121 65.0471C74.5085 66.1561 74.4318 67.6164 74.873 68.9411C75.3027 70.2311 76.1622 71.2334 77.3914 71.7064C78.6255 72.1814 80.6504 72.2809 83.6832 70.9011C84.5597 70.5024 85.5868 70.6411 86.3266 71.2576C87.0663 71.8744 87.388 72.8604 87.1545 73.7951C86.8447 75.0354 86.3331 77.9301 88.3264 78.0549C89.704 78.1409 90.9845 77.0924 90.9917 75.7081V75.6966V69.4016C90.9887 68.2031 90.717 66.4434 90.0152 65.0781C89.3567 63.7966 88.5135 63.1456 87.2294 63.1456C85.8441 63.1456 84.7211 62.0219 84.7211 60.6354C84.7211 59.2491 85.8441 58.1251 87.2294 58.1251C88.6995 58.1251 89.946 58.4786 90.9917 59.0521V56.8506C90.9887 55.6521 90.717 53.8924 90.0152 52.5271C89.3567 51.2456 88.5135 50.5946 87.2294 50.5946C85.8441 50.5946 84.7211 49.4708 84.7211 48.0845C84.7211 46.6981 85.8441 45.5743 87.2294 45.5743C88.6995 45.5743 89.946 45.9275 90.9917 46.5012V35.5169Z" fill="#121212"/>
<path d="M191 133.126C194.521 133.125 197.375 130.272 197.376 126.75C197.375 123.229 194.521 120.376 191 120.375C187.478 120.376 184.624 123.229 184.624 126.75C184.624 130.271 187.478 133.125 191 133.126ZM187.779 123.53C188.606 122.704 189.739 122.197 191 122.196C192.261 122.196 193.394 122.704 194.221 123.53C195.047 124.357 195.554 125.489 195.555 126.75C195.554 128.011 195.046 129.144 194.221 129.97C193.394 130.796 192.261 131.304 191 131.305C189.739 131.304 188.606 130.796 187.779 129.97C186.953 129.144 186.445 128.011 186.445 126.75C186.445 125.489 186.953 124.356 187.779 123.53Z" fill="#121212"/>
<path d="M204.859 153.284L204.445 144.347L204.444 144.345C204.345 142.255 203.693 140.527 202.698 139.172C201.203 137.134 199.005 135.95 196.848 135.262C194.685 134.575 192.535 134.375 191 134.374C188.955 134.379 185.811 134.724 183.009 136.129C181.611 136.833 180.296 137.814 179.302 139.172C178.307 140.527 177.655 142.254 177.556 144.345L177.555 144.347L177.141 153.284H172.25V157.14H209.75V153.284H204.859ZM199.831 153.284L199.346 145.794C199.324 145.46 199.035 145.206 198.701 145.228C198.366 145.25 198.112 145.538 198.134 145.873L198.614 153.284H191.637V151.455C193.796 151.144 195.461 149.283 195.461 147.04V146.044C195.461 145.692 195.176 145.406 194.823 145.406C194.472 145.406 194.187 145.692 194.187 146.044V147.04C194.187 148.797 192.758 150.226 191 150.226C189.243 150.226 187.813 148.797 187.813 147.04V146.044C187.813 145.692 187.529 145.406 187.177 145.406C186.823 145.406 186.539 145.692 186.539 146.044V147.04C186.539 149.283 188.204 151.144 190.363 151.455V153.284H183.386L183.866 145.873C183.888 145.538 183.634 145.25 183.299 145.228C182.965 145.206 182.676 145.46 182.655 145.794L182.169 153.284H178.964L179.375 144.431L179.374 144.433C179.463 142.664 179.987 141.323 180.772 140.248C181.945 138.639 183.775 137.61 185.705 136.997C187.627 136.383 189.625 136.194 191 136.195C192.836 136.19 195.77 136.538 198.172 137.755C199.376 138.361 200.443 139.174 201.229 140.248C202.013 141.323 202.537 142.664 202.626 144.434L202.625 144.431L203.036 153.284H199.831V153.284Z" fill="#121212"/>
<path d="M191 140.984C189.86 140.984 188.935 141.909 188.935 143.05V146.887C188.935 148.028 189.86 148.952 191 148.952C192.14 148.952 193.067 148.028 193.067 146.887V143.05C193.067 141.909 192.14 140.984 191 140.984Z" fill="#121212"/>
<path d="M146.008 232.745V225.701C146.008 222.78 146.008 221.32 145.065 220.521C144.121 219.722 142.68 219.962 139.796 220.443L138.389 220.677C136.202 221.042 135.108 221.224 134.004 221.224C132.9 221.224 131.806 221.042 129.618 220.677L128.212 220.443C125.328 219.962 123.886 219.722 122.943 220.521C122 221.32 122 222.78 122 225.701V232.745C122 240.068 127.654 243.622 131.201 245.131C132.163 245.54 132.644 245.745 134.004 245.745C135.363 245.745 135.845 245.54 136.807 245.131C140.354 243.622 146.008 240.068 146.008 232.745Z" stroke="#121212" stroke-width="1.5"/>
<path d="M126.668 228.744C127.056 227.967 128.104 227.41 129.335 227.41C130.567 227.41 131.615 227.967 132.003 228.744" stroke="#121212" stroke-width="1.5" stroke-linecap="round"/>
<path d="M136.004 228.744C136.393 227.967 137.44 227.41 138.672 227.41C139.904 227.41 140.951 227.967 141.34 228.744" stroke="#121212" stroke-width="1.5" stroke-linecap="round"/>
<path d="M129.336 235.413C129.336 235.413 130.736 236.746 134.004 236.746C137.272 236.746 138.672 235.413 138.672 235.413" stroke="#121212" stroke-width="1.5" stroke-linecap="round"/>
<path d="M171 119.844L166.172 126.328L127.672 87.8281L132.5 81.3438L171 119.844Z" stroke="#7DEFD4" stroke-width="3"/>
<path d="M168.103 159.501L172.722 163.5L146.167 209.5L140.402 207.487L168.103 159.501Z" stroke="#7DEFD4"/>
</g>
<defs>
<linearGradient id="paint0_linear_939_12048" x1="134" y1="0" x2="134" y2="360.5" gradientUnits="userSpaceOnUse">
<stop offset="0.367794" stop-color="white"/>
<stop offset="1" stop-color="white" stop-opacity="0"/>
</linearGradient>
</defs>
</svg>
