<svg width="139" height="139" viewBox="0 0 139 139" fill="none" xmlns="http://www.w3.org/2000/svg">
<path fill-rule="evenodd" clip-rule="evenodd" d="M66.9957 1.74629C67.377 0.696789 68.3821 0 69.5 0C70.6179 0 71.623 0.696789 72.0043 1.74629C74.1015 7.39676 77.2125 15.8205 80.2456 24.0189C86.199 40.1097 98.8858 52.7964 114.978 58.7502C123.176 61.7843 131.599 64.9016 137.249 66.992C138.298 67.3802 139 68.3812 139 69.5C139 70.6188 138.298 71.6198 137.249 72.008C131.599 74.0984 123.176 77.2157 114.978 80.2498C98.8858 86.2036 86.199 98.8903 80.2456 114.981C77.2125 123.18 74.1015 131.603 72.0043 137.254C71.623 138.303 70.6179 139 69.5 139C68.3821 139 67.377 138.303 66.9957 137.254C64.8985 131.603 61.7875 123.18 58.7544 114.981C52.801 98.8903 40.1142 86.2036 24.0217 80.2498C15.8238 77.2157 7.40064 74.0984 1.75052 72.008C0.70195 71.6198 0 70.6188 0 69.5C0 68.3812 0.70195 67.3802 1.75052 66.992C7.40064 64.9016 15.8238 61.7843 24.0217 58.7502C40.1142 52.7964 52.801 40.1097 58.7544 24.0189C61.7875 15.8205 64.8985 7.39676 66.9957 1.74629Z" fill="#72F7D7"/>
</svg>
