<svg width="412" height="476" viewBox="0 0 412 476" fill="none" xmlns="http://www.w3.org/2000/svg">
<path d="M-1837 105.063C-1899 248.263 -1921.5 476.729 -1925 573.063H872.5C732.5 -112.937 637 17.0627 612.5 97.5627C588 178.063 479.5 357.063 436 243.063C392.5 129.063 380 243.063 347 162.063C314 81.0627 243 197.563 216 319.563C189 441.563 174.5 338.563 125 377.563C75.5 416.563 68.5 216.063 7 77.0627C-54.5 -61.9373 -105.5 367.063 -167 274.063C-228.5 181.063 -214.5 435.563 -372.5 427.063C-530.5 418.563 -541.5 337.063 -618.5 173.563C-695.5 10.0627 -761 184.563 -789 319.563C-817 454.563 -821 239.063 -891 377.563C-961 516.063 -958 330.063 -1053 216.063C-1148 102.063 -1148 434.063 -1186.5 251.063C-1225 68.0627 -1274.5 -33.4373 -1316.5 158.063C-1358.5 349.563 -1485.5 590.563 -1538 367.063C-1590.5 143.563 -1610 499.063 -1670 239.063C-1730 -20.9372 -1759.5 -73.9372 -1837 105.063Z" fill="url(#paint0_linear_939_12250)" fill-opacity="0.75" style="mix-blend-mode:plus-lighter"/>
<defs>
<linearGradient id="paint0_linear_939_12250" x1="-17.0003" y1="-135.437" x2="-17.0003" y2="745.063" gradientUnits="userSpaceOnUse">
<stop offset="0.193537" stop-color="#03478E" stop-opacity="0.08"/>
<stop offset="0.880468" stop-color="#03478E"/>
</linearGradient>
</defs>
</svg>
