<svg width="412" height="476" viewBox="0 0 412 476" fill="none" xmlns="http://www.w3.org/2000/svg">
<path d="M-107 105.063C-169 248.263 -191.5 476.729 -195 573.063H2602.5C2462.5 -112.937 2367 17.0627 2342.5 97.5627C2318 178.063 2209.5 357.063 2166 243.063C2122.5 129.063 2110 243.063 2077 162.063C2044 81.0627 1973 197.563 1946 319.563C1919 441.563 1904.5 338.563 1855 377.563C1805.5 416.563 1798.5 216.063 1737 77.0627C1675.5 -61.9373 1624.5 367.063 1563 274.063C1501.5 181.063 1515.5 435.563 1357.5 427.063C1199.5 418.563 1188.5 337.063 1111.5 173.563C1034.5 10.0627 969 184.563 941 319.563C913 454.563 909 239.063 839 377.563C769 516.063 772 330.063 677 216.063C582 102.063 582 434.063 543.5 251.063C505 68.0627 455.5 -33.4373 413.5 158.063C371.5 349.563 244.5 590.563 192 367.063C139.5 143.563 120 499.063 60 239.063C0 -20.9372 -29.5 -73.9372 -107 105.063Z" fill="url(#paint0_linear_939_11993)" fill-opacity="0.75" style="mix-blend-mode:plus-lighter"/>
<defs>
<linearGradient id="paint0_linear_939_11993" x1="1713" y1="-135.437" x2="1713" y2="745.063" gradientUnits="userSpaceOnUse">
<stop offset="0.160441" stop-color="#03478E" stop-opacity="0.08"/>
<stop offset="1" stop-color="#03478E"/>
</linearGradient>
</defs>
</svg>
