<svg width="412" height="476" viewBox="0 0 412 476" fill="none" xmlns="http://www.w3.org/2000/svg">
<path d="M-571 105.063C-633 248.263 -655.5 476.729 -659 573.063H2138.5C1998.5 -112.937 1903 17.0627 1878.5 97.5627C1854 178.063 1745.5 357.063 1702 243.063C1658.5 129.063 1646 243.063 1613 162.063C1580 81.0627 1509 197.563 1482 319.563C1455 441.563 1440.5 338.563 1391 377.563C1341.5 416.563 1334.5 216.063 1273 77.0627C1211.5 -61.9373 1160.5 367.063 1099 274.063C1037.5 181.063 1051.5 435.563 893.5 427.063C735.5 418.563 724.5 337.063 647.5 173.563C570.5 10.0627 505 184.563 477 319.563C449 454.563 445 239.063 375 377.563C305 516.063 308 330.063 213 216.063C118 102.063 118 434.063 79.5 251.063C41 68.0627 -8.5 -33.4373 -50.5 158.063C-92.5 349.563 -219.5 590.563 -272 367.063C-324.5 143.563 -344 499.063 -404 239.063C-464 -20.9372 -493.5 -73.9372 -571 105.063Z" fill="url(#paint0_linear_939_12037)" fill-opacity="0.75" style="mix-blend-mode:plus-lighter"/>
<defs>
<linearGradient id="paint0_linear_939_12037" x1="1249" y1="-135.437" x2="1249" y2="745.063" gradientUnits="userSpaceOnUse">
<stop offset="0.284852" stop-color="#03478E" stop-opacity="0.08"/>
<stop offset="0.782793" stop-color="#03478E"/>
</linearGradient>
</defs>
</svg>
