<svg width="412" height="476" viewBox="0 0 412 476" fill="none" xmlns="http://www.w3.org/2000/svg">
<path d="M-1413 105.063C-1475 248.263 -1497.5 476.729 -1501 573.063H1296.5C1156.5 -112.937 1061 17.0627 1036.5 97.5627C1012 178.063 903.5 357.063 860 243.063C816.5 129.063 804 243.063 771 162.063C738 81.0627 667 197.563 640 319.563C613 441.563 598.5 338.563 549 377.563C499.5 416.563 492.5 216.063 431 77.0627C369.5 -61.9373 318.5 367.063 257 274.063C195.5 181.063 209.5 435.563 51.5 427.063C-106.5 418.563 -117.5 337.063 -194.5 173.563C-271.5 10.0627 -337 184.563 -365 319.563C-393 454.563 -397 239.063 -467 377.563C-537 516.063 -534 330.063 -629 216.063C-724 102.063 -724 434.063 -762.5 251.063C-801 68.0627 -850.5 -33.4373 -892.5 158.063C-934.5 349.563 -1061.5 590.563 -1114 367.063C-1166.5 143.563 -1186 499.063 -1246 239.063C-1306 -20.9372 -1335.5 -73.9372 -1413 105.063Z" fill="url(#paint0_linear_939_12097)" fill-opacity="0.75" style="mix-blend-mode:plus-lighter"/>
<defs>
<linearGradient id="paint0_linear_939_12097" x1="407" y1="-135.437" x2="407" y2="745.063" gradientUnits="userSpaceOnUse">
<stop offset="0.231118" stop-color="#03478E" stop-opacity="0.08"/>
<stop offset="0.904591" stop-color="#03478E"/>
</linearGradient>
</defs>
</svg>
