<svg width="412" height="351" viewBox="0 0 412 351" fill="none" xmlns="http://www.w3.org/2000/svg">
<path d="M2331.5 305C2393.5 161.8 2416 -66.6666 2419.5 -163L-378 -163C-238 523 -194.5 352 -170 271.5C-145.5 191 -118 -36.9999 -53.5 191.5C-20.3528 308.929 119.755 52.9105 195 97.5C262.5 137.5 307.5 70.9268 343.5 44C405 -2.00001 395.076 203.192 457 191.5C528.5 178 540.032 40.9887 628.5 73C704.5 100.5 720.5 43.0002 782 136C843.5 229 806.5 35.5 964.5 44C1082 50.3212 1068.5 159 1113 236.5C1202.99 393.226 1206 235.5 1234 100.5C1262 -34.5 1315.5 171 1385.5 32.5001C1455.5 -106 1434 45.0001 1529 159C1624 273 1633 159 1681 159C1740.23 159 1769 443.5 1811 252C1853 60.5001 1859.5 59 1916 122C2069.28 292.918 2167.5 -53.5 2227.5 206.5C2258.42 340.5 2309.42 356 2331.5 305Z" fill="url(#paint0_linear_939_11994)" fill-opacity="0.75" style="mix-blend-mode:plus-lighter"/>
<defs>
<linearGradient id="paint0_linear_939_11994" x1="511.5" y1="525" x2="511.5" y2="-88" gradientUnits="userSpaceOnUse">
<stop offset="0.438582" stop-color="#03478E" stop-opacity="0.08"/>
<stop offset="1" stop-color="#03478E"/>
</linearGradient>
</defs>
</svg>
