<svg width="412" height="351" viewBox="0 0 412 351" fill="none" xmlns="http://www.w3.org/2000/svg">
<path d="M1986.5 305C2048.5 161.8 2071 -66.6666 2074.5 -163L-723 -163C-583 523 -539.5 352 -515 271.5C-490.5 191 -463 -36.9999 -398.5 191.5C-365.353 308.929 -225.245 52.9105 -150 97.5C-82.5 137.5 -37.5 70.9268 -1.50003 44C60 -2.00001 50.0763 203.192 112 191.5C183.5 178 195.032 40.9887 283.5 73C359.5 100.5 375.5 43.0002 437 136C498.5 229 461.5 35.5 619.5 44C737 50.3212 723.5 159 768 236.5C857.991 393.226 861 235.5 889 100.5C917 -34.5 970.5 171 1040.5 32.5001C1110.5 -106 1089 45.0001 1184 159C1279 273 1288 159 1336 159C1395.23 159 1424 443.5 1466 252C1508 60.5001 1514.5 59 1571 122C1724.28 292.918 1822.5 -53.5 1882.5 206.5C1913.42 340.5 1964.42 356 1986.5 305Z" fill="url(#paint0_linear_939_12047)" fill-opacity="0.75" style="mix-blend-mode:plus-lighter"/>
<defs>
<linearGradient id="paint0_linear_939_12047" x1="166.5" y1="545.5" x2="166.5" y2="-335" gradientUnits="userSpaceOnUse">
<stop offset="0.347051" stop-color="#03478E" stop-opacity="0.08"/>
<stop offset="0.800935" stop-color="#03478E"/>
</linearGradient>
</defs>
</svg>
