<svg width="412" height="351" viewBox="0 0 412 351" fill="none" xmlns="http://www.w3.org/2000/svg">
<path d="M1412.5 305C1474.5 161.8 1497 -66.6666 1500.5 -163L-1297 -163C-1157 523 -1113.5 352 -1089 271.5C-1064.5 191 -1037 -36.9999 -972.5 191.5C-939.353 308.929 -799.245 52.9105 -724 97.5C-656.5 137.5 -611.5 70.9268 -575.5 44C-514 -2.00001 -523.924 203.192 -462 191.5C-390.5 178 -378.968 40.9887 -290.5 73C-214.5 100.5 -198.5 43.0002 -137 136C-75.5 229 -112.5 35.5 45.5 44C163 50.3212 149.5 159 194 236.5C283.991 393.226 287 235.5 315 100.5C343 -34.5 396.5 171 466.5 32.5001C536.5 -106 515 45.0001 610 159C705 273 714 159 762 159C821.228 159 850 443.5 892 252C934 60.5001 940.5 59 997 122C1150.28 292.918 1248.5 -53.5 1308.5 206.5C1339.42 340.5 1390.42 356 1412.5 305Z" fill="url(#paint0_linear_939_12096)" fill-opacity="0.75" style="mix-blend-mode:plus-lighter"/>
<defs>
<linearGradient id="paint0_linear_939_12096" x1="-407.5" y1="545.5" x2="-407.5" y2="-335" gradientUnits="userSpaceOnUse">
<stop offset="0.349462" stop-color="#03478E" stop-opacity="0.08"/>
<stop offset="0.836656" stop-color="#03478E"/>
</linearGradient>
</defs>
</svg>
