<svg width="412" height="351" viewBox="0 0 412 351" fill="none" xmlns="http://www.w3.org/2000/svg">
<path d="M990.5 305C1052.5 161.8 1075 -66.6666 1078.5 -163L-1719 -163C-1579 523 -1535.5 352 -1511 271.5C-1486.5 191 -1459 -36.9999 -1394.5 191.5C-1361.35 308.929 -1221.24 52.9105 -1146 97.5C-1078.5 137.5 -1033.5 70.9268 -997.5 44C-936 -2.00001 -945.924 203.192 -884 191.5C-812.5 178 -800.968 40.9887 -712.5 73C-636.5 100.5 -620.5 43.0002 -559 136C-497.5 229 -534.5 35.5 -376.5 44C-259 50.3212 -272.5 159 -228 236.5C-138.009 393.226 -135 235.5 -107 100.5C-79 -34.5 -25.5 171 44.5 32.5001C114.5 -106 93 45.0001 188 159C283 273 292 159 340 159C399.228 159 428 443.5 470 252C512 60.5001 518.5 59 575 122C728.283 292.918 826.5 -53.5 886.5 206.5C917.423 340.5 968.419 356 990.5 305Z" fill="url(#paint0_linear_939_12260)" fill-opacity="0.75" style="mix-blend-mode:plus-lighter"/>
<defs>
<linearGradient id="paint0_linear_939_12260" x1="-829.5" y1="545.5" x2="-829.5" y2="-335" gradientUnits="userSpaceOnUse">
<stop offset="0.356825" stop-color="#03478E" stop-opacity="0.08"/>
<stop offset="0.845652" stop-color="#03478E"/>
</linearGradient>
</defs>
</svg>
