<svg width="183" height="183" viewBox="0 0 183 183" fill="none" xmlns="http://www.w3.org/2000/svg">
<mask id="mask0_976_17332" style="mask-type:luminance" maskUnits="userSpaceOnUse" x="0" y="0" width="183" height="183">
<path d="M182.358 91.1793C182.358 40.8224 141.536 0.000146401 91.1791 0.000148602C40.8223 0.000150803 -6.18673e-06 40.8224 -3.98557e-06 91.1793C-1.7844e-06 141.536 40.8223 182.358 91.1791 182.358C141.536 182.358 182.358 141.536 182.358 91.1793Z" fill="white"/>
</mask>
<g mask="url(#mask0_976_17332)">
<path d="M182.36 0H0V182.36H182.36V0Z" fill="#FFF6BC"/>
</g>
<mask id="mask1_976_17332" style="mask-type:luminance" maskUnits="userSpaceOnUse" x="0" y="0" width="183" height="183">
<path d="M182.358 91.1793C182.358 40.8224 141.536 0.000146401 91.1791 0.000148602C40.8223 0.000150803 -6.18673e-06 40.8224 -3.98557e-06 91.1793C-1.7844e-06 141.536 40.8223 182.358 91.1791 182.358C141.536 182.358 182.358 141.536 182.358 91.1793Z" fill="white"/>
</mask>
<g mask="url(#mask1_976_17332)">
<path d="M163.751 113.77C162.121 109.26 158.291 106.14 154.181 104.99C157.681 100.3 156.691 92.4899 152.791 88.2599C148.891 84.0199 142.881 83.1099 137.731 84.7999C140.241 79.7199 141.211 73.2799 139.041 67.9999C137.571 64.4299 131.661 62.7499 126.581 62.8299C126.491 62.9699 126.401 63.1099 126.311 63.2599C126.221 63.1199 126.121 62.9899 126.031 62.8499C123.811 62.9399 121.791 63.3699 120.431 64.1399C120.331 61.5599 120.381 58.9299 120.521 56.2599C114.981 50.9099 107.981 47.2099 100.561 45.8499C90.2313 43.9699 79.2113 46.6499 70.7213 53.1299L67.2813 52.0799C65.2013 56.5499 63.6713 61.2899 64.1813 62.9199C60.7713 61.4999 51.9913 61.3199 49.8513 64.6999C47.7113 68.0799 47.7713 73.0999 49.9813 76.4199C44.7513 77.0199 39.8813 80.8699 37.5013 86.2899C35.1213 91.7099 35.3013 98.5199 37.9613 103.76C31.6013 101.56 24.4213 105.79 21.1013 112.44C17.7813 119.09 17.8913 127.49 20.1113 134.72C20.1213 134.72 27.1913 134.84 38.1513 135.01C38.5013 131.87 39.1813 128.77 40.1913 125.78C41.1913 128.88 42.2013 131.99 43.2013 135.09C68.3313 135.45 108.421 135.92 134.711 135.76C135.191 131.96 136.121 128.21 137.521 124.64C138.551 128.29 139.411 131.99 140.121 135.71C142.331 135.69 144.401 135.66 146.321 135.62C146.901 132.2 147.841 128.84 149.131 125.62C150.991 128.56 152.061 132 152.231 135.47C157.301 135.3 160.441 135.06 160.861 134.72C164.331 131.94 165.371 118.28 163.751 113.77Z" fill="#EF6A55"/>
<path d="M64.5921 92.24C63.7521 86.64 62.9121 81.04 62.0721 75.44C61.3821 70.83 60.6921 66.1 61.6521 61.54C63.4721 52.86 71.1721 46.28 79.6321 43.64C88.1021 40.99 97.2421 41.68 105.992 43.18C109.672 43.81 113.492 44.65 116.402 47C119.702 49.66 121.342 53.88 122.122 58.04C124.702 71.72 119.472 85.58 113.712 98.26C99.7421 99.86 85.6421 100.29 71.6121 99.53L64.5921 92.24Z" fill="#EF6A55"/>
<mask id="mask2_976_17332" style="mask-type:luminance" maskUnits="userSpaceOnUse" x="18" y="45" width="147" height="91">
<path d="M163.533 113.89C161.903 109.38 158.073 106.26 153.963 105.11C157.463 100.42 156.473 92.61 152.573 88.38C148.673 84.14 142.663 83.23 137.513 84.92C140.023 79.84 140.993 73.4 138.823 68.12C137.353 64.55 131.443 62.87 126.363 62.95C126.273 63.09 126.183 63.23 126.093 63.38C126.003 63.24 125.903 63.11 125.813 62.97C123.593 63.06 121.573 63.49 120.213 64.26C120.113 61.68 120.163 59.05 120.303 56.38C114.763 51.03 107.763 47.33 100.343 45.97C90.0126 44.09 78.9926 46.77 70.5026 53.25L67.0626 52.2C64.9826 56.67 63.4526 61.41 63.9626 63.04C60.5526 61.62 51.7726 61.44 49.6326 64.82C47.4926 68.2 47.5526 73.22 49.7626 76.54C44.5326 77.14 39.6626 80.99 37.2826 86.41C34.9026 91.83 35.0826 98.64 37.7426 103.88C31.3826 101.68 24.2026 105.91 20.8826 112.56C17.5626 119.21 17.6726 127.61 19.8926 134.84C19.9026 134.84 26.9726 134.96 37.9326 135.13C38.2826 131.99 38.9626 128.89 39.9726 125.9C40.9726 129 41.9826 132.11 42.9826 135.21C68.1126 135.57 108.203 136.04 134.493 135.88C134.973 132.08 135.903 128.33 137.303 124.76C138.333 128.41 139.193 132.11 139.903 135.83C142.113 135.81 144.183 135.78 146.103 135.74C146.683 132.32 147.623 128.96 148.913 125.74C150.773 128.68 151.843 132.12 152.013 135.59C157.083 135.42 160.223 135.18 160.643 134.84C164.123 132.06 165.163 118.4 163.533 113.89Z" fill="white"/>
</mask>
<g mask="url(#mask2_976_17332)">
<path d="M52.1017 136.77C60.1017 134.35 65.0517 124.68 62.3417 116.77C62.0717 115.98 61.7517 115.06 62.2117 114.36C62.5417 113.86 63.1717 113.66 63.7417 113.47C71.4617 110.78 74.7617 99.8298 69.8217 93.3198C84.4917 89.5798 100.132 89.6798 114.752 93.6198C111.152 95.6798 108.912 99.8898 109.212 104.03C109.512 108.16 112.322 112.01 116.182 113.54C112.032 116.45 111.592 122.76 113.832 127.31C116.072 131.86 120.292 135.06 124.362 138.09C103.022 141.28 73.3317 140.28 52.0117 137.01L52.1017 136.77Z" fill="#933B32"/>
</g>
<path d="M135.69 146.48C127.21 140.8 116.96 138.52 106.95 136.51C106.34 136.39 105.7 136.25 105.21 135.87C104.37 135.21 106.28 118.74 105.21 109.07L90.9201 110.41L76.6301 109.07C75.5601 118.74 77.4701 135.21 76.6301 135.87C76.1401 136.25 75.5001 136.39 74.8901 136.51C64.8801 138.52 54.6301 140.8 46.1501 146.48C37.6701 152.16 31.2401 184.1 32.6001 194.21C41.1201 194.17 64.8901 172.29 88.9801 172.61V172.66C89.6201 172.65 90.2701 172.64 90.9101 172.63C91.5501 172.64 92.2001 172.65 92.8401 172.66V172.61C116.93 172.29 140.7 194.17 149.22 194.21C150.6 184.09 144.18 152.16 135.69 146.48Z" fill="#FBD1B9"/>
<mask id="mask3_976_17332" style="mask-type:luminance" maskUnits="userSpaceOnUse" x="32" y="109" width="118" height="86">
<path d="M135.69 146.48C127.21 140.8 116.96 138.52 106.95 136.51C106.34 136.39 105.7 136.25 105.21 135.87C104.37 135.21 106.28 118.74 105.21 109.07L90.9201 110.41L76.6301 109.07C75.5601 118.74 77.4701 135.21 76.6301 135.87C76.1401 136.25 75.5001 136.39 74.8901 136.51C64.8801 138.52 54.6301 140.8 46.1501 146.48C37.6701 152.16 31.2401 184.1 32.6001 194.21C41.1201 194.17 64.8901 172.29 88.9801 172.61V172.66C89.6201 172.65 90.2701 172.64 90.9101 172.63C91.5501 172.64 92.2001 172.65 92.8401 172.66V172.61C116.93 172.29 140.7 194.17 149.22 194.21C150.6 184.09 144.18 152.16 135.69 146.48Z" fill="white"/>
</mask>
<g mask="url(#mask3_976_17332)">
<path d="M57.6211 108.76C63.2511 105.13 63.5011 103.39 63.7711 105.13C65.1011 113.69 78.6311 134.3 90.9211 134.3C106.831 134.3 116.071 107.44 117.561 100.67C99.1711 103.3 80.5411 105.93 62.1011 103.72C62.6111 104.2 63.1111 104.68 63.6211 105.15L57.6211 108.76Z" fill="#DBA78A"/>
</g>
<path d="M69.7293 61.8695C66.4493 72.9595 67.2593 92.3995 69.7293 103.7C69.7393 103.76 69.7593 103.82 69.7693 103.88C71.1093 109.95 73.2493 116 77.2893 120.73C81.3293 125.45 87.5393 128.64 93.6993 127.81C99.6493 127 104.649 122.58 107.549 117.32C110.459 112.06 111.569 106.02 112.379 100.06C113.789 89.6895 113.419 62.1596 112.429 62.0796C99.6093 60.9896 82.1993 58.3695 69.7293 61.5195V61.8695Z" fill="#FBD1B9"/>
<path d="M111.87 95.7595C112.18 93.4795 114.93 92.0495 117.14 92.7195C119.35 93.3895 120.8 95.6795 120.96 97.9795C121.12 100.28 120.19 102.54 118.87 104.43C116.67 107.58 112.8 110.03 109.09 109.05C109.68 104.32 110.53 99.6295 111.63 94.9895L111.87 95.7595Z" fill="#FBD1B9"/>
<path d="M70.071 95.7595C69.751 93.4795 67.011 92.0495 64.801 92.7195C62.591 93.3895 61.141 95.6795 60.971 97.9795C60.811 100.28 61.741 102.54 63.061 104.43C65.261 107.58 69.131 110.03 72.841 109.05C72.251 104.32 71.401 99.6295 70.301 94.9895L70.071 95.7595Z" fill="#FBD1B9"/>
<path d="M113.471 102.94C113.591 102.72 113.711 102.5 113.851 102.28C113.911 102.18 113.981 102.09 114.041 101.99C114.081 101.93 114.121 101.88 114.161 101.82C114.171 101.81 114.281 101.66 114.221 101.73C114.161 101.8 114.281 101.66 114.291 101.65C114.331 101.6 114.381 101.54 114.421 101.49C114.491 101.4 114.571 101.32 114.651 101.23C114.821 101.05 115.001 100.87 115.191 100.7C115.281 100.62 115.361 100.55 115.451 100.48C115.461 100.47 115.641 100.33 115.511 100.43C115.561 100.39 115.601 100.36 115.651 100.33C115.841 100.19 116.051 100.05 116.251 99.93C116.471 99.8 116.691 99.68 116.921 99.57C117.021 99.52 117.131 99.47 117.231 99.43C117.081 99.5 117.291 99.41 117.301 99.4C117.361 99.37 117.431 99.35 117.491 99.33C117.871 99.19 118.161 98.8 118.031 98.38C117.911 98.01 117.491 97.7 117.081 97.84C114.971 98.61 113.171 100.14 112.131 102.15C111.951 102.51 112.031 103 112.411 103.2C112.771 103.4 113.281 103.32 113.471 102.94Z" fill="#A46E4A"/>
<path d="M114.71 101.01C114.82 101.11 114.93 101.22 115.02 101.33C114.98 101.28 114.94 101.23 114.9 101.17C115.02 101.32 115.11 101.49 115.19 101.67C115.16 101.61 115.14 101.55 115.11 101.49C115.19 101.69 115.25 101.89 115.28 102.11C115.27 102.04 115.26 101.97 115.25 101.91C115.27 102.1 115.27 102.29 115.25 102.49C115.26 102.42 115.27 102.35 115.28 102.29C115.28 102.32 115.27 102.35 115.26 102.39C115.22 102.6 115.23 102.79 115.34 102.98C115.43 103.14 115.62 103.29 115.8 103.33C116 103.37 116.22 103.37 116.39 103.25C116.55 103.15 116.71 102.99 116.74 102.79C116.83 102.27 116.82 101.73 116.64 101.23C116.47 100.74 116.19 100.28 115.79 99.93C115.63 99.8 115.46 99.71 115.25 99.71C115.06 99.71 114.84 99.79 114.71 99.93C114.58 100.08 114.48 100.27 114.48 100.47C114.49 100.66 114.55 100.88 114.71 101.01Z" fill="#A46E4A"/>
<path d="M81.112 92.5201C81.112 94.1201 79.932 95.4201 78.472 95.4201C77.012 95.4201 75.832 94.1201 75.832 92.5201C75.832 90.9201 77.012 89.6201 78.472 89.6201C79.932 89.6201 81.112 90.9201 81.112 92.5201Z" fill="#1A1A1A"/>
<path d="M107.331 92.5201C107.331 94.1201 106.151 95.4201 104.691 95.4201C103.231 95.4201 102.051 94.1201 102.051 92.5201C102.051 90.9201 103.231 89.6201 104.691 89.6201C106.151 89.6201 107.331 90.9201 107.331 92.5201Z" fill="#1A1A1A"/>
<path d="M63.9402 98.4404C65.4002 99.7904 66.5202 101.48 67.1602 103.31C67.3002 103.7 67.6902 103.96 68.1102 103.85C68.4902 103.75 68.7802 103.3 68.6502 102.9C67.9102 100.79 66.6802 98.8704 65.0302 97.3504C64.7302 97.0704 64.2402 97.0504 63.9402 97.3504C63.6602 97.6404 63.6402 98.1604 63.9402 98.4404Z" fill="#A46E4A"/>
<path d="M64.7717 101.84C64.8317 101.84 64.8817 101.85 64.9417 101.86C64.8717 101.85 64.8017 101.84 64.7417 101.83C65.0317 101.87 65.3217 101.95 65.5917 102.06C65.5317 102.03 65.4717 102.01 65.4117 101.98C65.6817 102.1 65.9417 102.24 66.1717 102.42C66.1217 102.38 66.0717 102.34 66.0117 102.3C66.1317 102.39 66.2417 102.49 66.3417 102.59C66.6217 102.88 67.1517 102.89 67.4317 102.59C67.7117 102.28 67.7317 101.81 67.4317 101.5C66.7217 100.78 65.7817 100.37 64.7817 100.29C64.5917 100.27 64.3617 100.39 64.2417 100.51C64.1117 100.64 64.0117 100.86 64.0117 101.05C64.0217 101.25 64.0817 101.45 64.2417 101.59C64.3817 101.76 64.5517 101.82 64.7717 101.84Z" fill="#A46E4A"/>
<path d="M83.5023 77.9397C83.8423 78.1597 83.6623 78.7497 83.2923 78.9197C82.9223 79.0897 82.4823 78.9697 82.0923 78.8797C78.9723 78.1497 75.5623 78.7697 72.9023 80.5597C74.0523 78.5197 76.0523 76.9697 78.3223 76.3697C80.1923 75.8697 82.5523 76.2097 83.5023 77.8897V77.9397Z" fill="#241E21"/>
<path d="M99.7196 84.0901C99.3796 84.3101 99.5596 84.9001 99.9296 85.0701C100.3 85.2401 100.74 85.1201 101.13 85.0301C104.25 84.3001 107.66 84.9201 110.32 86.7101C109.17 84.6701 107.17 83.1201 104.9 82.5201C103.03 82.0201 100.67 82.3601 99.7196 84.0401V84.0901Z" fill="#241E21"/>
<path d="M67.9598 90.6103C71.7998 81.7203 73.8898 72.0903 74.0898 62.4103C76.2198 64.5103 78.4398 66.6703 81.2398 67.7303C84.0398 68.7903 87.5999 68.4703 89.4999 66.1503C92.6499 71.0203 100.54 71.8003 104.58 67.6403C105.64 71.5303 109.79 74.3203 113.79 73.8303C114.29 73.7703 114.83 73.6403 115.13 73.2303C115.37 72.9003 115.4 72.4603 115.42 72.0503C115.61 67.5703 115.51 63.0703 115.14 58.6003C115.09 58.0003 115.02 57.3603 114.61 56.9103C114.18 56.4403 113.51 56.3103 112.88 56.2203C98.0998 53.9803 83.0599 54.7903 68.1398 55.6103C67.6098 55.6403 67.0299 55.6903 66.6599 56.0703C66.3399 56.4003 66.2598 56.8803 66.1998 57.3303C65.0098 66.2503 64.8299 75.3103 65.6799 84.2703L67.9598 90.6103Z" fill="#EF6A55"/>
<path d="M89.9015 99.0304C90.6415 98.1704 91.4815 97.3804 92.4115 96.7204C93.1815 96.1804 94.3015 95.3204 95.2615 95.6604C95.8815 95.8804 96.2915 96.5804 96.4515 97.2504C96.6515 98.1004 96.4015 98.9104 95.9415 99.6604C95.3015 100.7 94.3315 101.49 93.4015 102.27C93.0815 102.54 93.1215 103.08 93.4015 103.36C93.7215 103.68 94.1715 103.63 94.4915 103.36C96.3815 101.78 98.4715 99.7604 97.9715 97.0504C97.7815 96.0104 97.1615 94.9704 96.2315 94.4404C94.9715 93.7204 93.5815 94.1704 92.4315 94.8804C91.0715 95.7104 89.8515 96.7504 88.8115 97.9504C88.5415 98.2604 88.5015 98.7304 88.8115 99.0404C89.0915 99.3104 89.6315 99.3504 89.9015 99.0304Z" fill="#A46E4A"/>
<path d="M85.6798 106.21C87.7998 108.31 91.4098 108.65 93.8398 106.88C94.1798 106.64 94.3398 106.21 94.1198 105.83C93.9298 105.5 93.4098 105.31 93.0698 105.55C91.1898 106.91 88.4398 106.77 86.7698 105.12C86.0598 104.43 84.9798 105.52 85.6798 106.21Z" fill="#A46E4A"/>
<path d="M136.703 146.31C131.523 142.84 125.693 140.63 119.663 138.96C118.313 141.39 116.563 143.59 114.383 145.44C109.463 149.6 103.003 151.5 96.6226 152.38C82.7326 154.3 67.0426 151.03 58.2026 140.32C53.7726 141.81 49.5226 143.7 45.6326 146.31C37.0026 152.09 30.4726 184.19 31.8526 194.49C40.5126 194.45 64.7026 172.58 89.2026 172.9V172.95C89.8626 172.94 90.5126 172.93 91.1726 172.92C91.8326 172.93 92.4826 172.94 93.1426 172.95V172.9C117.643 172.58 141.823 194.45 150.493 194.49C151.873 184.2 145.333 152.09 136.703 146.31Z" fill="#EF6A55"/>
<mask id="mask4_976_17332" style="mask-type:luminance" maskUnits="userSpaceOnUse" x="31" y="138" width="120" height="57">
<path d="M136.703 146.31C131.523 142.84 125.693 140.63 119.663 138.96C118.313 141.39 116.563 143.59 114.383 145.44C109.463 149.6 103.003 151.5 96.6226 152.38C82.7326 154.3 67.0426 151.03 58.2026 140.32C53.7726 141.81 49.5226 143.7 45.6326 146.31C37.0026 152.09 30.4726 184.19 31.8526 194.49C40.5126 194.45 64.7026 172.58 89.2026 172.9V172.95C89.8626 172.94 90.5126 172.93 91.1726 172.92C91.8326 172.93 92.4826 172.94 93.1426 172.95V172.9C117.643 172.58 141.823 194.45 150.493 194.49C151.873 184.2 145.333 152.09 136.703 146.31Z" fill="white"/>
</mask>
<g mask="url(#mask4_976_17332)">
<path d="M41.8516 151.08L46.3016 151.42L49.1016 147.96L50.1416 152.29L54.3016 153.88L50.5116 156.22L50.2816 160.66L46.8916 157.78L42.5816 158.93L44.2816 154.81L41.8516 151.08Z" fill="white"/>
</g>
<mask id="mask5_976_17332" style="mask-type:luminance" maskUnits="userSpaceOnUse" x="31" y="138" width="120" height="57">
<path d="M136.703 146.31C131.523 142.84 125.693 140.63 119.663 138.96C118.313 141.39 116.563 143.59 114.383 145.44C109.463 149.6 103.003 151.5 96.6226 152.38C82.7326 154.3 67.0426 151.03 58.2026 140.32C53.7726 141.81 49.5226 143.7 45.6326 146.31C37.0026 152.09 30.4726 184.19 31.8526 194.49C40.5126 194.45 64.7026 172.58 89.2026 172.9V172.95C89.8626 172.94 90.5126 172.93 91.1726 172.92C91.8326 172.93 92.4826 172.94 93.1426 172.95V172.9C117.643 172.58 141.823 194.45 150.493 194.49C151.873 184.2 145.333 152.09 136.703 146.31Z" fill="white"/>
</mask>
<g mask="url(#mask5_976_17332)">
<path d="M76.1931 162.58L71.7631 163.01L69.6031 166.9L67.8231 162.82L63.4531 161.97L66.7831 159.02L66.2431 154.6L70.0831 156.85L74.1131 154.97L73.1531 159.32L76.1931 162.58Z" fill="white"/>
</g>
<mask id="mask6_976_17332" style="mask-type:luminance" maskUnits="userSpaceOnUse" x="31" y="138" width="120" height="57">
<path d="M136.703 146.31C131.523 142.84 125.693 140.63 119.663 138.96C118.313 141.39 116.563 143.59 114.383 145.44C109.463 149.6 103.003 151.5 96.6226 152.38C82.7326 154.3 67.0426 151.03 58.2026 140.32C53.7726 141.81 49.5226 143.7 45.6326 146.31C37.0026 152.09 30.4726 184.19 31.8526 194.49C40.5126 194.45 64.7026 172.58 89.2026 172.9V172.95C89.8626 172.94 90.5126 172.93 91.1726 172.92C91.8326 172.93 92.4826 172.94 93.1426 172.95V172.9C117.643 172.58 141.823 194.45 150.493 194.49C151.873 184.2 145.333 152.09 136.703 146.31Z" fill="white"/>
</mask>
<g mask="url(#mask6_976_17332)">
<path d="M57.542 167.77L57.132 172.2L60.552 175.05L56.212 176.03L54.552 180.17L52.282 176.34L47.832 176.04L50.772 172.69L49.682 168.37L53.772 170.14L57.542 167.77Z" fill="white"/>
</g>
<mask id="mask7_976_17332" style="mask-type:luminance" maskUnits="userSpaceOnUse" x="31" y="138" width="120" height="57">
<path d="M136.703 146.31C131.523 142.84 125.693 140.63 119.663 138.96C118.313 141.39 116.563 143.59 114.383 145.44C109.463 149.6 103.003 151.5 96.6226 152.38C82.7326 154.3 67.0426 151.03 58.2026 140.32C53.7726 141.81 49.5226 143.7 45.6326 146.31C37.0026 152.09 30.4726 184.19 31.8526 194.49C40.5126 194.45 64.7026 172.58 89.2026 172.9V172.95C89.8626 172.94 90.5126 172.93 91.1726 172.92C91.8326 172.93 92.4826 172.94 93.1426 172.95V172.9C117.643 172.58 141.823 194.45 150.493 194.49C151.873 184.2 145.333 152.09 136.703 146.31Z" fill="white"/>
</mask>
<g mask="url(#mask7_976_17332)">
<path d="M93.4542 166.87L95.4242 170.86L99.8242 171.5L96.6342 174.61L97.3942 179L93.4542 176.93L89.5042 179L90.2642 174.61L87.0742 171.5L91.4742 170.86L93.4542 166.87Z" fill="white"/>
</g>
<mask id="mask8_976_17332" style="mask-type:luminance" maskUnits="userSpaceOnUse" x="31" y="138" width="120" height="57">
<path d="M136.703 146.31C131.523 142.84 125.693 140.63 119.663 138.96C118.313 141.39 116.563 143.59 114.383 145.44C109.463 149.6 103.003 151.5 96.6226 152.38C82.7326 154.3 67.0426 151.03 58.2026 140.32C53.7726 141.81 49.5226 143.7 45.6326 146.31C37.0026 152.09 30.4726 184.19 31.8526 194.49C40.5126 194.45 64.7026 172.58 89.2026 172.9V172.95C89.8626 172.94 90.5126 172.93 91.1726 172.92C91.8326 172.93 92.4826 172.94 93.1426 172.95V172.9C117.643 172.58 141.823 194.45 150.493 194.49C151.873 184.2 145.333 152.09 136.703 146.31Z" fill="white"/>
</mask>
<g mask="url(#mask8_976_17332)">
<path d="M113.363 152.69L113.753 157.13L117.633 159.32L113.533 161.06L112.643 165.43L109.713 162.07L105.293 162.57L107.583 158.75L105.733 154.7L110.073 155.7L113.363 152.69Z" fill="white"/>
</g>
<mask id="mask9_976_17332" style="mask-type:luminance" maskUnits="userSpaceOnUse" x="31" y="138" width="120" height="57">
<path d="M136.703 146.31C131.523 142.84 125.693 140.63 119.663 138.96C118.313 141.39 116.563 143.59 114.383 145.44C109.463 149.6 103.003 151.5 96.6226 152.38C82.7326 154.3 67.0426 151.03 58.2026 140.32C53.7726 141.81 49.5226 143.7 45.6326 146.31C37.0026 152.09 30.4726 184.19 31.8526 194.49C40.5126 194.45 64.7026 172.58 89.2026 172.9V172.95C89.8626 172.94 90.5126 172.93 91.1726 172.92C91.8326 172.93 92.4826 172.94 93.1426 172.95V172.9C117.643 172.58 141.823 194.45 150.493 194.49C151.873 184.2 145.333 152.09 136.703 146.31Z" fill="white"/>
</mask>
<g mask="url(#mask9_976_17332)">
<path d="M131.482 139.25L133.452 143.25L137.862 143.89L134.672 147L135.422 151.39L131.482 149.31L127.542 151.39L128.292 147L125.102 143.89L129.512 143.25L131.482 139.25Z" fill="white"/>
</g>
<mask id="mask10_976_17332" style="mask-type:luminance" maskUnits="userSpaceOnUse" x="31" y="138" width="120" height="57">
<path d="M136.703 146.31C131.523 142.84 125.693 140.63 119.663 138.96C118.313 141.39 116.563 143.59 114.383 145.44C109.463 149.6 103.003 151.5 96.6226 152.38C82.7326 154.3 67.0426 151.03 58.2026 140.32C53.7726 141.81 49.5226 143.7 45.6326 146.31C37.0026 152.09 30.4726 184.19 31.8526 194.49C40.5126 194.45 64.7026 172.58 89.2026 172.9V172.95C89.8626 172.94 90.5126 172.93 91.1726 172.92C91.8326 172.93 92.4826 172.94 93.1426 172.95V172.9C117.643 172.58 141.823 194.45 150.493 194.49C151.873 184.2 145.333 152.09 136.703 146.31Z" fill="white"/>
</mask>
<g mask="url(#mask10_976_17332)">
<path d="M128.614 164.55L131.694 167.76L136.094 167.04L133.994 170.96L136.034 174.92L131.654 174.14L128.514 177.3L127.914 172.89L123.934 170.89L127.934 168.95L128.614 164.55Z" fill="white"/>
</g>
<path d="M55.1304 141.32C56.1204 152.36 57.1104 163.4 58.0904 174.45C55.3304 174.84 52.5704 175.23 49.8104 175.62C49.1004 165.75 48.4004 155.88 47.6904 146.01C47.6604 145.6 47.6404 145.15 47.8504 144.79C48.0504 144.46 48.4104 144.26 48.7504 144.09C50.6404 143.12 52.5304 142.15 54.4304 141.18L55.1304 141.32Z" fill="#8CA3C3"/>
<path d="M122.193 138.95C121.983 150.03 121.772 161.11 121.562 172.2C124.293 172.4 127.032 172.6 129.762 172.8C129.782 162.9 129.792 153.01 129.812 143.11C129.812 142.69 129.803 142.25 129.573 141.91C129.353 141.59 128.983 141.42 128.633 141.27C126.713 140.43 124.783 139.59 122.863 138.75L122.193 138.95Z" fill="#8CA3C3"/>
<path d="M54.7919 169.32C78.9219 167.35 105.702 168.18 129.822 170.31C130.402 175.05 128.802 183.63 129.082 183.78C105.622 183.06 73.8819 183.95 50.4219 184.66L54.7919 169.32Z" fill="#8CA3C3"/>
<path d="M66.5111 64.81C68.9711 67.08 71.5911 69.18 74.3411 71.08C74.6811 71.32 75.1911 69.61 75.3911 69.27C75.6111 68.89 75.4611 69.99 75.1111 69.76C72.4611 67.93 69.9511 65.92 67.5911 63.73C66.8711 63.05 65.7811 64.13 66.5111 64.81Z" fill="#241E21"/>
<path d="M69.0592 62.5302C71.5192 64.4302 73.9792 66.3202 76.4292 68.2202C76.7592 68.4702 77.2892 68.2702 77.4792 67.9402C77.7092 67.5402 77.5292 65.6102 77.1992 65.3502C74.7392 63.4502 72.2792 63.0902 69.8292 61.2002C69.4992 60.9502 68.9692 61.1502 68.7792 61.4802C68.5492 61.8702 68.7292 62.2702 69.0592 62.5302Z" fill="#241E21"/>
<path d="M59.4806 173.47C74.8906 173.47 90.2906 173.47 105.701 173.47C110.041 173.47 114.381 173.47 118.721 173.47C119.711 173.47 119.711 171.93 118.721 171.93C103.311 171.93 87.9106 171.93 72.5006 171.93C68.1606 171.93 63.8206 171.93 59.4806 171.93C58.4906 171.93 58.4806 173.47 59.4806 173.47Z" fill="#566E8C"/>
<path d="M55.6391 169.83C55.6391 170.96 54.7191 171.88 53.5891 171.88C52.4591 171.88 51.5391 170.96 51.5391 169.83C51.5391 168.7 52.4591 167.78 53.5891 167.78C54.7291 167.78 55.6391 168.7 55.6391 169.83Z" fill="#566E8C"/>
<path d="M128.131 170.08C128.131 171.21 127.211 172.13 126.081 172.13C124.951 172.13 124.031 171.21 124.031 170.08C124.031 168.95 124.951 168.03 126.081 168.03C127.211 168.03 128.131 168.95 128.131 170.08Z" fill="#566E8C"/>
<path d="M68.9394 107.08C68.9394 107.93 68.2494 108.62 67.3994 108.62C66.5494 108.62 65.8594 107.93 65.8594 107.08C65.8594 106.23 66.5494 105.54 67.3994 105.54C68.2494 105.54 68.9394 106.23 68.9394 107.08Z" fill="#241E21"/>
<path d="M70.8 116.3H64.01C63.27 116.3 62.82 115.49 63.21 114.87L67.4 108.11L71.59 114.87C71.99 115.49 71.54 116.3 70.8 116.3Z" fill="#241E21"/>
<path d="M115.041 107.08C115.041 107.93 114.351 108.62 113.501 108.62C112.651 108.62 111.961 107.93 111.961 107.08C111.961 106.23 112.651 105.54 113.501 105.54C114.361 105.54 115.041 106.23 115.041 107.08Z" fill="#241E21"/>
<path d="M116.902 116.3H110.112C109.372 116.3 108.922 115.49 109.312 114.87L113.502 108.11L117.692 114.87C118.092 115.49 117.642 116.3 116.902 116.3Z" fill="#241E21"/>
<path d="M128.542 65.5395C132.422 65.1895 136.392 66.5095 139.182 69.2495C141.982 71.9895 143.402 75.9195 143.132 79.8095C143.102 80.2295 143.512 80.5695 143.902 80.5795C148.032 80.6895 152.022 82.5595 154.732 85.6895C157.492 88.8695 158.672 93.2195 158.132 97.3695C158.082 97.7795 158.522 98.1295 158.902 98.1395C159.362 98.1395 159.612 97.7795 159.672 97.3695C160.622 90.1295 156.462 83.0695 149.752 80.2795C147.892 79.5095 145.912 79.0995 143.912 79.0395C144.172 79.2995 144.422 79.5495 144.682 79.8095C144.982 75.5295 143.352 71.1695 140.282 68.1695C137.212 65.1695 132.822 63.6195 128.552 64.0095C127.562 64.0895 127.552 65.6295 128.542 65.5395Z" fill="#EF6A55"/>
<path d="M46.7107 77.7196C39.9007 79.4896 34.8007 85.7696 33.8607 92.6596C33.5907 94.6296 33.6707 96.6196 34.1207 98.5596C34.3707 98.2396 34.6107 97.9096 34.8607 97.5896C28.1507 97.8896 21.9207 102.14 18.9107 108.1C18.0607 109.78 17.4707 111.57 17.2007 113.43C17.0607 114.4 18.5407 114.81 18.6807 113.84C19.5807 107.73 24.0307 102.4 29.7707 100.2C31.4007 99.5796 33.1107 99.1996 34.8507 99.1296C35.3607 99.1096 35.7107 98.6596 35.5907 98.1596C34.1607 91.9496 37.1007 85.1396 42.2407 81.4996C43.7207 80.4496 45.3507 79.6796 47.1107 79.2196C48.0807 78.9596 47.6707 77.4696 46.7107 77.7196Z" fill="#EF6A55"/>
</g>
<mask id="mask11_976_17332" style="mask-type:luminance" maskUnits="userSpaceOnUse" x="0" y="0" width="183" height="183">
<path d="M182.358 91.1793C182.358 40.8224 141.536 0.000146401 91.1791 0.000148602C40.8223 0.000150803 -6.18673e-06 40.8224 -3.98557e-06 91.1793C-1.7844e-06 141.536 40.8223 182.358 91.1791 182.358C141.536 182.358 182.358 141.536 182.358 91.1793Z" fill="white"/>
</mask>
<g mask="url(#mask11_976_17332)">
<path d="M55.9611 83.6899C49.9911 86.4299 47.5211 94.5899 50.8611 100.2C51.0111 99.8199 51.1711 99.4499 51.3211 99.0699C45.5211 100.01 41.3611 105.94 42.1611 111.69C42.3011 112.67 43.7811 112.25 43.6411 111.28C42.9511 106.3 46.8411 101.34 51.7311 100.55C52.2311 100.47 52.4211 99.8099 52.1911 99.4199C49.2511 94.4699 51.5311 87.3999 56.7411 85.0099C57.6311 84.6099 56.8511 83.2799 55.9611 83.6899Z" fill="#933B32"/>
</g>
<mask id="mask12_976_17332" style="mask-type:luminance" maskUnits="userSpaceOnUse" x="0" y="0" width="183" height="183">
<path d="M182.358 91.1793C182.358 40.8224 141.536 0.000146401 91.1791 0.000148602C40.8223 0.000150803 -6.18673e-06 40.8224 -3.98557e-06 91.1793C-1.7844e-06 141.536 40.8223 182.358 91.1791 182.358C141.536 182.358 182.358 141.536 182.358 91.1793Z" fill="white"/>
</mask>
<g mask="url(#mask12_976_17332)">
<path d="M127.52 88.4296C128.2 89.1496 128.8 89.9396 129.3 90.7896C132.36 95.9396 136.09 100.71 140.99 104.16C141.43 104.47 141.84 104.81 142.23 105.19C144.97 107.86 146.08 111.96 145.15 115.65C144.91 116.61 146.39 117.02 146.63 116.06C147.45 112.79 146.9 109.23 145.12 106.36C143.32 103.46 140.3 101.45 136.94 100.84C135.05 100.49 133.12 100.56 131.27 101.08C131.59 101.4 131.9 101.71 132.22 102.03C133.68 96.9096 132.26 91.1996 128.6 87.3396C127.93 86.6196 126.84 87.7096 127.52 88.4296Z" fill="#933B32"/>
</g>
<mask id="mask13_976_17332" style="mask-type:luminance" maskUnits="userSpaceOnUse" x="0" y="0" width="183" height="183">
<path d="M182.358 91.1793C182.358 40.8224 141.536 0.000146401 91.1791 0.000148602C40.8223 0.000150803 -6.18673e-06 40.8224 -3.98557e-06 91.1793C-1.7844e-06 141.536 40.8223 182.358 91.1791 182.358C141.536 182.358 182.358 141.536 182.358 91.1793Z" fill="white"/>
</mask>
<g mask="url(#mask13_976_17332)">
<path d="M125.44 112.93C129.23 111.49 133.89 114.74 133.75 118.82C133.72 119.81 135.25 119.81 135.29 118.82C135.45 113.81 129.74 109.66 125.03 111.45C124.64 111.6 124.38 111.97 124.49 112.4C124.59 112.77 125.05 113.08 125.44 112.93Z" fill="#933B32"/>
</g>
</svg>
