<svg width="183" height="183" viewBox="0 0 183 183" fill="none" xmlns="http://www.w3.org/2000/svg">
<mask id="mask0_976_16824" style="mask-type:luminance" maskUnits="userSpaceOnUse" x="0" y="0" width="183" height="183">
<path d="M91.18 182.36C141.537 182.36 182.36 141.537 182.36 91.18C182.36 40.8227 141.537 0 91.18 0C40.8227 0 0 40.8227 0 91.18C0 141.537 40.8227 182.36 91.18 182.36Z" fill="white"/>
</mask>
<g mask="url(#mask0_976_16824)">
<path d="M91.18 182.36C141.537 182.36 182.36 141.537 182.36 91.18C182.36 40.8227 141.537 0 91.18 0C40.8227 0 0 40.8227 0 91.18C0 141.537 40.8227 182.36 91.18 182.36Z" fill="#FFE8DB"/>
</g>
<mask id="mask1_976_16824" style="mask-type:luminance" maskUnits="userSpaceOnUse" x="0" y="0" width="183" height="183">
<path d="M91.18 182.36C141.537 182.36 182.36 141.537 182.36 91.18C182.36 40.8227 141.537 0 91.18 0C40.8227 0 0 40.8227 0 91.18C0 141.537 40.8227 182.36 91.18 182.36Z" fill="white"/>
</mask>
<g mask="url(#mask1_976_16824)">
<path d="M150.521 151.511C139.661 145.831 126.541 143.551 113.731 141.541C112.951 141.421 112.141 141.281 111.511 140.901C110.441 140.241 112.881 118.141 111.511 108.471L93.2208 109.811L74.9308 108.471C73.5608 118.141 76.0008 140.241 74.9308 140.901C74.3008 141.281 73.4908 141.421 72.7108 141.541C59.9008 143.551 46.7808 145.831 35.9208 151.511C25.0608 157.191 16.8408 167.101 18.5808 177.221C29.4808 177.181 59.9108 177.331 90.7408 177.651V177.701C91.5608 177.691 92.3908 177.681 93.2208 177.671C94.0508 177.681 94.8708 177.691 95.7008 177.701V177.651C126.531 177.331 156.961 177.181 167.861 177.221C169.601 167.091 161.381 157.191 150.521 151.511Z" fill="#FBD1B9"/>
<mask id="mask2_976_16824" style="mask-type:luminance" maskUnits="userSpaceOnUse" x="18" y="108" width="151" height="70">
<path d="M150.521 151.511C139.661 145.831 126.541 143.551 113.731 141.541C112.951 141.421 112.141 141.281 111.511 140.901C110.441 140.241 112.881 118.141 111.511 108.471L93.2208 109.811L74.9308 108.471C73.5608 118.141 76.0008 140.241 74.9308 140.901C74.3008 141.281 73.4908 141.421 72.7108 141.541C59.9008 143.551 46.7808 145.831 35.9208 151.511C25.0608 157.191 16.8408 167.101 18.5808 177.221C29.4808 177.181 59.9108 177.331 90.7408 177.651V177.701C91.5608 177.691 92.3908 177.681 93.2208 177.671C94.0508 177.681 94.8708 177.691 95.7008 177.701V177.651C126.531 177.331 156.961 177.181 167.861 177.221C169.601 167.091 161.381 157.191 150.521 151.511Z" fill="white"/>
</mask>
<g mask="url(#mask2_976_16824)">
<path d="M50.5898 108.16C57.7998 104.53 58.1098 102.79 58.4598 104.53C60.1598 113.09 77.4698 133.7 93.2098 133.7C113.58 133.7 125.4 106.84 127.3 100.07C103.76 102.7 79.9198 105.33 56.3098 103.12C56.9598 103.6 57.6098 104.08 58.2498 104.55L50.5898 108.16Z" fill="#DBA78A"/>
</g>
<path d="M66.09 61.2604C61.89 72.3504 62.93 91.7904 66.09 103.09C66.11 103.15 66.1201 103.21 66.1401 103.27C67.8601 109.34 70.6 115.39 75.77 120.11C80.94 124.83 88.89 128.02 96.7701 127.19C104.39 126.38 110.78 121.96 114.5 116.7C118.22 111.44 119.65 105.4 120.69 99.4404C122.5 89.0704 122.03 61.5404 120.75 61.4604C104.34 60.3704 82.06 57.7504 66.09 60.9004V61.2604Z" fill="#FBD1B9"/>
<path d="M120.03 95.1609C120.43 92.8809 123.95 91.4509 126.77 92.1209C129.59 92.7909 131.46 95.0809 131.67 97.3809C131.88 99.6809 130.69 101.941 129 103.831C126.19 106.981 121.23 109.431 116.48 108.451C117.24 103.721 118.32 99.0309 119.73 94.3909L120.03 95.1609Z" fill="#FBD1B9"/>
<path d="M66.5195 95.1609C66.1195 92.8809 62.5995 91.4509 59.7795 92.1209C56.9595 92.7909 55.0895 95.0809 54.8795 97.3809C54.6695 99.6809 55.8595 101.941 57.5495 103.831C60.3595 106.981 65.3195 109.431 70.0695 108.451C69.3095 103.721 68.2295 99.0309 66.8195 94.3909L66.5195 95.1609Z" fill="#FBD1B9"/>
</g>
<mask id="mask3_976_16824" style="mask-type:luminance" maskUnits="userSpaceOnUse" x="0" y="0" width="183" height="183">
<path d="M91.18 182.36C141.537 182.36 182.36 141.537 182.36 91.18C182.36 40.8227 141.537 0 91.18 0C40.8227 0 0 40.8227 0 91.18C0 141.537 40.8227 182.36 91.18 182.36Z" fill="white"/>
</mask>
<g mask="url(#mask3_976_16824)">
<path d="M83.5408 87.2801C83.5408 89.3201 81.9208 90.9801 79.9208 90.9801C77.9208 90.9801 76.3008 89.3201 76.3008 87.2801C76.3008 85.2401 77.9208 83.5801 79.9208 83.5801C81.9208 83.5801 83.5408 85.2301 83.5408 87.2801Z" fill="#1A1A1A"/>
<path d="M111.74 87.2801C111.74 89.3201 110.12 90.9801 108.12 90.9801C106.12 90.9801 104.5 89.3201 104.5 87.2801C104.5 85.2401 106.12 83.5801 108.12 83.5801C110.12 83.5801 111.74 85.2301 111.74 87.2801Z" fill="#1A1A1A"/>
</g>
<mask id="mask4_976_16824" style="mask-type:luminance" maskUnits="userSpaceOnUse" x="0" y="0" width="183" height="183">
<path d="M91.18 182.36C141.537 182.36 182.36 141.537 182.36 91.18C182.36 40.8227 141.537 0 91.18 0C40.8227 0 0 40.8227 0 91.18C0 141.537 40.8227 182.36 91.18 182.36Z" fill="white"/>
</mask>
<g mask="url(#mask4_976_16824)">
<path d="M87.082 102.051C89.872 107.161 96.592 109.491 101.432 102.561L87.082 102.051Z" fill="white"/>
<path d="M86.4114 102.43C87.8814 105.07 90.4214 107.2 93.4814 107.58C97.0914 108.03 100.091 105.75 102.081 102.94C102.441 102.44 101.951 101.8 101.421 101.78C97.2314 101.63 93.0314 101.48 88.8414 101.33C88.2514 101.31 87.6714 101.29 87.0814 101.27C86.0914 101.23 86.0914 102.77 87.0814 102.81C91.2714 102.96 95.4714 103.11 99.6614 103.26C100.251 103.28 100.831 103.3 101.421 103.32C101.201 102.93 100.981 102.55 100.761 102.16C99.1114 104.49 96.5714 106.47 93.5514 106.04C91.0114 105.68 88.9514 103.82 87.7414 101.64C87.2614 100.79 85.9314 101.57 86.4114 102.43Z" fill="#A46E4A"/>
</g>
<mask id="mask5_976_16824" style="mask-type:luminance" maskUnits="userSpaceOnUse" x="0" y="0" width="183" height="183">
<path d="M91.18 182.36C141.537 182.36 182.36 141.537 182.36 91.18C182.36 40.8227 141.537 0 91.18 0C40.8227 0 0 40.8227 0 91.18C0 141.537 40.8227 182.36 91.18 182.36Z" fill="white"/>
</mask>
<g mask="url(#mask5_976_16824)">
<path d="M127.621 143.33C119.401 152.28 107.331 155.7 93.3309 155.32V155.25C93.0209 155.26 92.7009 155.28 92.3909 155.29C92.0809 155.28 91.7609 155.26 91.4509 155.25V155.32C77.4509 155.7 66.0109 152.29 57.7909 143.33C57.7909 143.33 14.9609 149.88 19.4009 177.35C19.4309 177.54 84.3509 197.04 84.2009 197.26C72.4309 214.71 100.731 232.81 101.941 231.52L98.1409 212.37C134.691 212.17 165.381 177.53 165.401 177.34C168.291 150.39 127.621 143.33 127.621 143.33Z" fill="#CE7D1D"/>
</g>
<mask id="mask6_976_16824" style="mask-type:luminance" maskUnits="userSpaceOnUse" x="0" y="0" width="183" height="183">
<path d="M91.18 182.36C141.537 182.36 182.36 141.537 182.36 91.18C182.36 40.8227 141.537 0 91.18 0C40.8227 0 0 40.8227 0 91.18C0 141.537 40.8227 182.36 91.18 182.36Z" fill="white"/>
</mask>
<g mask="url(#mask6_976_16824)">
<path d="M91.9499 90.9296C93.3699 90.4796 94.4999 89.5096 95.8499 88.9396C96.7299 88.5696 98.1299 88.3396 98.7999 89.2196C99.5599 90.2096 98.9899 91.8296 98.6699 92.8696C98.2199 94.3596 97.5799 95.7796 96.7899 97.1296C96.2899 97.9796 97.6099 98.7596 98.1199 97.9096C98.8499 96.6696 99.4599 95.3596 99.9299 94.0096C100.34 92.8296 100.76 91.5096 100.68 90.2396C100.6 88.9796 99.9699 87.8496 98.7699 87.3696C97.7399 86.9496 96.5199 87.0596 95.4999 87.4596C94.1099 87.9896 92.9699 89.0196 91.5399 89.4696C90.6099 89.7396 91.0099 91.2296 91.9499 90.9296Z" fill="#A46E4A"/>
</g>
<mask id="mask7_976_16824" style="mask-type:luminance" maskUnits="userSpaceOnUse" x="0" y="0" width="183" height="183">
<path d="M91.18 182.36C141.537 182.36 182.36 141.537 182.36 91.18C182.36 40.8227 141.537 0 91.18 0C40.8227 0 0 40.8227 0 91.18C0 141.537 40.8227 182.36 91.18 182.36Z" fill="white"/>
</mask>
<g mask="url(#mask7_976_16824)">
<path d="M102.41 74.0101C102.52 74.8501 102.64 75.6901 102.75 76.5401C102.79 76.8601 102.84 77.2001 103.02 77.4701C103.42 78.0701 104.27 78.1201 105 78.1301C108.45 78.2001 111.88 79.0801 114.94 80.6801C114.83 79.1101 113.95 77.6701 112.77 76.6301C111.59 75.5901 110.13 74.9201 108.65 74.4001C106.75 73.7301 104.63 73.2901 102.72 73.9501L102.41 74.0101Z" fill="#1A1A1A"/>
</g>
<mask id="mask8_976_16824" style="mask-type:luminance" maskUnits="userSpaceOnUse" x="0" y="0" width="183" height="183">
<path d="M91.18 182.36C141.537 182.36 182.36 141.537 182.36 91.18C182.36 40.8227 141.537 0 91.18 0C40.8227 0 0 40.8227 0 91.18C0 141.537 40.8227 182.36 91.18 182.36Z" fill="white"/>
</mask>
<g mask="url(#mask8_976_16824)">
<path d="M83.9708 71.97C83.8608 72.81 83.7508 73.65 83.6408 74.5C83.6008 74.82 83.5508 75.16 83.3808 75.43C82.9908 76.03 82.1608 76.08 81.4608 76.09C78.1108 76.16 74.7708 77.04 71.8008 78.64C71.9008 77.07 72.7708 75.63 73.9108 74.59C75.0608 73.55 76.4708 72.88 77.9208 72.36C79.7708 71.69 81.8308 71.25 83.6808 71.91L83.9708 71.97Z" fill="#1A1A1A"/>
</g>
<mask id="mask9_976_16824" style="mask-type:luminance" maskUnits="userSpaceOnUse" x="0" y="0" width="183" height="183">
<path d="M91.18 182.36C141.537 182.36 182.36 141.537 182.36 91.18C182.36 40.8227 141.537 0 91.18 0C40.8227 0 0 40.8227 0 91.18C0 141.537 40.8227 182.36 91.18 182.36Z" fill="white"/>
</mask>
<g mask="url(#mask9_976_16824)">
<path d="M63.8516 57.6296C66.7116 63.1596 71.9916 67.3896 78.0116 68.9696C79.3316 69.3196 80.9416 69.4696 81.8816 68.4696C82.7116 67.5796 82.6116 66.1996 82.3716 65.0096C81.8516 62.4696 80.8916 60.0296 79.5616 57.8096C82.1716 63.3996 86.8216 67.9996 92.4416 70.5296C94.6916 71.5496 97.8816 71.9696 99.1616 69.8596C100.012 68.4596 99.5116 66.6696 98.9916 65.1196C98.4716 63.5596 97.9516 61.9896 97.4216 60.4296C99.2416 64.6996 102.732 68.2396 106.982 70.1296C107.872 70.5296 108.902 70.8496 109.802 70.4896C111.802 69.6896 111.312 66.7396 110.462 64.7496C110.992 67.3596 111.962 69.8796 113.322 72.1696C113.852 73.0696 114.482 73.9596 115.392 74.4596C116.312 74.9596 117.582 74.9296 118.272 74.1496C118.962 73.3696 118.582 71.8396 117.542 71.7096C117.392 75.2496 118.872 78.8296 121.482 81.2296C122.842 80.0596 122.892 78.0096 122.822 76.2196C122.642 71.2096 122.462 66.1996 122.292 61.1896C122.262 60.4696 122.232 59.7296 121.922 59.0796C121.512 58.2296 120.672 57.6696 119.852 57.2096C115.152 54.5996 109.682 53.8296 104.332 53.2996C93.3316 52.2096 82.2616 51.8996 71.2216 52.3696C69.5616 52.4396 67.8216 52.5596 66.4216 53.4496C65.0216 54.3396 64.1516 56.2896 64.9916 57.7196L63.8516 57.6296Z" fill="#1A1A1A"/>
</g>
<mask id="mask10_976_16824" style="mask-type:luminance" maskUnits="userSpaceOnUse" x="0" y="0" width="183" height="183">
<path d="M91.18 182.36C141.537 182.36 182.36 141.537 182.36 91.18C182.36 40.8227 141.537 0 91.18 0C40.8227 0 0 40.8227 0 91.18C0 141.537 40.8227 182.36 91.18 182.36Z" fill="white"/>
</mask>
<g mask="url(#mask10_976_16824)">
<path d="M64.8303 55.2998C61.8503 67.2298 60.6203 79.5898 61.1903 91.8698C61.2303 92.7398 61.2903 93.6398 61.6703 94.4298C62.5403 96.2198 65.4303 86.8998 65.4903 80.8198C65.5603 73.4898 65.8103 65.5998 70.2703 59.7798L64.8303 55.2998Z" fill="#1A1A1A"/>
</g>
<mask id="mask11_976_16824" style="mask-type:luminance" maskUnits="userSpaceOnUse" x="0" y="0" width="183" height="183">
<path d="M91.18 182.36C141.537 182.36 182.36 141.537 182.36 91.18C182.36 40.8227 141.537 0 91.18 0C40.8227 0 0 40.8227 0 91.18C0 141.537 40.8227 182.36 91.18 182.36Z" fill="white"/>
</mask>
<g mask="url(#mask11_976_16824)">
<path d="M119.071 73.4104C120.561 81.4504 121.301 89.6204 121.281 97.7904C121.841 97.7004 122.391 97.6004 122.951 97.5104C123.671 89.1704 124.391 80.8304 125.101 72.4904C125.401 68.9704 125.691 65.3204 124.471 62.0104C123.251 58.7004 120.061 55.8304 116.551 56.1804L119.071 73.4104Z" fill="#1A1A1A"/>
</g>
<mask id="mask12_976_16824" style="mask-type:luminance" maskUnits="userSpaceOnUse" x="0" y="0" width="183" height="183">
<path d="M91.18 182.36C141.537 182.36 182.36 141.537 182.36 91.18C182.36 40.8227 141.537 0 91.18 0C40.8227 0 0 40.8227 0 91.18C0 141.537 40.8227 182.36 91.18 182.36Z" fill="white"/>
</mask>
<g mask="url(#mask12_976_16824)">
<path d="M90.4297 35.3498C90.6097 32.1298 93.1197 29.3098 95.8997 29.2098C98.6797 29.1098 101.34 31.7398 101.69 34.9398C98.1097 34.6498 94.4997 34.8498 90.9597 35.5498L90.4297 35.3498Z" fill="#724328"/>
<path d="M63.7383 58.2096C65.7583 46.7396 79.0383 32.6396 94.9783 32.6396C117.988 32.6396 126.208 50.0296 125.938 57.7896L63.7383 58.2096Z" fill="#A8734F"/>
<mask id="mask13_976_16824" style="mask-type:luminance" maskUnits="userSpaceOnUse" x="63" y="32" width="63" height="27">
<path d="M63.7383 58.2096C65.7583 46.7396 79.0383 32.6396 94.9783 32.6396C117.988 32.6396 126.208 50.0296 125.938 57.7896L63.7383 58.2096Z" fill="white"/>
</mask>
<g mask="url(#mask13_976_16824)">
<path d="M68.459 59.7292C70.509 49.8392 75.089 40.0092 83.729 34.2592C86.009 32.7492 88.489 31.5792 91.119 30.8392C91.649 30.6892 91.419 29.8692 90.889 30.0192C80.929 32.8092 73.879 41.2292 70.229 50.5892C69.099 53.4792 68.259 56.4692 67.639 59.4992C67.529 60.0392 68.349 60.2692 68.459 59.7292Z" fill="#724328"/>
</g>
<mask id="mask14_976_16824" style="mask-type:luminance" maskUnits="userSpaceOnUse" x="63" y="32" width="63" height="27">
<path d="M63.7383 58.2096C65.7583 46.7396 79.0383 32.6396 94.9783 32.6396C117.988 32.6396 126.208 50.0296 125.938 57.7896L63.7383 58.2096Z" fill="white"/>
</mask>
<g mask="url(#mask14_976_16824)">
<path d="M90.2472 30.7993C86.8272 33.1793 84.5472 36.7793 82.8572 40.5193C81.0172 44.5993 79.8672 48.9693 79.4572 53.4293C79.2172 56.0393 79.2372 58.6693 79.4972 61.2793C79.5572 61.8193 80.4072 61.8293 80.3472 61.2793C79.4772 52.8093 81.2772 43.7393 85.9572 36.5493C87.2172 34.6093 88.7672 32.8593 90.6672 31.5293C91.1272 31.2193 90.6972 30.4793 90.2472 30.7993Z" fill="#724328"/>
</g>
<mask id="mask15_976_16824" style="mask-type:luminance" maskUnits="userSpaceOnUse" x="63" y="32" width="63" height="27">
<path d="M63.7383 58.2096C65.7583 46.7396 79.0383 32.6396 94.9783 32.6396C117.988 32.6396 126.208 50.0296 125.938 57.7896L63.7383 58.2096Z" fill="white"/>
</mask>
<g mask="url(#mask15_976_16824)">
<path d="M93.3684 29.2293C90.2984 31.0593 90.2084 35.3893 89.9284 38.5393C89.5184 43.1693 89.4784 47.8293 89.7984 52.4693C89.9784 55.0293 90.2784 57.5893 90.6684 60.1293C90.7484 60.6693 91.5684 60.4393 91.4884 59.8993C90.6384 54.4293 90.2984 48.8893 90.4784 43.3593C90.5684 40.6693 90.7384 37.9693 91.1184 35.3093C91.3984 33.3193 91.9384 31.0693 93.7884 29.9593C94.2684 29.6793 93.8384 28.9393 93.3684 29.2293Z" fill="#724328"/>
</g>
<mask id="mask16_976_16824" style="mask-type:luminance" maskUnits="userSpaceOnUse" x="63" y="32" width="63" height="27">
<path d="M63.7383 58.2096C65.7583 46.7396 79.0383 32.6396 94.9783 32.6396C117.988 32.6396 126.208 50.0296 125.938 57.7896L63.7383 58.2096Z" fill="white"/>
</mask>
<g mask="url(#mask16_976_16824)">
<path d="M91.6774 30.1494C96.9774 36.1494 99.1574 44.0594 100.527 51.7694C100.917 53.9894 101.257 56.2194 101.577 58.4494C101.657 58.9894 102.477 58.7594 102.397 58.2194C101.257 50.3194 100.007 42.1394 96.1274 35.0394C95.0474 33.0694 93.7674 31.2294 92.2774 29.5494C91.9174 29.1394 91.3174 29.7394 91.6774 30.1494Z" fill="#724328"/>
</g>
<mask id="mask17_976_16824" style="mask-type:luminance" maskUnits="userSpaceOnUse" x="63" y="32" width="63" height="27">
<path d="M63.7383 58.2096C65.7583 46.7396 79.0383 32.6396 94.9783 32.6396C117.988 32.6396 126.208 50.0296 125.938 57.7896L63.7383 58.2096Z" fill="white"/>
</mask>
<g mask="url(#mask17_976_16824)">
<path d="M94.4296 30.8394C102.82 34.6694 109.46 41.9794 112.6 50.6394C113.49 53.0994 114.11 55.6594 114.4 58.2694C114.46 58.8094 115.31 58.8094 115.25 58.2694C114.18 48.8394 109.14 40.0494 101.66 34.2294C99.5596 32.5994 97.2796 31.2094 94.8596 30.0994C94.3596 29.8794 93.9296 30.6094 94.4296 30.8394Z" fill="#724328"/>
</g>
<mask id="mask18_976_16824" style="mask-type:luminance" maskUnits="userSpaceOnUse" x="63" y="32" width="63" height="27">
<path d="M63.7383 58.2096C65.7583 46.7396 79.0383 32.6396 94.9783 32.6396C117.988 32.6396 126.208 50.0296 125.938 57.7896L63.7383 58.2096Z" fill="white"/>
</mask>
<g mask="url(#mask18_976_16824)">
<path d="M94.8489 30.6094C97.7389 30.2694 100.449 31.3494 102.929 32.7394C105.279 34.0594 107.569 35.5594 109.769 37.1094C111.929 38.6294 113.999 40.3094 115.769 42.2794C117.619 44.3494 119.019 46.7394 120.049 49.3094C121.219 52.2294 121.979 55.2994 122.729 58.3494C122.859 58.8794 123.679 58.6594 123.549 58.1194C122.199 52.5994 120.729 46.9594 117.059 42.4794C113.569 38.2094 108.629 35.0694 103.909 32.3194C101.169 30.7194 98.0989 29.3794 94.8589 29.7594C94.3089 29.8194 94.2989 30.6794 94.8489 30.6094Z" fill="#724328"/>
</g>
<path d="M63.5685 57.3496C63.0585 57.5596 62.7085 58.1196 62.4885 58.8496C61.6285 61.6696 63.4785 64.5496 65.7085 64.0396C84.9285 59.6596 104.649 60.2596 123.459 65.8096C125.139 66.3096 126.829 64.7696 127.129 62.4596L127.359 60.7096C127.619 58.7296 126.759 56.8296 125.329 56.2796C117.499 53.2696 92.0385 45.4196 63.5685 57.3496Z" fill="#724328"/>
</g>
<mask id="mask19_976_16824" style="mask-type:luminance" maskUnits="userSpaceOnUse" x="0" y="0" width="183" height="183">
<path d="M91.18 182.36C141.537 182.36 182.36 141.537 182.36 91.18C182.36 40.8227 141.537 0 91.18 0C40.8227 0 0 40.8227 0 91.18C0 141.537 40.8227 182.36 91.18 182.36Z" fill="white"/>
</mask>
<g mask="url(#mask19_976_16824)">
<path d="M59.3117 96.5196C61.2417 98.2996 62.9317 100.32 64.3217 102.54C64.8417 103.38 66.1717 102.61 65.6517 101.76C64.1917 99.4296 62.4217 97.2896 60.4017 95.4296C59.6717 94.7596 58.5817 95.8496 59.3117 96.5196Z" fill="#A46E4A"/>
</g>
<mask id="mask20_976_16824" style="mask-type:luminance" maskUnits="userSpaceOnUse" x="0" y="0" width="183" height="183">
<path d="M91.18 182.36C141.537 182.36 182.36 141.537 182.36 91.18C182.36 40.8227 141.537 0 91.18 0C40.8227 0 0 40.8227 0 91.18C0 141.537 40.8227 182.36 91.18 182.36Z" fill="white"/>
</mask>
<g mask="url(#mask20_976_16824)">
<path d="M61.5487 100.8C61.5987 100.73 61.6488 100.66 61.6988 100.59C61.6588 100.64 61.6188 100.69 61.5788 100.75C61.7588 100.52 61.9687 100.31 62.2087 100.13C62.1587 100.17 62.1087 100.21 62.0487 100.25C62.2787 100.08 62.5288 99.9302 62.7888 99.8202C62.7288 99.8502 62.6688 99.8702 62.6088 99.9002C62.6288 99.8902 62.6588 99.8802 62.6788 99.8702C62.7788 99.8502 62.8687 99.8002 62.9387 99.7302C63.0187 99.6802 63.0887 99.6002 63.1387 99.5102C63.2387 99.3502 63.2788 99.1002 63.2188 98.9202C63.1588 98.7302 63.0387 98.5502 62.8687 98.4602C62.6987 98.3702 62.4687 98.3102 62.2787 98.3802C62.0587 98.4702 61.8487 98.5602 61.6387 98.6802C61.4287 98.8002 61.2388 98.9402 61.0588 99.0902C60.7388 99.3502 60.4688 99.6702 60.2388 100.02C60.1288 100.18 60.1088 100.43 60.1588 100.61C60.2088 100.79 60.3487 100.98 60.5087 101.07C60.6887 101.16 60.8987 101.21 61.0987 101.15C61.2887 101.09 61.4387 100.98 61.5487 100.8Z" fill="#A46E4A"/>
</g>
<mask id="mask21_976_16824" style="mask-type:luminance" maskUnits="userSpaceOnUse" x="0" y="0" width="183" height="183">
<path d="M91.18 182.36C141.537 182.36 182.36 141.537 182.36 91.18C182.36 40.8227 141.537 0 91.18 0C40.8227 0 0 40.8227 0 91.18C0 141.537 40.8227 182.36 91.18 182.36Z" fill="white"/>
</mask>
<g mask="url(#mask21_976_16824)">
<path d="M123.311 101.87C123.461 101.66 123.581 101.52 123.771 101.29C123.951 101.07 124.131 100.86 124.321 100.64C124.691 100.23 125.071 99.8296 125.471 99.4496C125.871 99.0696 126.281 98.6996 126.711 98.3496C127.141 97.9996 127.491 97.7296 127.981 97.3896C128.321 97.1496 128.481 96.7196 128.261 96.3396C128.061 95.9996 127.551 95.8296 127.211 96.0596C125.211 97.4596 123.471 99.1496 122.001 101.09C121.761 101.41 121.941 101.96 122.281 102.14C122.661 102.36 123.051 102.21 123.311 101.87Z" fill="#A46E4A"/>
</g>
<mask id="mask22_976_16824" style="mask-type:luminance" maskUnits="userSpaceOnUse" x="0" y="0" width="183" height="183">
<path d="M91.18 182.36C141.537 182.36 182.36 141.537 182.36 91.18C182.36 40.8227 141.537 0 91.18 0C40.8227 0 0 40.8227 0 91.18C0 141.537 40.8227 182.36 91.18 182.36Z" fill="white"/>
</mask>
<g mask="url(#mask22_976_16824)">
<path d="M124.74 99.3704C124.82 99.4604 124.89 99.5404 124.97 99.6304C125.04 99.7104 124.95 99.6004 124.93 99.5804C124.95 99.6104 124.97 99.6404 125 99.6704C125.03 99.7204 125.07 99.7704 125.1 99.8104C125.23 100.01 125.35 100.22 125.46 100.44C125.48 100.49 125.52 100.55 125.53 100.6C125.53 100.58 125.46 100.44 125.5 100.54C125.51 100.57 125.52 100.59 125.53 100.62C125.57 100.73 125.61 100.84 125.64 100.95C125.71 101.19 125.77 101.43 125.8 101.68C125.83 101.86 126.01 102.05 126.15 102.14C126.31 102.24 126.56 102.28 126.74 102.22C126.93 102.16 127.11 102.04 127.2 101.87C127.3 101.68 127.31 101.49 127.28 101.28C127.11 100.17 126.57 99.1204 125.81 98.2904C125.54 97.9904 125 97.9904 124.72 98.2904C124.45 98.6004 124.45 99.0504 124.74 99.3704Z" fill="#A46E4A"/>
</g>
<mask id="mask23_976_16824" style="mask-type:luminance" maskUnits="userSpaceOnUse" x="0" y="0" width="183" height="183">
<path d="M91.18 182.36C141.537 182.36 182.36 141.537 182.36 91.18C182.36 40.8227 141.537 0 91.18 0C40.8227 0 0 40.8227 0 91.18C0 141.537 40.8227 182.36 91.18 182.36Z" fill="white"/>
</mask>
<g mask="url(#mask23_976_16824)">
<path d="M63.6191 182.46C68.8191 175.77 77.3091 172.75 85.4891 171.88C94.4291 170.94 104.239 172.31 111.019 178.7C114.309 181.8 116.649 185.84 117.249 190.35C117.309 190.76 117.829 190.98 118.199 190.89C118.649 190.77 118.789 190.35 118.739 189.94C117.559 181.17 110.329 174.51 102.229 171.81C97.4791 170.23 92.3791 169.83 87.4091 170.17C82.9491 170.47 78.4791 171.32 74.3091 172.95C69.7591 174.74 65.5591 177.47 62.5391 181.36C61.9391 182.15 63.0191 183.24 63.6191 182.46Z" fill="#724328"/>
</g>
<mask id="mask24_976_16824" style="mask-type:luminance" maskUnits="userSpaceOnUse" x="0" y="0" width="183" height="183">
<path d="M91.18 182.36C141.537 182.36 182.36 141.537 182.36 91.18C182.36 40.8227 141.537 0 91.18 0C40.8227 0 0 40.8227 0 91.18C0 141.537 40.8227 182.36 91.18 182.36Z" fill="white"/>
</mask>
<g mask="url(#mask24_976_16824)">
<path d="M71.8793 185.18C73.7893 182.89 76.4893 181.58 79.3293 180.85C82.3693 180.07 85.5593 179.85 88.6793 180.08C94.8693 180.53 100.869 182.99 105.359 187.32C107.689 189.56 109.589 192.26 110.829 195.25C111.199 196.15 112.689 195.76 112.309 194.84C109.939 189.14 105.499 184.44 99.9993 181.64C93.8693 178.52 86.5993 177.71 79.8893 179.14C76.4693 179.87 73.0593 181.36 70.7793 184.1C70.1593 184.84 71.2393 185.94 71.8793 185.18Z" fill="#724328"/>
</g>
<mask id="mask25_976_16824" style="mask-type:luminance" maskUnits="userSpaceOnUse" x="0" y="0" width="183" height="183">
<path d="M91.18 182.36C141.537 182.36 182.36 141.537 182.36 91.18C182.36 40.8227 141.537 0 91.18 0C40.8227 0 0 40.8227 0 91.18C0 141.537 40.8227 182.36 91.18 182.36Z" fill="white"/>
</mask>
<g mask="url(#mask25_976_16824)">
<path d="M130.579 156.47C129.009 166.19 127.689 175.95 126.629 185.74C126.329 188.51 126.049 191.27 125.789 194.04C125.699 195.02 127.239 195.02 127.329 194.04C128.229 184.37 129.379 174.73 130.789 165.12C131.189 162.37 131.619 159.62 132.059 156.87C132.219 155.91 130.739 155.49 130.579 156.47Z" fill="#724328"/>
</g>
<mask id="mask26_976_16824" style="mask-type:luminance" maskUnits="userSpaceOnUse" x="0" y="0" width="183" height="183">
<path d="M91.18 182.36C141.537 182.36 182.36 141.537 182.36 91.18C182.36 40.8227 141.537 0 91.18 0C40.8227 0 0 40.8227 0 91.18C0 141.537 40.8227 182.36 91.18 182.36Z" fill="white"/>
</mask>
<g mask="url(#mask26_976_16824)">
<path d="M132.619 163.55C131.509 165.22 130.409 166.9 129.299 168.57C129.069 168.92 129.229 169.42 129.579 169.62C129.959 169.84 130.399 169.69 130.629 169.34C131.739 167.67 132.839 165.99 133.949 164.32C134.179 163.97 134.019 163.47 133.669 163.27C133.289 163.05 132.849 163.2 132.619 163.55Z" fill="#724328"/>
</g>
<mask id="mask27_976_16824" style="mask-type:luminance" maskUnits="userSpaceOnUse" x="0" y="0" width="183" height="183">
<path d="M91.18 182.36C141.537 182.36 182.36 141.537 182.36 91.18C182.36 40.8227 141.537 0 91.18 0C40.8227 0 0 40.8227 0 91.18C0 141.537 40.8227 182.36 91.18 182.36Z" fill="white"/>
</mask>
<g mask="url(#mask27_976_16824)">
<path d="M49.9583 155.08C51.0783 165.06 48.6083 174.9 47.1083 184.7C46.9583 185.67 48.4383 186.08 48.5883 185.11C50.1083 175.18 52.6283 165.19 51.4983 155.08C51.3783 154.11 49.8383 154.1 49.9583 155.08Z" fill="#724328"/>
</g>
<mask id="mask28_976_16824" style="mask-type:luminance" maskUnits="userSpaceOnUse" x="0" y="0" width="183" height="183">
<path d="M91.18 182.36C141.537 182.36 182.36 141.537 182.36 91.18C182.36 40.8227 141.537 0 91.18 0C40.8227 0 0 40.8227 0 91.18C0 141.537 40.8227 182.36 91.18 182.36Z" fill="white"/>
</mask>
<g mask="url(#mask28_976_16824)">
<path d="M46.1193 159.4C47.0593 160.89 47.9993 162.39 48.9393 163.88C49.1493 164.22 49.6293 164.39 49.9893 164.16C50.3293 163.94 50.4893 163.47 50.2693 163.11C49.3293 161.62 48.3893 160.12 47.4493 158.63C47.2393 158.29 46.7593 158.12 46.3993 158.35C46.0493 158.57 45.8893 159.04 46.1193 159.4Z" fill="#724328"/>
</g>
<mask id="mask29_976_16824" style="mask-type:luminance" maskUnits="userSpaceOnUse" x="0" y="0" width="183" height="183">
<path d="M91.18 182.36C141.537 182.36 182.36 141.537 182.36 91.18C182.36 40.8227 141.537 0 91.18 0C40.8227 0 0 40.8227 0 91.18C0 141.537 40.8227 182.36 91.18 182.36Z" fill="white"/>
</mask>
<g mask="url(#mask29_976_16824)">
<path opacity="0.26" d="M82.0314 98.0001C82.0314 101.82 78.9314 104.92 75.1114 104.92C71.2914 104.92 68.1914 101.82 68.1914 98.0001C68.1914 94.1801 71.2914 91.0801 75.1114 91.0801C78.9414 91.0801 82.0314 94.1801 82.0314 98.0001Z" fill="#A46E4A"/>
</g>
<mask id="mask30_976_16824" style="mask-type:luminance" maskUnits="userSpaceOnUse" x="0" y="0" width="183" height="183">
<path d="M91.18 182.36C141.537 182.36 182.36 141.537 182.36 91.18C182.36 40.8227 141.537 0 91.18 0C40.8227 0 0 40.8227 0 91.18C0 141.537 40.8227 182.36 91.18 182.36Z" fill="white"/>
</mask>
<g mask="url(#mask30_976_16824)">
<path opacity="0.26" d="M118.399 99.5401C118.399 103.36 115.299 106.46 111.479 106.46C107.659 106.46 104.559 103.36 104.559 99.5401C104.559 95.7201 107.659 92.6201 111.479 92.6201C115.309 92.6201 118.399 95.7201 118.399 99.5401Z" fill="#A46E4A"/>
</g>
</svg>
