<svg width="183" height="183" viewBox="0 0 183 183" fill="none" xmlns="http://www.w3.org/2000/svg">
<mask id="mask0_976_16488" style="mask-type:luminance" maskUnits="userSpaceOnUse" x="0" y="0" width="183" height="183">
<path d="M182.353 91.1769C182.353 40.8214 141.532 0.000237954 91.1766 0.000240155C40.8212 0.000242356 -6.18656e-06 40.8214 -3.98546e-06 91.1769C-1.78435e-06 141.532 40.8212 182.354 91.1766 182.354C141.532 182.354 182.353 141.532 182.353 91.1769Z" fill="white"/>
</mask>
<g mask="url(#mask0_976_16488)">
<path d="M182.364 -0.00195312H0.00390625V182.358H182.364V-0.00195312Z" fill="#C7ECFF"/>
</g>
<mask id="mask1_976_16488" style="mask-type:luminance" maskUnits="userSpaceOnUse" x="0" y="0" width="183" height="183">
<path d="M182.353 91.1769C182.353 40.8214 141.532 0.000237954 91.1766 0.000240155C40.8212 0.000242356 -6.18656e-06 40.8214 -3.98546e-06 91.1769C-1.78435e-06 141.532 40.8212 182.354 91.1766 182.354C141.532 182.354 182.353 141.532 182.353 91.1769Z" fill="white"/>
</mask>
<g mask="url(#mask1_976_16488)">
<path d="M64.8706 95.3986C64.0506 102.319 63.2606 109.569 65.7606 116.049C66.8406 118.859 68.5006 121.389 70.2006 123.859C71.2506 125.379 72.3306 126.889 73.6406 128.169C76.8006 131.259 81.1306 132.859 85.4706 133.419C89.8106 133.989 94.2106 133.609 98.5706 133.229C100.551 133.059 102.581 132.869 104.351 131.969C106.351 130.959 107.831 129.149 109.231 127.389C113.931 121.509 118.761 115.099 119.481 107.549C119.701 105.219 119.511 102.869 119.311 100.529C119.021 97.2586 118.701 93.9986 118.341 90.7386C118.191 89.3586 118.021 82.8186 117.331 81.6086C116.511 80.1686 115.061 79.2186 113.571 78.5386C109.121 76.5086 104.051 76.3986 99.1906 76.8986C94.3306 77.3986 89.5406 78.4786 84.6706 78.6986L64.8706 95.3986Z" fill="#241E21"/>
<path d="M141.94 157.699C132.36 152.029 120.79 149.759 109.49 147.749C108.8 147.629 108.08 147.489 107.53 147.109C106.58 146.449 108.73 124.379 107.53 114.719L91.4002 116.059L75.2702 114.719C74.0702 124.369 76.2202 146.449 75.2702 147.109C74.7202 147.489 74.0002 147.629 73.3102 147.749C62.0102 149.759 50.4402 152.029 40.8602 157.699C31.2802 163.369 24.0302 173.269 25.5702 183.369C35.1802 183.329 62.0302 183.479 89.2202 183.799V183.849C89.9502 183.839 90.6802 183.829 91.4002 183.819C92.1302 183.829 92.8602 183.839 93.5802 183.849V183.799C120.77 183.479 147.61 183.329 157.23 183.369C158.77 173.259 151.52 163.369 141.94 157.699Z" fill="#B77456"/>
<mask id="mask2_976_16488" style="mask-type:luminance" maskUnits="userSpaceOnUse" x="25" y="114" width="133" height="70">
<path d="M141.94 157.699C132.36 152.029 120.79 149.759 109.49 147.749C108.8 147.629 108.08 147.489 107.53 147.109C106.58 146.449 108.73 124.379 107.53 114.719L91.4002 116.059L75.2702 114.719C74.0702 124.369 76.2202 146.449 75.2702 147.109C74.7202 147.489 74.0002 147.629 73.3102 147.749C62.0102 149.759 50.4402 152.029 40.8602 157.699C31.2802 163.369 24.0302 173.269 25.5702 183.369C35.1802 183.329 62.0302 183.479 89.2202 183.799V183.849C89.9502 183.839 90.6802 183.829 91.4002 183.819C92.1302 183.829 92.8602 183.839 93.5802 183.849V183.799C120.77 183.479 147.61 183.329 157.23 183.369C158.77 173.259 151.52 163.369 141.94 157.699Z" fill="white"/>
</mask>
<g mask="url(#mask2_976_16488)">
<g opacity="0.52">
<path d="M53.8086 114.409C60.1686 110.789 60.4386 109.049 60.7486 110.789C62.2486 119.329 77.5186 139.919 91.3986 139.919C109.359 139.919 119.789 113.099 121.469 106.339C100.709 108.959 79.6786 111.589 58.8586 109.379C59.4286 109.859 59.9986 110.329 60.5686 110.809L53.8086 114.409Z" fill="#66331F"/>
</g>
</g>
<path d="M67.4808 64.9584C63.7708 75.6184 64.6908 99.4084 67.4808 110.268C67.4908 110.328 67.5108 110.388 67.5308 110.438C69.0408 116.268 71.4608 122.088 76.0208 126.618C80.5808 131.158 87.5908 134.218 94.5408 133.418C101.261 132.638 106.901 128.388 110.181 123.338C113.461 118.288 114.721 112.478 115.641 106.758C117.231 96.7984 116.821 65.2284 115.691 65.1484C101.221 64.1084 81.5708 61.5784 67.4808 64.6084V64.9584Z" fill="#B77456"/>
<path d="M115.054 101.428C115.414 99.1485 118.514 97.7185 121.004 98.3885C123.494 99.0585 125.134 101.348 125.324 103.638C125.514 105.938 124.454 108.188 122.964 110.078C120.484 113.228 116.114 115.668 111.914 114.698C112.584 109.978 113.534 105.288 114.774 100.658L115.054 101.428Z" fill="#B77456"/>
<path d="M67.8623 101.428C67.5023 99.1485 64.4023 97.7185 61.9123 98.3885C59.4223 99.0585 57.7823 101.348 57.5923 103.638C57.4023 105.938 58.4623 108.188 59.9523 110.078C62.4323 113.228 66.8023 115.668 71.0023 114.698C70.3323 109.978 69.3823 105.288 68.1423 100.658L67.8623 101.428Z" fill="#B77456"/>
<path d="M116.521 98.9884C116.301 91.1584 114.901 78.0585 114.671 70.2285C111.231 73.3285 105.451 73.3784 101.961 70.3184C101.111 69.5784 100.231 68.6185 99.1105 68.6784C98.1405 68.7384 97.4105 69.5385 96.7005 70.1885C93.9005 72.7285 89.6305 73.4985 86.1205 72.1084C84.5805 71.4984 83.0805 70.4885 81.4305 70.6585C80.1105 70.7985 79.0005 71.6684 77.8005 72.2384C74.7205 73.6984 70.7505 72.9984 68.3505 70.5684C67.8505 78.4084 67.3605 91.3684 66.8605 99.2084C65.9105 98.4684 64.6705 98.1184 63.4805 98.2484C64.1505 90.3784 64.1705 77.3284 63.5305 69.4484C63.2905 66.4384 62.9505 63.3884 63.5905 60.4384C64.2305 57.4884 66.0705 54.6084 68.9105 53.6084C71.7505 52.5984 75.4905 54.1884 76.0305 57.1584C73.9805 51.2584 76.6205 43.7884 82.3805 41.3584C88.1405 38.9284 95.9205 43.1184 96.2305 49.3684C97.7405 45.4284 102.781 43.2784 106.681 44.9084C110.571 46.5484 112.561 51.6485 110.801 55.4885C111.871 54.0985 112.981 52.6685 114.521 51.8285C116.061 50.9885 118.151 50.8984 119.431 52.0984C121.431 53.9684 120.271 57.2784 118.991 59.7084C121.191 57.9584 124.631 60.6385 124.631 63.4485C124.631 66.2584 122.601 68.6185 120.691 70.6784C122.871 71.5584 122.081 74.7884 121.131 76.9384C118.951 81.8284 118.941 92.0885 119.081 97.4384C118.241 94.6484 118.781 95.3284 117.031 98.4584L116.521 98.9884Z" fill="#241E21"/>
<path d="M116.352 108.449C117.662 107.069 118.952 106.039 120.572 105.089C120.922 104.889 121.072 104.389 120.852 104.039C120.632 103.689 120.172 103.549 119.802 103.759C118.132 104.739 116.602 105.959 115.272 107.359C114.992 107.649 114.962 108.159 115.272 108.449C115.572 108.719 116.062 108.759 116.352 108.449Z" fill="#66331F"/>
<path d="M117.752 107.708C118.292 108.348 118.822 108.988 119.362 109.638C119.482 109.778 119.722 109.858 119.902 109.858C120.092 109.858 120.312 109.778 120.442 109.638C120.572 109.488 120.672 109.298 120.662 109.098C120.652 108.888 120.572 108.718 120.442 108.558C119.902 107.918 119.372 107.278 118.832 106.628C118.712 106.488 118.472 106.408 118.292 106.408C118.102 106.408 117.882 106.488 117.752 106.628C117.622 106.778 117.522 106.968 117.532 107.168C117.532 107.378 117.612 107.548 117.752 107.708Z" fill="#66331F"/>
<path d="M61.0804 104.278C62.8404 105.298 64.1104 106.998 64.6104 108.968C64.7104 109.368 65.1604 109.608 65.5504 109.508C65.9604 109.398 66.1904 108.968 66.0904 108.568C65.5004 106.228 63.9404 104.168 61.8604 102.958C61.5004 102.748 61.0204 102.878 60.8104 103.238C60.6004 103.588 60.7204 104.068 61.0804 104.278Z" fill="#66331F"/>
<path d="M62.8727 107.578C62.9327 107.438 63.0127 107.308 63.1027 107.178C63.0627 107.228 63.0227 107.278 62.9827 107.338C63.0827 107.208 63.2027 107.088 63.3427 106.978C63.2927 107.018 63.2427 107.058 63.1827 107.098C63.3227 106.988 63.4727 106.898 63.6427 106.828C63.5827 106.858 63.5227 106.878 63.4627 106.908C63.6127 106.848 63.7727 106.808 63.9327 106.778C63.8627 106.788 63.7927 106.798 63.7327 106.808C63.7527 106.808 63.7827 106.798 63.8027 106.798C63.9127 106.798 64.0027 106.778 64.1027 106.728C64.2027 106.698 64.2827 106.648 64.3527 106.568C64.4827 106.438 64.5827 106.218 64.5727 106.028C64.5627 105.828 64.5027 105.628 64.3527 105.488C64.2127 105.358 64.0127 105.238 63.8127 105.268C63.3327 105.318 62.8727 105.458 62.4827 105.738C62.1027 106.018 61.7627 106.368 61.5727 106.808C61.5127 106.898 61.4827 106.988 61.4827 107.098C61.4627 107.198 61.4627 107.298 61.4927 107.408C61.5427 107.588 61.6827 107.778 61.8427 107.868C62.0227 107.958 62.2327 108.008 62.4327 107.948C62.5827 107.878 62.7927 107.758 62.8727 107.578Z" fill="#66331F"/>
<path d="M93.1614 95.4183C93.1414 97.7683 93.1214 100.118 93.1014 102.468C93.0914 103.098 93.7414 103.358 94.2514 103.128C95.9614 102.368 98.1214 103.748 98.0114 105.628C97.9614 106.498 97.4914 107.378 96.7614 107.858C95.6814 108.578 94.2714 108.258 93.1014 107.968C92.1414 107.728 91.7314 109.208 92.6914 109.448C94.3614 109.868 96.2514 110.128 97.7314 109.048C98.8514 108.228 99.5514 106.858 99.5514 105.468C99.5514 102.398 96.1314 100.618 93.4714 101.808C93.8514 102.028 94.2414 102.248 94.6214 102.468C94.6414 100.118 94.6614 97.7683 94.6814 95.4183C94.7114 94.4283 93.1714 94.4283 93.1614 95.4183Z" fill="#66331F"/>
<path d="M81.2103 95.2484C81.2103 97.1384 80.0603 98.6784 78.6403 98.6784C77.2203 98.6784 76.0703 97.1484 76.0703 95.2484C76.0703 93.3584 77.2203 91.8184 78.6403 91.8184C80.0503 91.8284 81.2103 93.3584 81.2103 95.2484Z" fill="#1A1A1A"/>
<path d="M107.449 95.2484C107.449 97.1384 106.299 98.6784 104.879 98.6784C103.459 98.6784 102.309 97.1484 102.309 95.2484C102.309 93.3584 103.459 91.8184 104.879 91.8184C106.299 91.8284 107.449 93.3584 107.449 95.2484Z" fill="#1A1A1A"/>
<path d="M84.3308 113.129C86.6608 114.899 89.5908 115.829 92.5108 115.759C93.5008 115.739 93.5008 114.199 92.5108 114.229C89.8308 114.299 87.2308 113.429 85.1008 111.809C84.7708 111.559 84.2408 111.759 84.0508 112.089C83.8208 112.469 83.9908 112.869 84.3308 113.129Z" fill="#66331F"/>
<path d="M101.653 87.3087C101.863 87.0487 102.093 86.8287 102.333 86.5987C102.483 86.4487 102.123 86.7387 102.293 86.6187C102.353 86.5787 102.423 86.5287 102.483 86.4887C102.633 86.3887 102.783 86.3087 102.933 86.2287C102.953 86.2187 103.123 86.1187 103.143 86.1287C103.123 86.1187 102.863 86.2287 103.103 86.1487C103.263 86.0887 103.433 86.0387 103.603 85.9987C103.683 85.9787 103.753 85.9587 103.833 85.9487C103.873 85.9387 104.133 85.8987 103.913 85.9287C103.693 85.9587 103.953 85.9287 103.993 85.9287C104.093 85.9187 104.183 85.9187 104.283 85.9187C104.323 85.9187 104.743 85.9487 104.743 85.9387C104.733 85.9587 104.423 85.8787 104.683 85.9287C104.763 85.9387 104.833 85.9587 104.913 85.9787C105.083 86.0187 105.253 86.0687 105.413 86.1187C105.453 86.1287 105.693 86.2187 105.503 86.1487C105.313 86.0787 105.543 86.1687 105.583 86.1887C105.743 86.2687 105.893 86.3487 106.043 86.4387C106.113 86.4787 106.173 86.5287 106.233 86.5687C106.423 86.6887 106.253 86.5387 106.203 86.5387C106.283 86.5387 106.533 86.8387 106.593 86.8887C106.713 87.0087 106.833 87.1487 106.933 87.2787C107.433 87.9087 108.583 87.8387 109.103 87.2787C109.713 86.6087 109.643 85.7787 109.103 85.1087C107.963 83.6887 106.103 82.8387 104.283 82.8487C102.473 82.8587 100.613 83.7187 99.493 85.1587C99.233 85.4987 99.043 85.7987 99.043 86.2487C99.043 86.6287 99.213 87.0787 99.493 87.3387C100.033 87.8187 101.123 87.9887 101.653 87.3087Z" fill="#1A1A1A"/>
<path d="M77.0905 86.2884C77.3005 86.0284 77.5305 85.8084 77.7705 85.5784C77.9205 85.4284 77.5605 85.7184 77.7305 85.5984C77.7905 85.5584 77.8605 85.5084 77.9205 85.4684C78.0705 85.3684 78.2205 85.2884 78.3705 85.2084C78.3905 85.1984 78.5605 85.0984 78.5805 85.1084C78.5605 85.0984 78.3005 85.2084 78.5405 85.1284C78.7005 85.0684 78.8705 85.0184 79.0405 84.9684C79.1205 84.9484 79.1905 84.9284 79.2705 84.9184C79.3105 84.9084 79.5705 84.8684 79.3505 84.8984C79.1305 84.9284 79.3905 84.8984 79.4305 84.8984C79.5305 84.8884 79.6205 84.8884 79.7205 84.8884C79.7605 84.8884 80.1805 84.9185 80.1805 84.9085C80.1705 84.9285 79.8605 84.8484 80.1205 84.8984C80.2005 84.9084 80.2705 84.9284 80.3505 84.9484C80.5205 84.9884 80.6905 85.0384 80.8505 85.0884C80.8905 85.0984 81.1305 85.1884 80.9405 85.1184C80.7505 85.0484 80.9805 85.1385 81.0205 85.1585C81.1805 85.2385 81.3305 85.3185 81.4805 85.4085C81.5505 85.4485 81.6105 85.4984 81.6705 85.5384C81.8605 85.6584 81.6905 85.5084 81.6405 85.5084C81.7205 85.5084 81.9705 85.8084 82.0305 85.8584C82.1505 85.9784 82.2705 86.1184 82.3705 86.2484C82.8705 86.8784 84.0205 86.8084 84.5405 86.2484C85.1505 85.5784 85.0805 84.7484 84.5405 84.0784C83.4005 82.6584 81.5405 81.8084 79.7205 81.8184C77.9105 81.8284 76.0505 82.6884 74.9305 84.1284C74.6705 84.4684 74.4805 84.7684 74.4805 85.2184C74.4805 85.5984 74.6505 86.0484 74.9305 86.3084C75.4705 86.7884 76.5705 86.9684 77.0905 86.2884Z" fill="#1A1A1A"/>
<path d="M73.4438 138.499C84.3438 142.139 98.1337 141.699 108.774 137.269C108.334 136.789 108.844 144.399 108.774 144.109C108.704 143.819 156.424 145.479 160.844 185.439L92.4837 202.319L20.5938 185.439C20.5938 185.439 24.7738 164.779 38.7738 155.739C52.5838 146.819 74.0037 144.099 74.0037 144.099L73.4438 138.499Z" fill="#E9A167"/>
<mask id="mask3_976_16488" style="mask-type:luminance" maskUnits="userSpaceOnUse" x="20" y="137" width="141" height="49">
<path d="M73.442 138.499C84.342 142.139 98.132 141.699 108.772 137.269C108.332 136.789 108.842 144.399 108.772 144.109C108.702 143.819 156.422 145.479 160.842 185.439H20.582C20.582 185.439 24.762 164.779 38.762 155.739C52.582 146.819 74.002 144.099 74.002 144.099L73.442 138.499Z" fill="white"/>
</mask>
<g mask="url(#mask3_976_16488)">
<path d="M76.2734 138.519C76.6734 141.519 77.0834 144.529 77.4834 147.529C77.5434 147.939 77.7934 148.299 78.2534 148.299C78.6234 148.299 79.0734 147.949 79.0234 147.529C78.6234 144.529 78.2134 141.529 77.8134 138.519C77.7534 138.109 77.5034 137.749 77.0434 137.749C76.6734 137.749 76.2234 138.109 76.2734 138.519Z" fill="#AA6F48"/>
</g>
<mask id="mask4_976_16488" style="mask-type:luminance" maskUnits="userSpaceOnUse" x="20" y="137" width="141" height="49">
<path d="M73.442 138.499C84.342 142.139 98.132 141.699 108.772 137.269C108.332 136.789 108.842 144.399 108.772 144.109C108.702 143.819 156.422 145.479 160.842 185.439H20.582C20.582 185.439 24.762 164.779 38.762 155.739C52.582 146.819 74.002 144.099 74.002 144.099L73.442 138.499Z" fill="white"/>
</mask>
<g mask="url(#mask4_976_16488)">
<path d="M82.1411 138.909C82.2411 142.429 82.3511 145.959 82.4511 149.479C82.4811 150.469 84.0111 150.469 83.9811 149.479C83.8811 145.959 83.7711 142.429 83.6711 138.909C83.6411 137.929 82.1111 137.919 82.1411 138.909Z" fill="#AA6F48"/>
</g>
<mask id="mask5_976_16488" style="mask-type:luminance" maskUnits="userSpaceOnUse" x="20" y="137" width="141" height="49">
<path d="M73.442 138.499C84.342 142.139 98.132 141.699 108.772 137.269C108.332 136.789 108.842 144.399 108.772 144.109C108.702 143.819 156.422 145.479 160.842 185.439H20.582C20.582 185.439 24.762 164.779 38.762 155.739C52.582 146.819 74.002 144.099 74.002 144.099L73.442 138.499Z" fill="white"/>
</mask>
<g mask="url(#mask5_976_16488)">
<path d="M89.3511 139.489C89.9511 142.659 90.1611 145.879 90.0011 149.099C89.9511 150.089 91.4911 150.079 91.5311 149.099C91.6911 145.739 91.4411 142.388 90.8211 139.078C90.6511 138.108 89.1711 138.519 89.3511 139.489Z" fill="#AA6F48"/>
</g>
<mask id="mask6_976_16488" style="mask-type:luminance" maskUnits="userSpaceOnUse" x="20" y="137" width="141" height="49">
<path d="M73.442 138.499C84.342 142.139 98.132 141.699 108.772 137.269C108.332 136.789 108.842 144.399 108.772 144.109C108.702 143.819 156.422 145.479 160.842 185.439H20.582C20.582 185.439 24.762 164.779 38.762 155.739C52.582 146.819 74.002 144.099 74.002 144.099L73.442 138.499Z" fill="white"/>
</mask>
<g mask="url(#mask6_976_16488)">
<path d="M97.2921 138.889C97.5321 141.889 97.5821 144.909 97.4321 147.919C97.3821 148.909 98.9121 148.899 98.9621 147.919C99.1121 144.909 99.0721 141.899 98.8221 138.889C98.7521 137.909 97.2121 137.909 97.2921 138.889Z" fill="#AA6F48"/>
</g>
<mask id="mask7_976_16488" style="mask-type:luminance" maskUnits="userSpaceOnUse" x="20" y="137" width="141" height="49">
<path d="M73.442 138.499C84.342 142.139 98.132 141.699 108.772 137.269C108.332 136.789 108.842 144.399 108.772 144.109C108.702 143.819 156.422 145.479 160.842 185.439H20.582C20.582 185.439 24.762 164.779 38.762 155.739C52.582 146.819 74.002 144.099 74.002 144.099L73.442 138.499Z" fill="white"/>
</mask>
<g mask="url(#mask7_976_16488)">
<path d="M103.041 137.719C103.481 141.159 103.441 144.659 102.871 148.089C102.711 149.059 104.191 149.469 104.351 148.499C104.941 144.929 105.031 141.309 104.571 137.719C104.521 137.309 104.261 136.959 103.801 136.949C103.431 136.949 102.991 137.309 103.041 137.719Z" fill="#AA6F48"/>
</g>
<mask id="mask8_976_16488" style="mask-type:luminance" maskUnits="userSpaceOnUse" x="20" y="137" width="141" height="49">
<path d="M73.442 138.499C84.342 142.139 98.132 141.699 108.772 137.269C108.332 136.789 108.842 144.399 108.772 144.109C108.702 143.819 156.422 145.479 160.842 185.439H20.582C20.582 185.439 24.762 164.779 38.762 155.739C52.582 146.819 74.002 144.099 74.002 144.099L73.442 138.499Z" fill="white"/>
</mask>
<g mask="url(#mask8_976_16488)">
<path d="M45.2411 165.929C44.2711 175.589 43.3011 185.249 42.3211 194.909C42.2211 195.889 43.7611 195.889 43.8511 194.909C44.8211 185.249 45.7911 175.589 46.7711 165.929C46.8711 164.949 45.3411 164.959 45.2411 165.929Z" fill="#AA6F48"/>
</g>
<mask id="mask9_976_16488" style="mask-type:luminance" maskUnits="userSpaceOnUse" x="20" y="137" width="141" height="49">
<path d="M73.442 138.499C84.342 142.139 98.132 141.699 108.772 137.269C108.332 136.789 108.842 144.399 108.772 144.109C108.702 143.819 156.422 145.479 160.842 185.439H20.582C20.582 185.439 24.762 164.779 38.762 155.739C52.582 146.819 74.002 144.099 74.002 144.099L73.442 138.499Z" fill="white"/>
</mask>
<g mask="url(#mask9_976_16488)">
<path d="M137.743 164.919C139.413 173.369 141.353 181.769 143.563 190.099C143.813 191.049 145.293 190.649 145.043 189.689C142.833 181.359 140.893 172.969 139.223 164.509C139.033 163.539 137.553 163.949 137.743 164.919Z" fill="#AA6F48"/>
</g>
<path d="M127.434 149.478C127.564 149.158 127.724 148.858 127.914 148.568C127.964 148.488 128.014 148.408 128.074 148.338C128.094 148.308 128.124 148.278 128.144 148.248C128.214 148.148 128.174 148.238 128.124 148.268C128.194 148.218 128.244 148.118 128.304 148.048C128.364 147.978 128.414 147.918 128.474 147.858C128.594 147.728 128.714 147.608 128.844 147.498C128.904 147.438 128.974 147.388 129.044 147.328C129.074 147.298 129.134 147.278 129.154 147.238C129.124 147.288 129.034 147.328 129.134 147.258C129.414 147.048 129.714 146.868 130.034 146.708C130.394 146.528 130.524 145.988 130.314 145.658C130.074 145.288 129.654 145.188 129.264 145.378C127.884 146.068 126.724 147.278 126.124 148.698C126.044 148.898 125.984 149.068 126.044 149.288C126.094 149.468 126.234 149.658 126.394 149.748C126.714 149.918 127.274 149.868 127.434 149.478Z" fill="#E9A167"/>
<path d="M130.39 150.569C131.31 149.929 132.24 149.289 133.16 148.649C133.33 148.529 133.46 148.389 133.51 148.189C133.56 148.009 133.54 147.759 133.43 147.599C133.22 147.269 132.73 147.079 132.38 147.319C131.46 147.959 130.53 148.599 129.61 149.239C129.44 149.359 129.31 149.499 129.26 149.699C129.21 149.879 129.23 150.129 129.34 150.289C129.55 150.619 130.04 150.819 130.39 150.569Z" fill="#E9A167"/>
<path d="M53.4421 147.368C55.5121 147.968 57.5721 148.578 59.6421 149.178C60.5921 149.458 61.0021 147.978 60.0521 147.698C57.9821 147.098 55.9221 146.488 53.8521 145.888C52.9021 145.618 52.4921 147.098 53.4421 147.368Z" fill="#E9A167"/>
<path d="M43.2319 150.199C44.9219 150.739 46.6119 151.279 48.3119 151.819C48.6919 151.939 49.1619 151.679 49.2519 151.279C49.3519 150.859 49.1219 150.469 48.7119 150.339C47.0219 149.799 45.3319 149.259 43.6319 148.719C43.2519 148.599 42.7819 148.859 42.6919 149.259C42.6019 149.669 42.8219 150.069 43.2319 150.199Z" fill="#E9A167"/>
<path d="M39.104 154.589C41.034 154.539 42.934 154.789 44.784 155.349C45.734 155.629 46.134 154.149 45.194 153.869C43.224 153.279 41.164 153.009 39.114 153.059C38.704 153.069 38.344 153.409 38.344 153.829C38.334 154.229 38.684 154.599 39.104 154.589Z" fill="#E9A167"/>
<path d="M116.851 164.589C117.101 165.639 117.361 166.679 117.611 167.729C117.701 168.119 118.171 168.389 118.551 168.269C118.961 168.139 119.191 167.739 119.091 167.329C118.841 166.279 118.581 165.239 118.331 164.189C118.241 163.799 117.771 163.529 117.391 163.649C116.981 163.769 116.741 164.169 116.851 164.589Z" fill="#AA6F48"/>
<path d="M121.004 165.798C121.164 166.838 121.333 167.878 121.493 168.918C121.523 169.098 121.693 169.288 121.843 169.378C122.003 169.478 122.254 169.518 122.434 169.458C122.864 169.318 123.034 168.938 122.974 168.518C122.814 167.478 122.644 166.438 122.484 165.398C122.454 165.218 122.283 165.028 122.133 164.938C121.973 164.838 121.724 164.798 121.544 164.858C121.104 164.988 120.934 165.368 121.004 165.798Z" fill="#AA6F48"/>
<path d="M109.341 171.468C109.411 171.588 109.481 171.708 109.541 171.828C109.571 171.888 109.601 171.938 109.621 171.998C109.641 172.028 109.651 172.068 109.671 172.098C109.701 172.178 109.701 172.168 109.661 172.068C109.681 172.188 109.761 172.308 109.791 172.428C109.831 172.548 109.871 172.668 109.901 172.798C109.931 172.918 109.961 173.048 109.981 173.168C109.991 173.238 110.001 173.308 110.021 173.388C110.051 173.548 110.011 173.228 110.021 173.398C110.041 173.668 110.061 173.938 110.051 174.218C110.041 174.618 110.411 175.008 110.821 174.988C111.251 174.968 111.571 174.648 111.591 174.218C111.631 172.988 111.301 171.758 110.671 170.708C110.461 170.368 109.971 170.208 109.621 170.428C109.271 170.638 109.121 171.098 109.341 171.468Z" fill="#AA6F48"/>
<path d="M62.2305 168.718C62.2305 170.028 62.2305 171.328 62.2305 172.638C62.2305 173.038 62.5805 173.428 63.0005 173.408C63.4205 173.388 63.7705 173.068 63.7705 172.638C63.7705 171.328 63.7705 170.028 63.7705 168.718C63.7705 168.318 63.4205 167.928 63.0005 167.948C62.5905 167.968 62.2305 168.288 62.2305 168.718Z" fill="#AA6F48"/>
<path d="M68.8702 168.538C69.1102 169.978 69.3602 171.418 69.6002 172.858C69.6702 173.258 70.1802 173.508 70.5402 173.398C70.9702 173.258 71.1502 172.878 71.0802 172.458C70.8402 171.018 70.5902 169.578 70.3502 168.138C70.2802 167.738 69.7702 167.488 69.4102 167.598C68.9802 167.738 68.8002 168.118 68.8702 168.538Z" fill="#AA6F48"/>
<path d="M75.583 161.478C75.673 161.778 75.763 162.088 75.823 162.398C75.853 162.568 75.883 162.738 75.913 162.908C75.953 163.148 75.893 162.758 75.923 162.998C75.933 163.088 75.943 163.168 75.953 163.258C76.013 163.908 76.013 164.558 75.943 165.198C75.903 165.598 76.323 165.978 76.713 165.968C77.163 165.948 77.433 165.628 77.483 165.198C77.623 163.818 77.483 162.398 77.073 161.078C76.953 160.698 76.533 160.408 76.133 160.538C75.733 160.658 75.453 161.068 75.583 161.478Z" fill="#AA6F48"/>
<path d="M82.5403 69.5982C82.6503 72.0782 82.8503 74.7283 84.6203 76.6483C86.0803 78.2283 88.4603 78.7882 90.2803 77.4482C91.1103 76.8382 91.7003 75.8782 91.6803 74.8182C91.6603 73.6582 90.8403 72.6783 89.6303 72.6883C88.4903 72.6983 87.5703 73.5683 87.3203 74.6583C87.0903 75.7083 87.3403 76.8582 87.9403 77.7382C89.1703 79.5582 91.6703 80.5283 93.7503 79.6783C94.1303 79.5183 94.4103 79.1682 94.2903 78.7382C94.1903 78.3782 93.7303 78.0482 93.3503 78.1982C92.1803 78.6782 90.8603 78.4382 89.8903 77.6282C89.4103 77.2282 89.0303 76.7082 88.8603 76.0982C88.7103 75.5382 88.6803 74.6482 89.2803 74.3182C89.8903 73.9882 90.2303 74.4982 90.1303 75.0882C90.0303 75.6982 89.5403 76.1683 89.0003 76.4282C87.7003 77.0582 86.3503 76.3582 85.5103 75.3182C84.2303 73.7282 84.1603 71.5282 84.0803 69.5882C84.0303 68.6082 82.4903 68.6082 82.5403 69.5982Z" fill="#241E21"/>
</g>
</svg>
