<svg width="183" height="183" viewBox="0 0 183 183" fill="none" xmlns="http://www.w3.org/2000/svg">
<mask id="mask0_976_17547" style="mask-type:luminance" maskUnits="userSpaceOnUse" x="0" y="0" width="183" height="183">
<path d="M182.358 91.1793C182.358 40.8224 141.536 0.000146401 91.1791 0.000148602C40.8223 0.000150803 -6.18673e-06 40.8224 -3.98557e-06 91.1793C-1.7844e-06 141.536 40.8223 182.358 91.1791 182.358C141.536 182.358 182.358 141.536 182.358 91.1793Z" fill="white"/>
</mask>
<g mask="url(#mask0_976_17547)">
<path d="M182.36 0H0V182.36H182.36V0Z" fill="#FFD9E4"/>
</g>
<mask id="mask1_976_17547" style="mask-type:luminance" maskUnits="userSpaceOnUse" x="0" y="0" width="183" height="183">
<path d="M182.358 91.1793C182.358 40.8224 141.536 0.000146401 91.1791 0.000148602C40.8223 0.000150803 -6.18673e-06 40.8224 -3.98557e-06 91.1793C-1.7844e-06 141.536 40.8223 182.358 91.1791 182.358C141.536 182.358 182.358 141.536 182.358 91.1793Z" fill="white"/>
</mask>
<g mask="url(#mask1_976_17547)">
<path d="M107.101 32.7894C109.611 32.9794 112.141 33.3493 114.441 34.3493C118.101 35.9393 120.931 39.0093 123.131 42.3493C128.951 51.1893 130.871 62.0193 131.671 72.5693C132.471 83.1193 131.401 111.469 134.691 112.719C137.181 113.659 136.951 113.169 138.201 115.519C115.911 116.249 102.431 116.589 80.1306 116.659C75.8406 116.669 71.5606 116.679 67.2706 116.679C61.4806 116.679 55.6806 116.689 49.8906 116.689C51.0306 115.739 52.1606 114.789 53.3006 113.839C53.8006 113.419 54.3106 112.979 54.5606 112.389C54.8706 111.639 54.7106 110.789 54.5506 109.999C51.5006 95.2594 48.8706 80.1994 50.4106 65.2294C50.9506 60.0094 52.0106 54.7893 54.2506 50.0493C56.4906 45.3093 60.0106 41.0593 64.6206 38.5693C67.5906 36.9693 70.9106 36.1393 74.2306 35.5693C78.3306 34.8593 84.1606 36.9793 88.3206 36.9993C88.3306 36.9793 101.831 32.3894 107.101 32.7894Z" fill="#1A1A1A"/>
<path d="M136.03 140.509C127.56 134.839 117.32 132.559 107.33 130.559C106.72 130.439 106.09 130.299 105.6 129.919C104.76 129.259 106.67 107.189 105.6 97.5293L91.3303 98.8693L77.0603 97.5293C75.9903 107.179 77.9003 129.259 77.0603 129.919C76.5703 130.299 75.9403 130.439 75.3303 130.559C65.3303 132.569 55.1003 134.839 46.6303 140.509C38.1603 146.179 31.7403 156.079 33.1003 166.179C41.6103 166.139 65.3503 166.289 89.4003 166.609V166.659C90.0403 166.649 90.6903 166.639 91.3303 166.629C91.9703 166.639 92.6203 166.649 93.2603 166.659V166.609C117.31 166.289 141.06 166.139 149.56 166.179C150.92 156.079 144.51 146.189 136.03 140.509Z" fill="#FBD1B9"/>
<mask id="mask2_976_17547" style="mask-type:luminance" maskUnits="userSpaceOnUse" x="32" y="97" width="118" height="70">
<path d="M136.03 140.509C127.56 134.839 117.32 132.559 107.33 130.559C106.72 130.439 106.09 130.299 105.6 129.919C104.76 129.259 106.67 107.189 105.6 97.5293L91.3303 98.8693L77.0603 97.5293C75.9903 107.179 77.9003 129.259 77.0603 129.919C76.5703 130.299 75.9403 130.439 75.3303 130.559C65.3303 132.569 55.1003 134.839 46.6303 140.509C38.1603 146.179 31.7403 156.079 33.1003 166.179C41.6103 166.139 65.3503 166.289 89.4003 166.609V166.659C90.0403 166.649 90.6903 166.639 91.3303 166.629C91.9703 166.639 92.6203 166.649 93.2603 166.659V166.609C117.31 166.289 141.06 166.139 149.56 166.179C150.92 156.079 144.51 146.189 136.03 140.509Z" fill="white"/>
</mask>
<g mask="url(#mask2_976_17547)">
<path d="M58.0703 97.2194C63.7003 93.5994 63.9403 91.8594 64.2103 93.5994C65.5403 102.139 79.0403 122.729 91.3203 122.729C107.21 122.729 116.43 95.9094 117.92 89.1494C99.5503 91.7694 80.9503 94.3994 62.5303 92.1894C63.0403 92.6694 63.5403 93.1394 64.0503 93.6194L58.0703 97.2194Z" fill="#DBA78A"/>
</g>
<path d="M67.2614 51.4191C63.5314 62.4991 64.4514 81.9092 67.2614 93.1892C67.2714 93.2492 67.2914 93.3092 67.3114 93.3692C68.8314 99.4292 71.2614 105.479 75.8514 110.189C80.4314 114.909 87.4814 118.089 94.4714 117.259C101.231 116.449 106.891 112.029 110.191 106.779C113.491 101.529 114.751 95.4892 115.671 89.5492C117.271 79.1992 116.851 51.6991 115.721 51.6191C101.171 50.5391 81.4214 47.9091 67.2714 51.0591V51.4191H67.2614Z" fill="#FBD1B9"/>
<path d="M115.08 85.2595C115.44 82.9795 118.56 81.5495 121.06 82.2195C123.56 82.8895 125.21 85.1795 125.4 87.4695C125.59 89.7695 124.53 92.0195 123.03 93.9095C120.53 97.0595 116.15 99.4995 111.93 98.5295C112.6 93.8095 113.56 89.1195 114.81 84.4895L115.08 85.2595Z" fill="#FBD1B9"/>
<path d="M67.6389 85.2595C67.2789 82.9795 64.1589 81.5495 61.6589 82.2195C59.1589 82.8895 57.5089 85.1795 57.3189 87.4695C57.1289 89.7695 58.1889 92.0195 59.6889 93.9095C62.1789 97.0595 66.5689 99.4995 70.7889 98.5295C70.1189 93.8095 69.1589 89.1195 67.9089 84.4895L67.6389 85.2595Z" fill="#FBD1B9"/>
<path d="M81.4291 86.3691C81.4291 87.5191 80.1691 88.4491 78.6091 88.4491C77.0491 88.4491 75.7891 87.5191 75.7891 86.3691C75.7891 85.2191 77.0491 84.2891 78.6091 84.2891C80.1691 84.2891 81.4291 85.2191 81.4291 86.3691Z" fill="#1A1A1A"/>
<path d="M107.41 86.3691C107.41 87.5191 106.15 88.4491 104.59 88.4491C103.03 88.4491 101.77 87.5191 101.77 86.3691C101.77 85.2191 103.03 84.2891 104.59 84.2891C106.15 84.2891 107.41 85.2191 107.41 86.3691Z" fill="#1A1A1A"/>
<path d="M70.7206 73.6894C72.1906 73.0294 73.7906 72.5294 75.4306 72.2294C76.4906 72.0394 77.6206 71.9294 78.5606 72.1894C79.5006 72.4494 80.1506 73.1994 79.7606 73.9194C79.3706 74.6394 78.1706 75.0294 77.1106 75.1994C74.6306 75.5894 72.0706 75.2894 70.1406 74.3794L70.7206 73.6894Z" fill="#1A1A1A"/>
<path d="M112.27 75.1793C110.67 75.5093 108.97 75.6493 107.3 75.5993C106.22 75.5593 105.09 75.4293 104.26 74.9693C103.42 74.5093 103 73.6493 103.57 73.0393C104.15 72.4193 105.41 72.2993 106.5 72.3693C109.01 72.5193 111.41 73.3593 113.03 74.6493L112.27 75.1793Z" fill="#1A1A1A"/>
<path d="M117.001 91.7895C119.081 90.4995 121.371 89.4495 123.801 88.6995C124.211 88.5695 124.491 88.2395 124.371 87.8695C124.261 87.5395 123.791 87.2695 123.371 87.3995C120.801 88.1895 118.381 89.2695 116.181 90.6195C115.831 90.8395 115.651 91.1995 115.891 91.5395C116.091 91.8395 116.641 92.0095 117.001 91.7895Z" fill="#A46E4A"/>
<path d="M118.141 90.7694C118.351 90.9194 118.541 91.0894 118.711 91.2794C118.671 91.2394 118.631 91.1894 118.591 91.1494C118.801 91.3894 118.981 91.6494 119.121 91.9294C119.091 91.8794 119.071 91.8194 119.041 91.7694C119.161 92.0094 119.241 92.2594 119.291 92.5094C119.321 92.6694 119.491 92.8294 119.651 92.9094C119.821 92.9894 120.061 93.0294 120.251 92.9794C120.441 92.9294 120.621 92.8294 120.711 92.6694C120.811 92.4994 120.831 92.3394 120.791 92.1594C120.611 91.2694 120.031 90.4194 119.231 89.8394C119.071 89.7194 118.901 89.6494 118.681 89.6494C118.491 89.6494 118.261 89.7194 118.131 89.8394C117.881 90.0794 117.811 90.5294 118.141 90.7694Z" fill="#A46E4A"/>
<path d="M60.3703 87.8294C61.3903 88.3894 62.3303 89.2394 63.0303 90.0694C63.8303 91.0194 64.5003 92.0394 65.1703 93.0594C65.4003 93.4194 65.9603 93.5394 66.3603 93.3394C66.7703 93.1294 66.9103 92.6494 66.6703 92.2894C65.2503 90.1094 63.7203 87.8794 61.2403 86.5094C60.8403 86.2894 60.2803 86.4394 60.0503 86.7894C59.8103 87.1494 59.9703 87.6094 60.3703 87.8294Z" fill="#A46E4A"/>
<path d="M61.832 92.1293C62.012 91.9693 62.202 91.8193 62.402 91.6793C62.342 91.7193 62.282 91.7593 62.222 91.7993C62.602 91.5493 63.012 91.3393 63.442 91.1693C63.372 91.1993 63.302 91.2193 63.232 91.2493C63.332 91.2193 63.422 91.1793 63.522 91.1493C63.742 91.0793 63.922 90.9793 64.042 90.7993C64.152 90.6393 64.202 90.3893 64.132 90.2093C64.062 90.0193 63.932 89.8493 63.732 89.7493C63.532 89.6593 63.282 89.5993 63.062 89.6693C62.132 89.9593 61.282 90.4193 60.592 91.0393C60.432 91.1793 60.332 91.3793 60.332 91.5793C60.332 91.7693 60.432 91.9893 60.592 92.1193C60.942 92.4093 61.492 92.4393 61.832 92.1293Z" fill="#A46E4A"/>
<path d="M70.6811 131.37C71.1511 137.01 71.9711 141.75 73.9911 147.03C76.0911 152.54 79.4111 158.11 84.8611 160.35C92.3211 163.41 101.151 158.86 105.611 152.15C110.071 145.44 111.211 139.17 112.241 131.18C116.721 132.39 121.201 133.57 124.401 134.43C122.911 146.27 121.411 172.09 124.571 183.6C101.531 186.65 81.5511 193.27 58.5811 189.74C61.0511 179.91 57.0811 145.08 56.8711 134.95C60.4811 133.44 70.6811 131.37 70.6811 131.37Z" fill="#CE7D1D"/>
<path d="M75.5518 157.859C80.9718 164.589 90.3718 167.179 98.4618 164.119C100.762 163.249 102.872 161.989 104.732 160.379C105.482 159.729 104.392 158.649 103.642 159.289C100.612 161.919 96.7118 163.539 92.7018 163.839C88.7918 164.129 84.8818 163.149 81.5418 161.109C79.6618 159.959 78.0118 158.489 76.6318 156.769C76.0218 155.999 74.9418 157.089 75.5518 157.859Z" fill="#5B371E"/>
<path d="M64.1901 70.9698C66.2501 69.8498 68.6401 69.3398 70.9801 69.5198C71.4001 64.6098 72.0401 59.7298 72.9101 54.8798C73.2701 59.5198 73.6201 64.1598 73.9801 68.7898C76.4801 68.7598 78.9901 68.7298 81.4901 68.7098C80.9801 61.9198 81.8801 55.0298 84.1101 48.5998C86.5201 55.1498 88.1801 61.9698 89.0601 68.8898C92.8701 68.6298 96.7101 68.6598 100.52 68.9998C100.34 64.2498 99.7701 59.5098 98.8301 54.8498C102.38 58.6298 102.79 64.2798 103.02 69.4498C108.09 68.8398 113.24 68.9598 118.27 69.8098C119.04 62.3598 118.41 54.7598 116.41 47.5398C100.05 44.8698 83.3401 46.2898 66.8301 47.7198C66.3201 47.7598 65.7601 47.8298 65.3801 48.1698C65.1001 48.4198 64.9601 48.7898 64.8301 49.1398C62.1901 56.3498 61.2601 64.1698 62.1101 71.7998C62.7201 71.6098 63.3401 71.4098 63.9501 71.2198L64.1901 70.9698Z" fill="#1A1A1A"/>
<path d="M89.1198 90.9292C88.4898 92.0592 88.4798 93.5092 89.1598 94.6192C89.8098 95.6792 90.9797 96.3292 92.2097 96.3692C92.6097 96.3792 92.9998 96.0092 92.9798 95.5992C92.9598 95.1692 92.6397 94.8492 92.2097 94.8292C92.1597 94.8292 92.0998 94.8292 92.0498 94.8192C91.9698 94.8092 91.9197 94.7992 92.0297 94.8192C91.9197 94.7992 91.8197 94.7792 91.7197 94.7492C91.6198 94.7192 91.5197 94.6892 91.4197 94.6492C91.5797 94.7192 91.3898 94.6292 91.3698 94.6192C91.3298 94.5992 91.2898 94.5792 91.2598 94.5592C91.1698 94.5092 91.0797 94.4492 90.9897 94.3892C90.8197 94.2692 91.0998 94.4892 90.9398 94.3492C90.9098 94.3192 90.8797 94.2892 90.8397 94.2592C90.7597 94.1892 90.6898 94.1092 90.6198 94.0292C90.4798 93.8792 90.6998 94.1492 90.5798 93.9792C90.5498 93.9392 90.5197 93.8892 90.4897 93.8492C90.4297 93.7492 90.3798 93.6492 90.3298 93.5492C90.2798 93.4392 90.3797 93.7092 90.3197 93.5092C90.2997 93.4592 90.2797 93.3992 90.2697 93.3492C90.2397 93.2392 90.2197 93.1292 90.1997 93.0092C90.1797 92.8892 90.2097 93.1892 90.1997 92.9692C90.1997 92.9092 90.1898 92.8592 90.1898 92.7992C90.1898 92.6792 90.1997 92.5692 90.1997 92.4592C90.1997 92.3692 90.1697 92.5692 90.2097 92.4292C90.2197 92.3692 90.2297 92.3192 90.2497 92.2592C90.2797 92.1492 90.3197 92.0392 90.3497 91.9292C90.3697 91.8492 90.2998 92.0192 90.3698 91.8892C90.3998 91.8292 90.4297 91.7692 90.4697 91.7092C90.6697 91.3592 90.5698 90.8592 90.1898 90.6592C89.8098 90.4692 89.3298 90.5592 89.1198 90.9292Z" fill="#A46E4A"/>
<path d="M95.341 102.65C97.651 102.42 99.701 100.76 100.311 98.4996C100.411 98.1096 100.181 97.6496 99.771 97.5596C99.371 97.4696 98.9411 97.6796 98.8311 98.0996C98.8011 98.2196 98.7611 98.3296 98.7211 98.4496C98.7011 98.5096 98.6811 98.5596 98.6611 98.6196C98.6111 98.7596 98.7011 98.5496 98.6511 98.6296C98.5411 98.8396 98.4411 99.0396 98.3211 99.2396C98.2511 99.3396 98.1811 99.4396 98.1111 99.5396C98.1711 99.4596 98.151 99.4896 98.101 99.5496C98.061 99.5996 98.0211 99.6396 97.9811 99.6896C97.8311 99.8596 97.6611 100.03 97.4811 100.18C97.4311 100.22 97.391 100.26 97.341 100.3C97.421 100.23 97.3911 100.26 97.3311 100.31C97.2411 100.38 97.1511 100.44 97.0511 100.5C96.8411 100.63 96.6311 100.74 96.4111 100.85C96.2811 100.91 96.4911 100.82 96.4011 100.86C96.3411 100.88 96.2911 100.9 96.2311 100.92C96.1311 100.96 96.0211 100.99 95.9111 101.02C95.7911 101.05 95.671 101.08 95.561 101.1C95.501 101.11 95.441 101.12 95.381 101.13C95.511 101.11 95.421 101.12 95.341 101.13C94.941 101.17 94.5511 101.45 94.5711 101.9C94.5911 102.26 94.911 102.69 95.341 102.65Z" fill="#A46E4A"/>
<path d="M119.782 40.3693C123.402 42.6093 125.782 46.2793 127.322 50.1793C129.092 54.6493 129.952 59.4493 130.642 64.1893C132.232 75.0993 132.392 86.2192 134.692 97.0293C135.742 101.959 138.082 107.579 143.532 108.859C144.492 109.079 144.902 107.609 143.942 107.379C139.082 106.239 137.142 101.099 136.202 96.7393C135.052 91.4092 134.462 85.9692 133.942 80.5592C133.412 75.1292 132.962 69.6893 132.192 64.2793C131.512 59.5093 130.672 54.6693 128.942 50.1393C127.252 45.7193 124.642 41.5893 120.552 39.0493C119.722 38.5193 118.952 39.8493 119.782 40.3693Z" fill="#1A1A1A"/>
<path d="M82.6601 49.3993C84.5501 55.8193 85.3001 62.5093 84.8801 69.1893C84.8201 70.1793 86.3501 70.1693 86.4101 69.1893C86.8301 62.3893 86.0601 55.5293 84.1301 48.9993C83.8601 48.0493 82.3801 48.4493 82.6601 49.3993Z" fill="#1A1A1A"/>
<path d="M57.3223 46.3993C54.7123 49.1993 52.0623 52.0793 50.2023 55.4493C49.3023 57.0893 48.5823 58.8493 48.2023 60.6793C47.7523 62.8693 47.7523 65.1093 47.9823 67.3193C48.4423 71.7493 49.5323 76.0793 49.7923 80.5393C50.0523 84.9793 49.4323 89.2793 48.5523 93.6193C47.5923 98.3593 46.5023 103.149 46.7723 108.029C46.8223 109.009 48.3623 109.019 48.3023 108.029C47.8423 99.5093 51.4323 91.3993 51.4023 82.8893C51.3823 78.5093 50.5723 74.2493 49.8723 69.9393C49.2023 65.7693 49.0223 61.5493 50.8223 57.6193C52.5923 53.7393 55.5323 50.5693 58.4123 47.4793C59.0723 46.7693 57.9923 45.6793 57.3223 46.3993Z" fill="#1A1A1A"/>
<path d="M77.7603 98.5392C72.1403 98.5392 67.5703 93.9692 67.5703 88.3492C67.5703 82.7292 72.1403 78.1592 77.7603 78.1592C83.3803 78.1592 87.9503 82.7292 87.9503 88.3492C87.9503 93.9692 83.3803 98.5392 77.7603 98.5392ZM77.7603 79.1792C72.7003 79.1792 68.5903 83.2892 68.5903 88.3492C68.5903 93.4092 72.7003 97.5192 77.7603 97.5192C82.8203 97.5192 86.9303 93.4092 86.9303 88.3492C86.9303 83.2892 82.8103 79.1792 77.7603 79.1792Z" fill="#ED6B55"/>
<path d="M104.522 98.5392C98.902 98.5392 94.332 93.9692 94.332 88.3492C94.332 82.7292 98.902 78.1592 104.522 78.1592C110.142 78.1592 114.712 82.7292 114.712 88.3492C114.722 93.9692 110.142 98.5392 104.522 98.5392ZM104.522 79.1792C99.462 79.1792 95.352 83.2892 95.352 88.3492C95.352 93.4092 99.462 97.5192 104.522 97.5192C109.582 97.5192 113.692 93.4092 113.692 88.3492C113.692 83.2892 109.582 79.1792 104.522 79.1792Z" fill="#ED6B55"/>
<path d="M88.4321 88.7087C89.1721 87.9087 90.2321 87.4887 91.3021 87.6087C92.2721 87.7187 93.2021 88.3487 93.7221 89.2087C94.2321 90.0487 95.5621 89.2787 95.0521 88.4387C94.2621 87.1387 92.9221 86.2687 91.4121 86.0887C89.9221 85.9187 88.3721 86.5287 87.3621 87.6187C87.0821 87.9187 87.0621 88.3987 87.3621 88.7087C87.6321 88.9887 88.1521 89.0087 88.4321 88.7087Z" fill="#ED6B55"/>
<path d="M119.651 133.3C116.641 151.12 101.571 168.47 89.6106 182.01C79.3806 169.22 67.0406 154.08 60.7106 133.16C20.8106 144.41 29.1906 179.65 29.1006 191.92C70.9806 201.83 115.441 200.64 156.731 188.51C156.901 182.59 153.191 164.1 151.771 159.76C147.071 145.4 135.041 132.48 119.931 132.8L119.651 133.3Z" fill="#5B371E"/>
<path d="M52.3518 152.44C52.6818 163.07 52.6618 173.71 52.2918 184.34C52.1818 187.35 52.0518 190.35 51.8918 193.35C51.8418 194.34 53.3718 194.33 53.4218 193.35C53.9918 182.73 54.2118 172.09 54.0818 161.46C54.0418 158.45 53.9818 155.44 53.8818 152.44C53.8518 151.45 52.3218 151.45 52.3518 152.44Z" fill="#CE7D1D"/>
<path d="M133.302 153.49C133.162 162.19 132.972 170.89 132.732 179.58C132.662 182.08 132.592 184.59 132.512 187.09C132.482 188.08 134.012 188.08 134.042 187.09C134.302 178.39 134.522 169.7 134.692 161C134.742 158.5 134.782 155.99 134.822 153.49C134.852 152.5 133.322 152.5 133.302 153.49Z" fill="#CE7D1D"/>
<path d="M94.9921 175.43C96.4021 176.8 97.9021 178.06 99.4821 179.22C99.8021 179.46 100.352 179.28 100.532 178.94C100.742 178.54 100.602 178.15 100.252 177.89C100.062 177.75 99.8821 177.62 99.7021 177.48C99.6521 177.44 99.5921 177.4 99.5421 177.36C99.6021 177.41 99.5221 177.34 99.5021 177.33C99.4121 177.26 99.3321 177.2 99.2421 177.13C98.8721 176.84 98.5021 176.54 98.1421 176.23C97.4321 175.62 96.7421 175 96.0721 174.34C95.7821 174.06 95.2721 174.03 94.9821 174.34C94.7121 174.65 94.6821 175.13 94.9921 175.43Z" fill="#CE7D1D"/>
<path d="M97.5719 171.899C99.3819 173.159 101.202 174.409 103.012 175.669C103.352 175.909 103.862 175.729 104.062 175.389C104.282 175.009 104.132 174.579 103.782 174.339C101.972 173.079 100.152 171.829 98.3419 170.569C98.0019 170.329 97.4919 170.509 97.2919 170.849C97.0819 171.229 97.2319 171.659 97.5719 171.899Z" fill="#CE7D1D"/>
<path d="M100.322 168.999C102.022 170.189 103.722 171.379 105.432 172.579C105.772 172.819 106.282 172.639 106.482 172.299C106.702 171.919 106.552 171.489 106.202 171.249C104.502 170.059 102.802 168.869 101.092 167.669C100.752 167.429 100.242 167.609 100.042 167.949C99.8224 168.329 99.9824 168.759 100.322 168.999Z" fill="#CE7D1D"/>
<path d="M103.402 164.4C105.072 165.83 106.822 167.15 108.652 168.36C109.002 168.59 109.502 168.43 109.702 168.08C109.922 167.7 109.772 167.26 109.422 167.03C107.692 165.89 106.062 164.66 104.482 163.31C104.172 163.04 103.702 163 103.392 163.31C103.122 163.59 103.082 164.13 103.402 164.4Z" fill="#CE7D1D"/>
<path d="M106.619 160.069C108.989 161.119 111.189 162.519 113.119 164.259C113.429 164.539 113.899 164.559 114.209 164.259C114.489 163.979 114.519 163.449 114.209 163.169C112.179 161.349 109.889 159.839 107.399 158.739C107.019 158.569 106.579 158.629 106.349 159.019C106.159 159.349 106.239 159.899 106.619 160.069Z" fill="#CE7D1D"/>
<path d="M109.381 154.91C111.501 155.97 113.551 157.17 115.511 158.5C115.851 158.73 116.361 158.57 116.561 158.22C116.781 157.84 116.631 157.4 116.281 157.17C114.321 155.84 112.271 154.64 110.151 153.58C109.781 153.39 109.321 153.48 109.101 153.86C108.901 154.2 109.001 154.73 109.381 154.91Z" fill="#CE7D1D"/>
<path d="M112.722 149.19C115.152 150.08 117.592 150.96 120.022 151.85C120.412 151.99 120.862 151.69 120.962 151.31C121.082 150.88 120.812 150.51 120.422 150.37C117.992 149.48 115.552 148.6 113.122 147.71C112.732 147.57 112.282 147.87 112.182 148.25C112.072 148.67 112.332 149.04 112.722 149.19Z" fill="#CE7D1D"/>
<path d="M114.961 144.39C117.411 145.38 119.941 146.19 122.511 146.81C123.471 147.04 123.881 145.56 122.921 145.33C120.351 144.71 117.821 143.9 115.371 142.91C114.991 142.75 114.531 143.08 114.431 143.45C114.301 143.88 114.571 144.23 114.961 144.39Z" fill="#CE7D1D"/>
<path d="M116.413 139.849C118.963 140.089 121.473 140.629 123.903 141.439C124.843 141.749 125.243 140.269 124.313 139.959C121.753 139.109 119.103 138.559 116.423 138.309C116.013 138.269 115.653 138.689 115.653 139.079C115.643 139.529 116.003 139.809 116.413 139.849Z" fill="#CE7D1D"/>
<path d="M118.68 135.94C120.43 135.98 122.17 136.11 123.9 136.34C124.31 136.4 124.67 135.95 124.67 135.57C124.67 135.11 124.32 134.86 123.9 134.8C122.17 134.57 120.43 134.43 118.68 134.4C118.27 134.39 117.91 134.76 117.91 135.17C117.91 135.6 118.27 135.94 118.68 135.94Z" fill="#CE7D1D"/>
<path d="M91.8699 177.16C93.1299 178.64 94.2599 180.17 95.2999 181.84C95.5099 182.18 95.9899 182.34 96.3499 182.12C96.6899 181.9 96.8499 181.43 96.6299 181.07C95.5299 179.32 94.2999 177.65 92.9599 176.08C92.6999 175.77 92.1399 175.79 91.8699 176.08C91.5699 176.4 91.5899 176.83 91.8699 177.16Z" fill="#CE7D1D"/>
<path d="M89.7203 179.52C90.8303 181.3 91.7603 183.18 92.4703 185.16C92.6103 185.55 92.9903 185.81 93.4103 185.7C93.7903 185.6 94.0903 185.15 93.9503 184.76C93.2003 182.66 92.2303 180.65 91.0503 178.75C90.8303 178.4 90.3703 178.26 90.0003 178.47C89.6503 178.68 89.5003 179.17 89.7203 179.52Z" fill="#CE7D1D"/>
<path d="M87.8809 179.899C87.0909 181.249 86.2909 182.589 85.5009 183.939C85.3009 184.289 85.4109 184.799 85.7809 184.989C86.1509 185.179 86.6109 185.079 86.8309 184.709C87.6209 183.359 88.4209 182.019 89.2109 180.669C89.4109 180.319 89.3009 179.809 88.9309 179.619C88.5609 179.429 88.1009 179.539 87.8809 179.899Z" fill="#CE7D1D"/>
<path d="M85.4218 177.1C84.9318 177.82 84.4218 178.54 83.8918 179.23C83.8218 179.32 83.7618 179.4 83.6918 179.49C83.6118 179.6 83.7418 179.42 83.6618 179.53C83.6318 179.57 83.5918 179.62 83.5618 179.66C83.4318 179.83 83.2918 180 83.1618 180.17C82.8818 180.52 82.6018 180.86 82.3118 181.2C82.0518 181.51 81.9918 181.99 82.3118 182.29C82.6018 182.55 83.1218 182.62 83.4018 182.29C84.5918 180.88 85.7118 179.41 86.7518 177.89C86.9818 177.56 86.8218 177.02 86.4718 176.84C86.0818 176.62 85.6618 176.75 85.4218 177.1Z" fill="#CE7D1D"/>
<path d="M84.16 175.039C83.12 176.139 82.07 177.249 81.03 178.349C80.75 178.639 80.72 179.149 81.03 179.439C81.33 179.709 81.82 179.749 82.12 179.439C83.16 178.339 84.21 177.229 85.25 176.129C85.53 175.839 85.56 175.329 85.25 175.039C84.95 174.769 84.46 174.729 84.16 175.039Z" fill="#CE7D1D"/>
<path d="M80.9124 169.98C79.7724 172 78.3124 173.74 76.5224 175.24C76.2024 175.51 76.2524 176.05 76.5224 176.33C76.8424 176.65 77.2924 176.6 77.6124 176.33C79.4724 174.77 81.0524 172.88 82.2424 170.76C82.4424 170.4 82.3324 169.92 81.9624 169.71C81.6124 169.5 81.1224 169.62 80.9124 169.98Z" fill="#CE7D1D"/>
<path d="M77.9411 165.679C76.8311 167.059 75.6511 168.379 74.4011 169.629C74.1211 169.919 74.0911 170.429 74.4011 170.719C74.7111 170.999 75.1811 171.019 75.4911 170.719C76.7411 169.459 77.9211 168.149 79.0311 166.769C79.2811 166.459 79.3611 165.989 79.0311 165.679C78.7511 165.419 78.2111 165.339 77.9411 165.679Z" fill="#CE7D1D"/>
<path d="M74.9316 161.279C73.8016 162.689 72.5916 164.039 71.2916 165.299C71.0016 165.579 70.9916 166.109 71.2916 166.389C71.6016 166.669 72.0716 166.689 72.3816 166.389C73.6716 165.119 74.8916 163.779 76.0216 162.369C76.2716 162.059 76.3516 161.589 76.0216 161.279C75.7416 161.029 75.2016 160.949 74.9316 161.279Z" fill="#CE7D1D"/>
<path d="M72.8325 158.259C71.5325 159.949 69.9725 161.609 68.3425 163.059C68.0325 163.339 68.0625 163.859 68.3425 164.149C68.6525 164.459 69.1125 164.429 69.4325 164.149C71.1725 162.599 72.7425 160.889 74.1625 159.039C74.4125 158.719 74.2225 158.169 73.8825 157.989C73.4825 157.769 73.1025 157.919 72.8325 158.259Z" fill="#CE7D1D"/>
<path d="M70.7796 155.209C69.6796 156.539 68.4496 157.759 67.1196 158.869C66.8096 159.129 66.8296 159.689 67.1196 159.959C67.4496 160.259 67.8696 160.229 68.2096 159.959C69.5396 158.849 70.7596 157.629 71.8696 156.299C72.1296 155.989 72.1896 155.509 71.8696 155.209C71.5796 154.949 71.0496 154.879 70.7796 155.209Z" fill="#CE7D1D"/>
<path d="M68.1798 151.739C67.1398 152.899 66.0898 154.059 65.0498 155.219C64.7798 155.519 64.7298 156.009 65.0498 156.309C65.3398 156.579 65.8498 156.629 66.1398 156.309C67.1798 155.149 68.2298 153.989 69.2698 152.829C69.5398 152.529 69.5898 152.039 69.2698 151.739C68.9798 151.469 68.4698 151.419 68.1798 151.739Z" fill="#CE7D1D"/>
<path d="M66.8594 146.929C65.5094 148.249 64.1494 149.569 62.7994 150.879C62.5094 151.159 62.4994 151.689 62.7994 151.969C63.1094 152.249 63.5794 152.269 63.8894 151.969C65.2394 150.649 66.5994 149.329 67.9494 148.019C68.2394 147.739 68.2494 147.209 67.9494 146.929C67.6294 146.649 67.1694 146.629 66.8594 146.929Z" fill="#CE7D1D"/>
<path d="M66.7216 143.369C65.0416 144.469 63.3516 145.569 61.6716 146.679C61.3216 146.909 61.1816 147.359 61.3916 147.729C61.5916 148.069 62.0916 148.229 62.4416 148.009C64.1216 146.909 65.8116 145.809 67.4916 144.699C67.8416 144.469 67.9816 144.019 67.7716 143.649C67.5716 143.299 67.0716 143.139 66.7216 143.369Z" fill="#CE7D1D"/>
<path d="M64.1312 139.05C62.0312 140.02 60.0712 141.25 58.2412 142.68C57.9112 142.94 57.9712 143.5 58.2412 143.77C58.5612 144.09 59.0012 144.03 59.3312 143.77C61.0412 142.43 62.9312 141.3 64.9012 140.38C65.2812 140.21 65.3712 139.66 65.1812 139.33C64.9512 138.94 64.5112 138.88 64.1312 139.05Z" fill="#CE7D1D"/>
<path d="M62.2099 136.789C60.4899 138.009 58.6899 139.119 56.8199 140.099C56.4499 140.289 56.3399 140.799 56.5399 141.149C56.7599 141.519 57.2199 141.619 57.5899 141.429C59.4599 140.449 61.2599 139.339 62.9799 138.119C63.3199 137.879 63.4799 137.449 63.2599 137.069C63.0699 136.729 62.5499 136.539 62.2099 136.789Z" fill="#CE7D1D"/>
<path d="M61.8594 134.74C60.1194 135.19 58.4594 135.94 56.9694 136.94C56.6394 137.16 56.4594 137.63 56.6894 137.99C56.8994 138.32 57.3794 138.51 57.7394 138.27C59.1794 137.3 60.5994 136.65 62.2594 136.22C62.6494 136.12 62.9194 135.67 62.7994 135.28C62.6794 134.87 62.2794 134.63 61.8594 134.74Z" fill="#CE7D1D"/>
</g>
</svg>
