<svg width="183" height="183" viewBox="0 0 183 183" fill="none" xmlns="http://www.w3.org/2000/svg">
<mask id="mask0_976_17752" style="mask-type:luminance" maskUnits="userSpaceOnUse" x="0" y="0" width="183" height="183">
<path d="M182.358 91.1793C182.358 40.8224 141.536 0.00016166 91.1791 0.000163861C40.8223 0.000166062 -6.18673e-06 40.8224 -3.98557e-06 91.1793C-1.7844e-06 141.536 40.8223 182.358 91.1791 182.358C141.536 182.358 182.358 141.536 182.358 91.1793Z" fill="white"/>
</mask>
<g mask="url(#mask0_976_17752)">
<path d="M182.364 0H0.00390625V182.36H182.364V0Z" fill="#D5FFF2"/>
</g>
<mask id="mask1_976_17752" style="mask-type:luminance" maskUnits="userSpaceOnUse" x="0" y="0" width="183" height="183">
<path d="M182.358 91.1793C182.358 40.8224 141.536 0.00016166 91.1791 0.000163861C40.8223 0.000166062 -6.18673e-06 40.8224 -3.98557e-06 91.1793C-1.7844e-06 141.536 40.8223 182.358 91.1791 182.358C141.536 182.358 182.358 141.536 182.358 91.1793Z" fill="white"/>
</mask>
<g mask="url(#mask1_976_17752)">
<path d="M57.9048 148.309C67.4848 147.849 77.0648 145.16 85.3748 139.799C93.2248 134.74 99.7248 127.479 106.125 120.309C109.925 116.049 113.765 111.749 116.645 106.66C121.785 97.5695 123.495 86.6595 125.105 76.0695C125.935 70.6195 126.765 65.0095 125.775 59.5895C122.975 44.2595 106.645 36.4895 92.6948 37.8995C80.7748 39.1095 68.5348 46.1095 63.8648 58.4195C60.2248 68.0195 61.6348 79.2695 58.0648 88.9095C53.0948 102.319 39.0648 111.149 38.1248 125.629C37.9048 129.029 38.4648 132.49 37.8948 135.85C37.2548 139.61 35.2348 142.929 34.5748 146.689C33.5348 152.59 36.1648 158.859 40.4448 162.509C44.7248 166.159 50.3948 167.389 55.7448 166.789C55.7548 159.829 58.3848 152.919 62.8648 148.079L57.9048 148.309Z" fill="#EF6A55"/>
</g>
<mask id="mask2_976_17752" style="mask-type:luminance" maskUnits="userSpaceOnUse" x="0" y="0" width="183" height="183">
<path d="M182.358 91.1793C182.358 40.8224 141.536 0.00016166 91.1791 0.000163861C40.8223 0.000166062 -6.18673e-06 40.8224 -3.98557e-06 91.1793C-1.7844e-06 141.536 40.8223 182.358 91.1791 182.358C141.536 182.358 182.358 141.536 182.358 91.1793Z" fill="white"/>
</mask>
<g mask="url(#mask2_976_17752)">
<path d="M137.514 141.62C129.034 135.94 118.784 133.66 108.774 131.65C108.164 131.53 107.524 131.39 107.034 131.01C106.194 130.35 108.104 108.25 107.034 98.5801L92.7443 99.9201L78.4543 98.5801C77.3843 108.25 79.2943 130.35 78.4543 131.01C77.9643 131.39 77.3243 131.53 76.7143 131.65C66.7043 133.66 56.4543 135.94 47.9743 141.62C39.4943 147.3 33.0643 157.21 34.4243 167.33C42.9443 167.29 66.7143 167.44 90.8043 167.76V167.81C91.4443 167.8 92.0943 167.79 92.7343 167.78C93.3743 167.79 94.0243 167.8 94.6643 167.81V167.76C118.754 167.44 142.524 167.29 151.044 167.33C152.424 157.21 146.004 147.3 137.514 141.62Z" fill="#FBD1B9"/>
<mask id="mask3_976_17752" style="mask-type:luminance" maskUnits="userSpaceOnUse" x="34" y="98" width="118" height="70">
<path d="M137.514 141.62C129.034 135.94 118.784 133.66 108.774 131.65C108.164 131.53 107.524 131.39 107.034 131.01C106.194 130.35 108.104 108.25 107.034 98.5801L92.7443 99.9201L78.4543 98.5801C77.3843 108.25 79.2943 130.35 78.4543 131.01C77.9643 131.39 77.3243 131.53 76.7143 131.65C66.7043 133.66 56.4543 135.94 47.9743 141.62C39.4943 147.3 33.0643 157.21 34.4243 167.33C42.9443 167.29 66.7143 167.44 90.8043 167.76V167.81C91.4443 167.8 92.0943 167.79 92.7343 167.78C93.3743 167.79 94.0243 167.8 94.6643 167.81V167.76C118.754 167.44 142.524 167.29 151.044 167.33C152.424 157.21 146.004 147.3 137.514 141.62Z" fill="white"/>
</mask>
<g mask="url(#mask3_976_17752)">
<path d="M59.4453 98.2697C65.0753 94.6397 65.3253 92.8997 65.5953 94.6397C66.9253 103.2 80.4553 123.81 92.7453 123.81C108.655 123.81 117.895 96.9497 119.385 90.1797C100.995 92.8097 82.3653 95.4397 63.9253 93.2297C64.4353 93.7097 64.9353 94.1897 65.4453 94.6597L59.4453 98.2697Z" fill="#DBA78A"/>
</g>
</g>
<mask id="mask4_976_17752" style="mask-type:luminance" maskUnits="userSpaceOnUse" x="0" y="0" width="183" height="183">
<path d="M182.358 91.1793C182.358 40.8224 141.536 0.00016166 91.1791 0.000163861C40.8223 0.000166062 -6.18673e-06 40.8224 -3.98557e-06 91.1793C-1.7844e-06 141.536 40.8223 182.358 91.1791 182.358C141.536 182.358 182.358 141.536 182.358 91.1793Z" fill="white"/>
</mask>
<g mask="url(#mask4_976_17752)">
<path d="M71.5536 51.3803C68.2736 62.4703 69.0836 81.9103 71.5536 93.2103C71.5636 93.2703 71.5836 93.3303 71.5936 93.3903C72.9336 99.4603 75.0736 105.51 79.1136 110.24C83.1536 114.96 89.3635 118.15 95.5235 117.32C101.474 116.51 106.474 112.09 109.374 106.83C112.274 101.57 113.394 95.5303 114.204 89.5703C115.614 79.2003 115.244 51.6703 114.254 51.5903C101.434 50.5003 84.0236 47.8803 71.5536 51.0303V51.3803Z" fill="#FBD1B9"/>
</g>
<mask id="mask5_976_17752" style="mask-type:luminance" maskUnits="userSpaceOnUse" x="0" y="0" width="183" height="183">
<path d="M182.358 91.1793C182.358 40.8224 141.536 0.00016166 91.1791 0.000163861C40.8223 0.000166062 -6.18673e-06 40.8224 -3.98557e-06 91.1793C-1.7844e-06 141.536 40.8223 182.358 91.1791 182.358C141.536 182.358 182.358 141.536 182.358 91.1793Z" fill="white"/>
</mask>
<g mask="url(#mask5_976_17752)">
<path d="M113.694 85.2702C114.014 82.9902 116.754 81.5602 118.964 82.2302C121.174 82.9002 122.624 85.1902 122.784 87.4902C122.944 89.7902 122.014 92.0502 120.694 93.9402C118.494 97.0902 114.624 99.5402 110.914 98.5602C111.504 93.8302 112.354 89.1402 113.454 84.5002L113.694 85.2702Z" fill="#FBD1B9"/>
<path d="M71.8953 85.2702C71.5853 82.9902 68.8353 81.5602 66.6253 82.2302C64.4153 82.9002 62.9652 85.1902 62.7952 87.4902C62.6352 89.7902 63.5652 92.0502 64.8852 93.9402C67.0852 97.0902 70.9552 99.5402 74.6652 98.5602C74.0752 93.8302 73.2253 89.1402 72.1253 84.5002L71.8953 85.2702Z" fill="#FBD1B9"/>
</g>
<mask id="mask6_976_17752" style="mask-type:luminance" maskUnits="userSpaceOnUse" x="0" y="0" width="183" height="183">
<path d="M182.358 91.1793C182.358 40.8224 141.536 0.00016166 91.1791 0.000163861C40.8223 0.000166062 -6.18673e-06 40.8224 -3.98557e-06 91.1793C-1.7844e-06 141.536 40.8223 182.358 91.1791 182.358C141.536 182.358 182.358 141.536 182.358 91.1793Z" fill="white"/>
</mask>
<g mask="url(#mask6_976_17752)">
<path d="M68.1539 76.4995C73.8339 76.9795 79.3938 74.7395 83.5938 71.2595C87.7938 67.7695 91.2038 63.5495 95.5238 60.1795C99.9438 56.7295 105.294 54.2495 110.974 53.0095C109.464 61.4695 112.254 70.0195 115.004 78.2195C116.494 70.3895 117.984 62.4095 116.794 54.5395C116.434 52.1695 115.704 49.6395 113.594 48.1895C111.904 47.0295 109.664 46.8095 107.554 46.6595C96.0838 45.8795 84.5238 46.2095 73.1338 47.6195C72.2538 47.7295 71.3438 47.8595 70.6138 48.3195C69.6138 48.9495 69.1638 50.0695 68.8338 51.1295C66.2438 59.3795 67.2738 68.1495 68.3238 76.6695L68.1539 76.4995Z" fill="#EF6A55"/>
</g>
<mask id="mask7_976_17752" style="mask-type:luminance" maskUnits="userSpaceOnUse" x="0" y="0" width="183" height="183">
<path d="M182.358 91.1793C182.358 40.8224 141.536 0.00016166 91.1791 0.000163861C40.8223 0.000166062 -6.18673e-06 40.8224 -3.98557e-06 91.1793C-1.7844e-06 141.536 40.8223 182.358 91.1791 182.358C141.536 182.358 182.358 141.536 182.358 91.1793Z" fill="white"/>
</mask>
<g mask="url(#mask7_976_17752)">
<path d="M113.506 52.0803C113.726 51.7003 113.956 51.3202 114.206 50.9602C114.326 50.7802 114.456 50.6002 114.586 50.4202C114.646 50.3302 114.716 50.2403 114.786 50.1503C114.816 50.1103 114.846 50.0702 114.876 50.0302C114.956 49.9202 114.766 50.1702 114.916 49.9802C115.466 49.2902 116.056 48.6303 116.696 48.0203C116.986 47.7403 116.996 47.2103 116.696 46.9303C116.386 46.6403 115.916 46.6303 115.606 46.9303C114.266 48.2103 113.116 49.6902 112.196 51.3002C111.996 51.6502 112.106 52.1602 112.476 52.3502C112.816 52.5402 113.286 52.4503 113.506 52.0803Z" fill="#A3362B"/>
</g>
<mask id="mask8_976_17752" style="mask-type:luminance" maskUnits="userSpaceOnUse" x="0" y="0" width="183" height="183">
<path d="M182.358 91.1793C182.358 40.8224 141.536 0.00016166 91.1791 0.000163861C40.8223 0.000166062 -6.18673e-06 40.8224 -3.98557e-06 91.1793C-1.7844e-06 141.536 40.8223 182.358 91.1791 182.358C141.536 182.358 182.358 141.536 182.358 91.1793Z" fill="white"/>
</mask>
<g mask="url(#mask8_976_17752)">
<path d="M114.384 59.6097C114.234 64.9097 115.414 70.1697 117.774 74.9097C118.214 75.7997 119.544 75.0197 119.104 74.1297C116.864 69.6297 115.784 64.6297 115.924 59.6097C115.954 58.6197 114.414 58.6197 114.384 59.6097Z" fill="#A3362B"/>
</g>
<mask id="mask9_976_17752" style="mask-type:luminance" maskUnits="userSpaceOnUse" x="0" y="0" width="183" height="183">
<path d="M182.358 91.1793C182.358 40.8224 141.536 0.00016166 91.1791 0.000163861C40.8223 0.000166062 -6.18673e-06 40.8224 -3.98557e-06 91.1793C-1.7844e-06 141.536 40.8223 182.358 91.1791 182.358C141.536 182.358 182.358 141.536 182.358 91.1793Z" fill="white"/>
</mask>
<g mask="url(#mask9_976_17752)">
<path d="M119.893 64.3296C120.153 66.5496 120.413 68.7796 120.663 70.9996C120.713 71.4096 120.983 71.7696 121.433 71.7696C121.813 71.7696 122.253 71.4196 122.203 70.9996C121.943 68.7796 121.683 66.5496 121.433 64.3296C121.383 63.9196 121.113 63.5596 120.663 63.5596C120.283 63.5596 119.853 63.9096 119.893 64.3296Z" fill="#A3362B"/>
</g>
<mask id="mask10_976_17752" style="mask-type:luminance" maskUnits="userSpaceOnUse" x="0" y="0" width="183" height="183">
<path d="M182.358 91.1793C182.358 40.8224 141.536 0.00016166 91.1791 0.000163861C40.8223 0.000166062 -6.18673e-06 40.8224 -3.98557e-06 91.1793C-1.7844e-06 141.536 40.8223 182.358 91.1791 182.358C141.536 182.358 182.358 141.536 182.358 91.1793Z" fill="white"/>
</mask>
<g mask="url(#mask10_976_17752)">
<path d="M55.4747 99.7398C54.2747 102.77 52.7647 105.67 50.9647 108.39C49.2447 110.99 47.1047 113.33 45.7247 116.14C42.9747 121.73 43.8347 128.1 42.5247 134.03C41.8647 137.01 40.6547 139.89 38.3147 141.93C37.5647 142.58 38.6547 143.66 39.4047 143.02C43.8547 139.14 44.4647 132.89 44.9047 127.38C45.1547 124.2 45.4247 120.97 46.5947 117.98C47.7647 114.98 49.9747 112.55 51.7847 109.93C53.8947 106.88 55.6147 103.59 56.9747 100.15C57.3147 99.2198 55.8347 98.8198 55.4747 99.7398Z" fill="#A3362B"/>
</g>
<mask id="mask11_976_17752" style="mask-type:luminance" maskUnits="userSpaceOnUse" x="0" y="0" width="183" height="183">
<path d="M182.358 91.1793C182.358 40.8224 141.536 0.00016166 91.1791 0.000163861C40.8223 0.000166062 -6.18673e-06 40.8224 -3.98557e-06 91.1793C-1.7844e-06 141.536 40.8223 182.358 91.1791 182.358C141.536 182.358 182.358 141.536 182.358 91.1793Z" fill="white"/>
</mask>
<g mask="url(#mask11_976_17752)">
<path d="M49.6834 121.04C50.5634 126.71 49.2634 132.6 46.1734 137.42C45.6334 138.26 46.9634 139.03 47.5034 138.2C50.8234 133.01 52.1034 126.72 51.1634 120.64C51.0134 119.66 49.5334 120.07 49.6834 121.04Z" fill="#A3362B"/>
</g>
<mask id="mask12_976_17752" style="mask-type:luminance" maskUnits="userSpaceOnUse" x="0" y="0" width="183" height="183">
<path d="M182.358 91.1793C182.358 40.8224 141.536 0.00016166 91.1791 0.000163861C40.8223 0.000166062 -6.18673e-06 40.8224 -3.98557e-06 91.1793C-1.7844e-06 141.536 40.8223 182.358 91.1791 182.358C141.536 182.358 182.358 141.536 182.358 91.1793Z" fill="white"/>
</mask>
<g mask="url(#mask12_976_17752)">
<path d="M59.6355 119.24C59.7155 121.3 59.4355 123.33 58.8055 125.3C58.5055 126.24 59.9855 126.65 60.2855 125.71C60.9555 123.63 61.2555 121.43 61.1755 119.25C61.1555 118.84 60.8355 118.48 60.4055 118.48C59.9955 118.47 59.6155 118.83 59.6355 119.24Z" fill="#A3362B"/>
</g>
<mask id="mask13_976_17752" style="mask-type:luminance" maskUnits="userSpaceOnUse" x="0" y="0" width="183" height="183">
<path d="M182.358 91.1793C182.358 40.8224 141.536 0.00016166 91.1791 0.000163861C40.8223 0.000166062 -6.18673e-06 40.8224 -3.98557e-06 91.1793C-1.7844e-06 141.536 40.8223 182.358 91.1791 182.358C141.536 182.358 182.358 141.536 182.358 91.1793Z" fill="white"/>
</mask>
<g mask="url(#mask13_976_17752)">
<path d="M66.6157 88.6794C68.2957 90.1994 69.8257 91.8994 71.1257 93.7194C71.3657 94.0594 71.7957 94.2194 72.1757 93.9994C72.5057 93.7994 72.6957 93.2894 72.4557 92.9494C71.0657 90.9994 69.4857 89.1994 67.7057 87.5994C67.3957 87.3194 66.9257 87.2994 66.6157 87.5994C66.3257 87.8694 66.3057 88.3994 66.6157 88.6794Z" fill="#A46E4A"/>
</g>
<mask id="mask14_976_17752" style="mask-type:luminance" maskUnits="userSpaceOnUse" x="0" y="0" width="183" height="183">
<path d="M182.358 91.1793C182.358 40.8224 141.536 0.00016166 91.1791 0.000163861C40.8223 0.000166062 -6.18673e-06 40.8224 -3.98557e-06 91.1793C-1.7844e-06 141.536 40.8223 182.358 91.1791 182.358C141.536 182.358 182.358 141.536 182.358 91.1793Z" fill="white"/>
</mask>
<g mask="url(#mask14_976_17752)">
<path d="M68.1726 93.91C69.1026 93.41 70.0226 92.9 70.9526 92.4C71.3026 92.21 71.4526 91.69 71.2326 91.35C71.0026 90.99 70.5626 90.87 70.1826 91.07C69.2526 91.57 68.3326 92.08 67.4026 92.58C67.0526 92.77 66.9026 93.29 67.1226 93.63C67.3526 93.99 67.7926 94.12 68.1726 93.91Z" fill="#A46E4A"/>
</g>
<mask id="mask15_976_17752" style="mask-type:luminance" maskUnits="userSpaceOnUse" x="0" y="0" width="183" height="183">
<path d="M182.358 91.1793C182.358 40.8224 141.536 0.00016166 91.1791 0.000163861C40.8223 0.000166062 -6.18673e-06 40.8224 -3.98557e-06 91.1793C-1.7844e-06 141.536 40.8223 182.358 91.1791 182.358C141.536 182.358 182.358 141.536 182.358 91.1793Z" fill="white"/>
</mask>
<g mask="url(#mask15_976_17752)">
<path d="M115.203 90.9899C115.293 90.8099 115.383 90.6399 115.493 90.4699C115.543 90.3899 115.603 90.2999 115.653 90.2199C115.703 90.1399 115.783 90.0599 115.823 89.9799C115.793 90.0499 115.753 90.0699 115.823 89.9899C115.853 89.9599 115.883 89.9199 115.913 89.8899C115.973 89.8099 116.043 89.7399 116.113 89.6699C116.243 89.5299 116.383 89.3899 116.533 89.2599C116.603 89.1899 116.683 89.1299 116.753 89.0699C116.773 89.0499 116.893 88.9499 116.803 89.0299C116.713 89.0999 116.833 89.0099 116.853 88.9899C117.013 88.8699 117.173 88.7599 117.343 88.6599C117.513 88.5599 117.683 88.4598 117.863 88.3798C117.943 88.3398 118.023 88.2998 118.103 88.2698C117.903 88.3398 118.083 88.2798 118.123 88.2698C118.173 88.2498 118.223 88.2299 118.273 88.2099C118.653 88.0699 118.943 87.6799 118.813 87.2599C118.693 86.8899 118.273 86.5799 117.863 86.7199C116.153 87.3399 114.693 88.5799 113.883 90.2099C113.703 90.5699 113.773 91.0599 114.163 91.2599C114.493 91.4499 115.013 91.3799 115.203 90.9899Z" fill="#A46E4A"/>
</g>
<mask id="mask16_976_17752" style="mask-type:luminance" maskUnits="userSpaceOnUse" x="0" y="0" width="183" height="183">
<path d="M182.358 91.1793C182.358 40.8224 141.536 0.00016166 91.1791 0.000163861C40.8223 0.000166062 -6.18673e-06 40.8224 -3.98557e-06 91.1793C-1.7844e-06 141.536 40.8223 182.358 91.1791 182.358C141.536 182.358 182.358 141.536 182.358 91.1793Z" fill="white"/>
</mask>
<g mask="url(#mask16_976_17752)">
<path d="M114.623 91.0095C115.013 91.5295 115.413 92.0495 115.803 92.5695C115.853 92.6595 115.913 92.7295 116.003 92.7895C116.073 92.8595 116.163 92.8995 116.263 92.9295C116.443 92.9795 116.693 92.9595 116.853 92.8495C117.013 92.7395 117.163 92.5895 117.203 92.3895C117.243 92.1995 117.243 91.9595 117.123 91.7995C116.733 91.2795 116.333 90.7595 115.943 90.2395C115.893 90.1495 115.833 90.0795 115.743 90.0195C115.673 89.9495 115.583 89.9095 115.483 89.8795C115.303 89.8295 115.053 89.8495 114.893 89.9595C114.733 90.0695 114.583 90.2195 114.543 90.4195C114.503 90.5995 114.503 90.8495 114.623 91.0095Z" fill="#A46E4A"/>
</g>
<mask id="mask17_976_17752" style="mask-type:luminance" maskUnits="userSpaceOnUse" x="0" y="0" width="183" height="183">
<path d="M182.358 91.1793C182.358 40.8224 141.536 0.00016166 91.1791 0.000163861C40.8223 0.000166062 -6.18673e-06 40.8224 -3.98557e-06 91.1793C-1.7844e-06 141.536 40.8223 182.358 91.1791 182.358C141.536 182.358 182.358 141.536 182.358 91.1793Z" fill="white"/>
</mask>
<g mask="url(#mask17_976_17752)">
<path d="M79.1751 85.01C80.6332 85.01 81.8152 83.7116 81.8152 82.11C81.8152 80.5083 80.6332 79.21 79.1751 79.21C77.7171 79.21 76.5352 80.5083 76.5352 82.11C76.5352 83.7116 77.7171 85.01 79.1751 85.01Z" fill="#1A1A1A"/>
<path d="M108.034 82.11C108.034 83.71 106.854 85.01 105.394 85.01C103.934 85.01 102.754 83.71 102.754 82.11C102.754 80.51 103.934 79.21 105.394 79.21C106.854 79.21 108.034 80.51 108.034 82.11Z" fill="#1A1A1A"/>
</g>
<mask id="mask18_976_17752" style="mask-type:luminance" maskUnits="userSpaceOnUse" x="0" y="0" width="183" height="183">
<path d="M182.358 91.1793C182.358 40.8224 141.536 0.00016166 91.1791 0.000163861C40.8223 0.000166062 -6.18673e-06 40.8224 -3.98557e-06 91.1793C-1.7844e-06 141.536 40.8223 182.358 91.1791 182.358C141.536 182.358 182.358 141.536 182.358 91.1793Z" fill="white"/>
</mask>
<g mask="url(#mask18_976_17752)">
<path d="M87.0859 104.339C87.6559 102.689 89.016 101.279 90.706 100.889C92.406 100.499 94.366 101.279 95.136 102.839C96.146 104.909 94.546 107.709 92.266 108.019C89.986 108.329 87.736 106.249 87.726 103.939L87.0859 104.339Z" fill="#EF6A55"/>
</g>
<mask id="mask19_976_17752" style="mask-type:luminance" maskUnits="userSpaceOnUse" x="0" y="0" width="183" height="183">
<path d="M182.358 91.1793C182.358 40.8224 141.536 0.00016166 91.1791 0.000163861C40.8223 0.000166062 -6.18673e-06 40.8224 -3.98557e-06 91.1793C-1.7844e-06 141.536 40.8223 182.358 91.1791 182.358C141.536 182.358 182.358 141.536 182.358 91.1793Z" fill="white"/>
</mask>
<g mask="url(#mask19_976_17752)">
<path d="M84.5758 103.65C88.8158 107.03 95.4158 106.68 99.1758 102.7C99.8558 101.98 98.7657 100.89 98.0857 101.61C94.9457 104.93 89.2557 105.43 85.6557 102.56C84.8957 101.95 83.8058 103.03 84.5758 103.65Z" fill="#A46E4A"/>
</g>
<mask id="mask20_976_17752" style="mask-type:luminance" maskUnits="userSpaceOnUse" x="0" y="0" width="183" height="183">
<path d="M182.358 91.1793C182.358 40.8224 141.536 0.00016166 91.1791 0.000163861C40.8223 0.000166062 -6.18673e-06 40.8224 -3.98557e-06 91.1793C-1.7844e-06 141.536 40.8223 182.358 91.1791 182.358C141.536 182.358 182.358 141.536 182.358 91.1793Z" fill="white"/>
</mask>
<g mask="url(#mask20_976_17752)">
<path d="M88.4427 79.8399C87.7127 83.5399 87.1227 87.2699 86.6727 91.0099C86.4827 92.5799 86.2627 94.3899 87.2327 95.7699C88.0027 96.8699 89.4527 97.5999 90.7727 97.0599C91.6727 96.6899 91.2827 95.1999 90.3627 95.5799C89.2427 96.0399 88.3527 94.9999 88.1327 93.9899C87.8227 92.5699 88.2127 90.9399 88.3927 89.5199C88.8027 86.4099 89.3227 83.3199 89.9227 80.2399C90.1127 79.2899 88.6327 78.8699 88.4427 79.8399Z" fill="#A46E4A"/>
</g>
<mask id="mask21_976_17752" style="mask-type:luminance" maskUnits="userSpaceOnUse" x="0" y="0" width="183" height="183">
<path d="M182.358 91.1793C182.358 40.8224 141.536 0.00016166 91.1791 0.000163861C40.8223 0.000166062 -6.18673e-06 40.8224 -3.98557e-06 91.1793C-1.7844e-06 141.536 40.8223 182.358 91.1791 182.358C141.536 182.358 182.358 141.536 182.358 91.1793Z" fill="white"/>
</mask>
<g mask="url(#mask21_976_17752)">
<path d="M100.626 71.76C100.286 71.98 100.466 72.57 100.836 72.74C101.206 72.91 101.646 72.79 102.036 72.7C105.156 71.97 108.566 72.59 111.226 74.38C110.076 72.34 108.076 70.79 105.806 70.19C103.936 69.69 101.576 70.03 100.626 71.71V71.76Z" fill="#EF6A55"/>
</g>
<mask id="mask22_976_17752" style="mask-type:luminance" maskUnits="userSpaceOnUse" x="0" y="0" width="183" height="183">
<path d="M182.358 91.1793C182.358 40.8224 141.536 0.00016166 91.1791 0.000163861C40.8223 0.000166062 -6.18673e-06 40.8224 -3.98557e-06 91.1793C-1.7844e-06 141.536 40.8223 182.358 91.1791 182.358C141.536 182.358 182.358 141.536 182.358 91.1793Z" fill="white"/>
</mask>
<g mask="url(#mask22_976_17752)">
<path d="M65.8553 74.3702C68.3153 72.9902 71.2553 73.0602 73.8753 72.1602C76.1153 71.3902 78.0853 70.0602 79.8553 68.5002C83.5853 65.2002 86.3853 60.9702 90.4053 57.9902C92.9053 56.1302 95.6953 54.7102 98.6753 53.7902C99.6153 53.5002 99.2153 52.0102 98.2653 52.3102C93.0253 53.9402 88.6253 57.0002 84.9053 60.9902C81.6853 64.4502 78.6153 68.6302 74.0853 70.4602C71.1653 71.6402 67.8753 71.5002 65.0853 73.0602C64.2153 73.5202 64.9853 74.8502 65.8553 74.3702Z" fill="#A3362B"/>
</g>
<mask id="mask23_976_17752" style="mask-type:luminance" maskUnits="userSpaceOnUse" x="0" y="0" width="183" height="183">
<path d="M182.358 91.1793C182.358 40.8224 141.536 0.00016166 91.1791 0.000163861C40.8223 0.000166062 -6.18673e-06 40.8224 -3.98557e-06 91.1793C-1.7844e-06 141.536 40.8223 182.358 91.1791 182.358C141.536 182.358 182.358 141.536 182.358 91.1793Z" fill="white"/>
</mask>
<g mask="url(#mask23_976_17752)">
<path d="M89.4645 51.9395C85.4645 53.8995 82.1045 56.7695 79.3845 60.2795C76.8545 63.5395 73.8445 68.0195 69.0945 67.4595C68.1145 67.3395 68.1245 68.8795 69.0945 68.9995C73.9045 69.5695 77.3045 65.5195 79.9145 62.0995C81.2945 60.2895 82.7445 58.5595 84.4645 57.0595C86.2145 55.5395 88.1645 54.2795 90.2345 53.2595C91.1345 52.8295 90.3545 51.5095 89.4645 51.9395Z" fill="#A3362B"/>
</g>
<mask id="mask24_976_17752" style="mask-type:luminance" maskUnits="userSpaceOnUse" x="0" y="0" width="183" height="183">
<path d="M182.358 91.1793C182.358 40.8224 141.536 0.00016166 91.1791 0.000163861C40.8223 0.000166062 -6.18673e-06 40.8224 -3.98557e-06 91.1793C-1.7844e-06 141.536 40.8223 182.358 91.1791 182.358C141.536 182.358 182.358 141.536 182.358 91.1793Z" fill="white"/>
</mask>
<g mask="url(#mask24_976_17752)">
<path d="M78.3936 124.32C94.2736 133.03 104.514 124.83 107.084 124.32C107.584 124.22 108.444 132.44 107.404 133.43C106.654 134.14 78.0436 134.92 77.3636 134.04C76.6936 133.17 76.7036 123.39 78.3936 124.32Z" fill="#FFB753"/>
</g>
<mask id="mask25_976_17752" style="mask-type:luminance" maskUnits="userSpaceOnUse" x="0" y="0" width="183" height="183">
<path d="M182.358 91.1793C182.358 40.8224 141.536 0.00016166 91.1791 0.000163861C40.8223 0.000166062 -6.18673e-06 40.8224 -3.98557e-06 91.1793C-1.7844e-06 141.536 40.8223 182.358 91.1791 182.358C141.536 182.358 182.358 141.536 182.358 91.1793Z" fill="white"/>
</mask>
<g mask="url(#mask25_976_17752)">
<path d="M31.0859 169.49C30.2959 157.5 38.1659 146.2 48.3459 139.81C58.5259 133.43 70.7059 131.13 82.6359 129.68C98.2959 127.77 114.656 127.17 129.356 132.89C144.056 138.6 156.716 151.99 157.306 167.75L95.2959 189.37L31.0859 169.49Z" fill="#FFB753"/>
</g>
<mask id="mask26_976_17752" style="mask-type:luminance" maskUnits="userSpaceOnUse" x="0" y="0" width="183" height="183">
<path d="M182.358 91.1793C182.358 40.8224 141.536 0.00016166 91.1791 0.000163861C40.8223 0.000166062 -6.18673e-06 40.8224 -3.98557e-06 91.1793C-1.7844e-06 141.536 40.8223 182.358 91.1791 182.358C141.536 182.358 182.358 141.536 182.358 91.1793Z" fill="white"/>
</mask>
<g mask="url(#mask26_976_17752)">
<path d="M80.3827 128.49C80.9427 130.04 80.9827 131.63 80.5027 133.19C80.3827 133.57 80.6427 134.05 81.0427 134.14C81.4627 134.24 81.8627 134.01 81.9927 133.6C82.5427 131.81 82.5127 129.85 81.8727 128.09C81.7327 127.7 81.3527 127.44 80.9227 127.55C80.5427 127.65 80.2427 128.1 80.3827 128.49Z" fill="#724328"/>
</g>
<mask id="mask27_976_17752" style="mask-type:luminance" maskUnits="userSpaceOnUse" x="0" y="0" width="183" height="183">
<path d="M182.358 91.1793C182.358 40.8224 141.536 0.00016166 91.1791 0.000163861C40.8223 0.000166062 -6.18673e-06 40.8224 -3.98557e-06 91.1793C-1.7844e-06 141.536 40.8223 182.358 91.1791 182.358C141.536 182.358 182.358 141.536 182.358 91.1793Z" fill="white"/>
</mask>
<g mask="url(#mask27_976_17752)">
<path d="M84.1045 130.41C84.3345 131.85 84.5645 133.3 84.7945 134.74C84.8545 135.14 85.3746 135.39 85.7446 135.28C86.1746 135.14 86.3445 134.76 86.2845 134.33C86.0545 132.89 85.8245 131.44 85.5945 130C85.5345 129.6 85.0146 129.35 84.6446 129.46C84.2146 129.6 84.0345 129.98 84.1045 130.41Z" fill="#724328"/>
</g>
<mask id="mask28_976_17752" style="mask-type:luminance" maskUnits="userSpaceOnUse" x="0" y="0" width="183" height="183">
<path d="M182.358 91.1793C182.358 40.8224 141.536 0.00016166 91.1791 0.000163861C40.8223 0.000166062 -6.18673e-06 40.8224 -3.98557e-06 91.1793C-1.7844e-06 141.536 40.8223 182.358 91.1791 182.358C141.536 182.358 182.358 141.536 182.358 91.1793Z" fill="white"/>
</mask>
<g mask="url(#mask28_976_17752)">
<path d="M90.4031 130.61C90.4731 131.79 90.5431 132.97 90.6131 134.15C90.6331 134.55 90.9531 134.94 91.3831 134.92C91.7831 134.9 92.1731 134.58 92.1531 134.15C92.0831 132.97 92.0131 131.79 91.9431 130.61C91.9231 130.21 91.6031 129.82 91.1731 129.84C90.7831 129.86 90.3831 130.18 90.4031 130.61Z" fill="#724328"/>
</g>
<mask id="mask29_976_17752" style="mask-type:luminance" maskUnits="userSpaceOnUse" x="0" y="0" width="183" height="183">
<path d="M182.358 91.1793C182.358 40.8224 141.536 0.00016166 91.1791 0.000163861C40.8223 0.000166062 -6.18673e-06 40.8224 -3.98557e-06 91.1793C-1.7844e-06 141.536 40.8223 182.358 91.1791 182.358C141.536 182.358 182.358 141.536 182.358 91.1793Z" fill="white"/>
</mask>
<g mask="url(#mask29_976_17752)">
<path d="M96.4961 130.23C96.4961 131.41 96.4961 132.58 96.4961 133.76C96.4961 134.16 96.8461 134.55 97.2661 134.53C97.6861 134.51 98.0361 134.19 98.0361 133.76C98.0361 132.58 98.0361 131.41 98.0361 130.23C98.0361 129.83 97.6861 129.44 97.2661 129.46C96.8461 129.48 96.4961 129.8 96.4961 130.23Z" fill="#724328"/>
</g>
<mask id="mask30_976_17752" style="mask-type:luminance" maskUnits="userSpaceOnUse" x="0" y="0" width="183" height="183">
<path d="M182.358 91.1793C182.358 40.8224 141.536 0.00016166 91.1791 0.000163861C40.8223 0.000166062 -6.18673e-06 40.8224 -3.98557e-06 91.1793C-1.7844e-06 141.536 40.8223 182.358 91.1791 182.358C141.536 182.358 182.358 141.536 182.358 91.1793Z" fill="white"/>
</mask>
<g mask="url(#mask30_976_17752)">
<path d="M102.773 127.87C102.773 129.31 102.773 130.75 102.773 132.19C102.773 132.59 103.123 132.98 103.543 132.96C103.963 132.94 104.313 132.62 104.313 132.19C104.313 130.75 104.313 129.31 104.313 127.87C104.313 127.47 103.963 127.08 103.543 127.1C103.123 127.12 102.773 127.44 102.773 127.87Z" fill="#724328"/>
</g>
<mask id="mask31_976_17752" style="mask-type:luminance" maskUnits="userSpaceOnUse" x="0" y="0" width="183" height="183">
<path d="M182.358 91.1793C182.358 40.8224 141.536 0.00016166 91.1791 0.000163861C40.8223 0.000166062 -6.18673e-06 40.8224 -3.98557e-06 91.1793C-1.7844e-06 141.536 40.8223 182.358 91.1791 182.358C141.536 182.358 182.358 141.536 182.358 91.1793Z" fill="white"/>
</mask>
<g mask="url(#mask31_976_17752)">
<path d="M47.753 151.03C48.183 156.65 48.613 162.27 49.043 167.89C49.123 168.87 50.653 168.88 50.583 167.89C50.153 162.27 49.723 156.65 49.293 151.03C49.213 150.05 47.673 150.04 47.753 151.03Z" fill="#724328"/>
</g>
<mask id="mask32_976_17752" style="mask-type:luminance" maskUnits="userSpaceOnUse" x="0" y="0" width="183" height="183">
<path d="M182.358 91.1793C182.358 40.8224 141.536 0.00016166 91.1791 0.000163861C40.8223 0.000166062 -6.18673e-06 40.8224 -3.98557e-06 91.1793C-1.7844e-06 141.536 40.8223 182.358 91.1791 182.358C141.536 182.358 182.358 141.536 182.358 91.1793Z" fill="white"/>
</mask>
<g mask="url(#mask32_976_17752)">
<path d="M45.1157 153.819C46.1657 155.389 47.2157 156.949 48.2757 158.519C48.4957 158.849 48.9657 159.029 49.3257 158.799C49.6557 158.589 49.8457 158.109 49.6057 157.749C48.5557 156.179 47.5057 154.619 46.4457 153.049C46.2257 152.719 45.7557 152.539 45.3957 152.769C45.0657 152.979 44.8757 153.469 45.1157 153.819Z" fill="#724328"/>
</g>
<mask id="mask33_976_17752" style="mask-type:luminance" maskUnits="userSpaceOnUse" x="0" y="0" width="183" height="183">
<path d="M182.358 91.1793C182.358 40.8224 141.536 0.00016166 91.1791 0.000163861C40.8223 0.000166062 -6.18673e-06 40.8224 -3.98557e-06 91.1793C-1.7844e-06 141.536 40.8223 182.358 91.1791 182.358C141.536 182.358 182.358 141.536 182.358 91.1793Z" fill="white"/>
</mask>
<g mask="url(#mask33_976_17752)">
<path d="M138.275 149.239C139.145 154.379 139.715 159.559 139.975 164.759C140.025 165.739 141.565 165.749 141.515 164.759C141.245 159.419 140.655 154.099 139.755 148.829C139.585 147.859 138.105 148.269 138.275 149.239Z" fill="#724328"/>
</g>
<mask id="mask34_976_17752" style="mask-type:luminance" maskUnits="userSpaceOnUse" x="0" y="0" width="183" height="183">
<path d="M182.358 91.1793C182.358 40.8224 141.536 0.00016166 91.1791 0.000163861C40.8223 0.000166062 -6.18673e-06 40.8224 -3.98557e-06 91.1793C-1.7844e-06 141.536 40.8223 182.358 91.1791 182.358C141.536 182.358 182.358 141.536 182.358 91.1793Z" fill="white"/>
</mask>
<g mask="url(#mask34_976_17752)">
<path d="M142.504 151.03C141.484 152.48 140.774 154.17 140.464 155.92C140.394 156.31 140.574 156.77 141.004 156.87C141.374 156.96 141.874 156.76 141.954 156.33C142.254 154.63 142.844 153.21 143.834 151.8C144.064 151.47 143.904 150.93 143.554 150.75C143.164 150.54 142.754 150.67 142.504 151.03Z" fill="#724328"/>
</g>
<mask id="mask35_976_17752" style="mask-type:luminance" maskUnits="userSpaceOnUse" x="0" y="0" width="183" height="183">
<path d="M182.358 91.1793C182.358 40.8224 141.536 0.00016166 91.1791 0.000163861C40.8223 0.000166062 -6.18673e-06 40.8224 -3.98557e-06 91.1793C-1.7844e-06 141.536 40.8223 182.358 91.1791 182.358C141.536 182.358 182.358 141.536 182.358 91.1793Z" fill="white"/>
</mask>
<g mask="url(#mask35_976_17752)">
<path d="M125.364 135.309C126.584 133.279 128.134 131.499 129.994 129.999C130.314 129.739 130.264 129.189 129.994 128.909C129.674 128.589 129.234 128.649 128.904 128.909C126.964 130.479 125.314 132.389 124.034 134.529C123.824 134.889 123.954 135.369 124.314 135.579C124.674 135.799 125.154 135.659 125.364 135.309Z" fill="#FFB753"/>
</g>
<mask id="mask36_976_17752" style="mask-type:luminance" maskUnits="userSpaceOnUse" x="0" y="0" width="183" height="183">
<path d="M182.358 91.1793C182.358 40.8224 141.536 0.00016166 91.1791 0.000163861C40.8223 0.000166062 -6.18673e-06 40.8224 -3.98557e-06 91.1793C-1.7844e-06 141.536 40.8223 182.358 91.1791 182.358C141.536 182.358 182.358 141.536 182.358 91.1793Z" fill="white"/>
</mask>
<g mask="url(#mask36_976_17752)">
<path d="M128.945 135.73C128.995 135.65 129.055 135.57 129.115 135.5C129.055 135.57 129.055 135.57 129.115 135.5C129.145 135.46 129.175 135.43 129.205 135.39C129.315 135.25 129.435 135.12 129.565 134.99C129.815 134.72 130.095 134.47 130.375 134.24C130.395 134.22 130.435 134.18 130.465 134.17C130.395 134.23 130.375 134.24 130.425 134.2C130.435 134.19 130.455 134.18 130.475 134.17C130.555 134.11 130.625 134.06 130.705 134.01C130.855 133.91 131.005 133.81 131.155 133.72C131.475 133.53 131.815 133.36 132.165 133.21C132.325 133.14 132.475 132.91 132.515 132.75C132.565 132.57 132.545 132.32 132.435 132.16C132.185 131.77 131.785 131.72 131.385 131.88C129.865 132.53 128.575 133.62 127.615 134.96C127.385 135.29 127.545 135.83 127.895 136.01C128.295 136.22 128.695 136.08 128.945 135.73Z" fill="#FFB753"/>
</g>
<mask id="mask37_976_17752" style="mask-type:luminance" maskUnits="userSpaceOnUse" x="0" y="0" width="183" height="183">
<path d="M182.358 91.1793C182.358 40.8224 141.536 0.00016166 91.1791 0.000163861C40.8223 0.000166062 -6.18673e-06 40.8224 -3.98557e-06 91.1793C-1.7844e-06 141.536 40.8223 182.358 91.1791 182.358C141.536 182.358 182.358 141.536 182.358 91.1793Z" fill="white"/>
</mask>
<g mask="url(#mask37_976_17752)">
<path d="M62.0561 129.85C62.8561 130.88 63.6561 131.92 64.4561 132.95C64.5861 133.12 64.7061 133.24 64.9161 133.3C65.0961 133.35 65.3462 133.33 65.5062 133.22C65.8162 133.02 66.0462 132.51 65.7862 132.17C64.9862 131.13 64.1861 130.1 63.3861 129.07C63.2561 128.9 63.1361 128.78 62.9261 128.72C62.7461 128.67 62.4961 128.69 62.3361 128.8C62.0161 129 61.7961 129.51 62.0561 129.85Z" fill="#FFB753"/>
</g>
<mask id="mask38_976_17752" style="mask-type:luminance" maskUnits="userSpaceOnUse" x="0" y="0" width="183" height="183">
<path d="M182.358 91.1793C182.358 40.8224 141.536 0.00016166 91.1791 0.000163861C40.8223 0.000166062 -6.18673e-06 40.8224 -3.98557e-06 91.1793C-1.7844e-06 141.536 40.8223 182.358 91.1791 182.358C141.536 182.358 182.358 141.536 182.358 91.1793Z" fill="white"/>
</mask>
<g mask="url(#mask38_976_17752)">
<path d="M65.8848 129.49C66.6148 131.02 67.3349 132.56 68.0649 134.09C68.2349 134.45 68.7848 134.58 69.1148 134.37C69.4848 134.13 69.5748 133.71 69.3948 133.32C68.6648 131.79 67.9449 130.25 67.2149 128.72C67.0449 128.36 66.4948 128.23 66.1648 128.44C65.7848 128.68 65.7048 129.1 65.8848 129.49Z" fill="#FFB753"/>
</g>
<mask id="mask39_976_17752" style="mask-type:luminance" maskUnits="userSpaceOnUse" x="0" y="0" width="183" height="183">
<path d="M182.358 91.1793C182.358 40.8224 141.536 0.00016166 91.1791 0.000163861C40.8223 0.000166062 -6.18673e-06 40.8224 -3.98557e-06 91.1793C-1.7844e-06 141.536 40.8223 182.358 91.1791 182.358C141.536 182.358 182.358 141.536 182.358 91.1793Z" fill="white"/>
</mask>
<g mask="url(#mask39_976_17752)">
<path d="M70.6432 129.86C71.2032 131.02 71.7532 132.18 72.3132 133.34C72.4832 133.7 73.0332 133.83 73.3632 133.62C73.7332 133.38 73.8232 132.96 73.6432 132.57C73.0832 131.41 72.5332 130.25 71.9732 129.09C71.8032 128.73 71.2532 128.6 70.9232 128.81C70.5432 129.05 70.4532 129.47 70.6432 129.86Z" fill="#FFB753"/>
</g>
</svg>
