<svg width="183" height="183" viewBox="0 0 183 183" fill="none" xmlns="http://www.w3.org/2000/svg">
<mask id="mask0_976_17143" style="mask-type:luminance" maskUnits="userSpaceOnUse" x="0" y="0" width="183" height="183">
<path d="M182.358 91.1793C182.358 40.8224 141.536 0.000146401 91.1791 0.000148602C40.8223 0.000150803 -6.18673e-06 40.8224 -3.98557e-06 91.1793C-1.7844e-06 141.536 40.8223 182.358 91.1791 182.358C141.536 182.358 182.358 141.536 182.358 91.1793Z" fill="white"/>
</mask>
<g mask="url(#mask0_976_17143)">
<path d="M182.36 0H0V182.36H182.36V0Z" fill="#F7E4FF"/>
</g>
<mask id="mask1_976_17143" style="mask-type:luminance" maskUnits="userSpaceOnUse" x="0" y="0" width="183" height="183">
<path d="M182.358 91.1793C182.358 40.8224 141.536 0.000146401 91.1791 0.000148602C40.8223 0.000150803 -6.18673e-06 40.8224 -3.98557e-06 91.1793C-1.7844e-06 141.536 40.8223 182.358 91.1791 182.358C141.536 182.358 182.358 141.536 182.358 91.1793Z" fill="white"/>
</mask>
<g mask="url(#mask1_976_17143)">
<path d="M120.15 98.8695C121.87 99.7095 124.08 98.8295 124.98 96.9395C125.88 95.0495 125.34 92.4195 123.8 91.1895C125.78 91.0395 127.14 88.4995 126.98 86.2095C126.82 83.9195 125.55 81.9395 124.15 80.3095C126.21 79.8895 127.56 77.3395 127.55 74.9295C127.55 72.5095 126.49 70.2695 125.27 68.3095C128.55 66.0695 128.73 59.6995 125.57 57.2295C127.09 57.0595 128.01 55.0595 127.94 53.2995C127.86 51.5395 127.1 49.9395 126.52 48.2995C125.52 45.4395 125.08 42.3295 123.8 39.6295C122.52 36.9295 119.99 34.6295 117.38 35.2195C117.2 35.2595 116.98 35.3595 116.96 35.5695C116.94 35.7795 117.32 35.8295 117.26 35.6195C116.07 32.4695 113.21 30.2495 110.23 30.1995C109 30.1795 107.44 30.9595 107.56 32.3795C106.14 27.7295 100.29 25.9195 97.0401 29.1195C94.2401 26.0295 89.2101 26.3095 86.6801 29.6895C81.8101 26.2995 74.7401 28.2095 71.6801 33.7495C69.3601 32.6095 67.0401 35.2395 65.5301 37.5695C65.1501 38.1695 64.7401 38.8795 64.9101 39.5995C65.0801 40.3195 66.1901 40.5195 66.2901 39.7795C62.4401 40.7995 60.3901 46.8195 62.6001 50.5995C60.1901 53.8595 59.9101 58.9795 61.9501 62.5595C60.7501 64.2695 59.6701 66.1795 59.3301 68.3395C58.9801 70.4995 59.5201 72.9695 61.0501 74.2695C58.5701 76.6995 58.3801 81.6395 60.6801 84.3095C58.8901 86.9695 59.4401 91.2895 61.8001 93.2595C61.0001 94.1295 61.5501 95.7695 62.4601 96.4895C63.3701 97.2095 64.5101 97.4295 65.4201 98.1395C66.35 98.8695 66.9601 100.039 67.8601 100.819C69.4401 102.199 71.8801 102.039 73.3301 100.479C73.5301 102.809 74.9601 104.949 76.8701 105.739C78.7801 106.529 81.0601 105.949 82.5001 104.289C83.2201 106.879 85.8501 108.269 88.1901 107.949C90.5301 107.629 92.5701 105.969 94.2601 104.079C94.4101 106.019 96.5201 106.809 98.2001 106.779C101.13 106.739 104.04 105.659 106.45 103.739C109.7 106.399 114.84 105.059 116.78 101.039C117.44 102.439 119.28 102.829 120.32 101.789C121.36 100.749 121.3 98.5895 120.21 97.6295L120.15 98.8695Z" fill="#7F4E33"/>
<path d="M142.529 161.91C133.099 155.59 121.699 153.06 110.569 150.83C109.889 150.69 109.179 150.55 108.639 150.12C107.709 149.39 109.829 124.81 108.639 114.06L92.7587 115.55L76.8787 114.06C75.6887 124.81 77.8087 149.39 76.8787 150.12C76.3287 150.55 75.6287 150.69 74.9487 150.83C63.8187 153.07 52.4187 155.59 42.9887 161.91C33.5587 168.23 26.4187 179.24 27.9287 190.49C37.3987 190.44 63.8287 190.61 90.6087 190.96V191.02C91.3287 191.01 92.0387 191 92.7587 190.99C93.4787 191 94.1887 191.01 94.9087 191.02V190.96C121.689 190.61 148.119 190.44 157.589 190.49C159.099 179.24 151.959 168.22 142.529 161.91Z" fill="#FBD1B9"/>
<mask id="mask2_976_17143" style="mask-type:luminance" maskUnits="userSpaceOnUse" x="27" y="114" width="131" height="78">
<path d="M142.529 161.91C133.099 155.59 121.699 153.06 110.569 150.83C109.889 150.69 109.179 150.55 108.639 150.12C107.709 149.39 109.829 124.81 108.639 114.06L92.7587 115.55L76.8787 114.06C75.6887 124.81 77.8087 149.39 76.8787 150.12C76.3287 150.55 75.6287 150.69 74.9487 150.83C63.8187 153.07 52.4187 155.59 42.9887 161.91C33.5587 168.23 26.4187 179.24 27.9287 190.49C37.3987 190.44 63.8287 190.61 90.6087 190.96V191.02C91.3287 191.01 92.0387 191 92.7587 190.99C93.4787 191 94.1887 191.01 94.9087 191.02V190.96C121.689 190.61 148.119 190.44 157.589 190.49C159.099 179.24 151.959 168.22 142.529 161.91Z" fill="white"/>
</mask>
<g mask="url(#mask2_976_17143)">
<path d="M55.7305 113.71C61.9905 109.68 62.2605 107.74 62.5605 109.68C64.0405 119.19 79.0805 142.11 92.7405 142.11C110.43 142.11 120.7 112.25 122.35 104.72C101.9 107.64 81.1905 110.57 60.6905 108.11C61.2505 108.64 61.8205 109.17 62.3805 109.7L55.7305 113.71Z" fill="#DBA78A"/>
</g>
<path d="M67.3979 57.1398C63.7478 69.4698 67.0079 95.5198 69.7579 108.08C69.7679 108.15 69.7879 108.22 69.7979 108.28C71.2879 115.02 73.6679 121.76 78.1579 127.01C82.6479 132.26 89.5578 135.81 96.3979 134.88C103.018 133.98 108.568 129.06 111.798 123.21C115.028 117.36 116.268 110.64 117.168 104.02C118.738 92.4898 119.138 58.2498 118.028 58.1498C103.778 56.9398 83.8179 54.6498 69.9379 58.1498L67.3979 57.1398Z" fill="#FBD1B9"/>
<path d="M116.61 99.2598C116.96 96.7198 120.02 95.1298 122.47 95.8798C124.92 96.6198 126.54 99.1698 126.72 101.73C126.9 104.29 125.87 106.8 124.4 108.9C121.96 112.4 117.66 115.12 113.52 114.04C114.18 108.78 115.12 103.57 116.34 98.4098L116.61 99.2598Z" fill="#FBD1B9"/>
<path d="M70.1382 99.2598C69.7882 96.7198 66.7282 95.1298 64.2782 95.8798C61.8282 96.6198 60.2082 99.1698 60.0282 101.73C59.8482 104.29 60.8782 106.8 62.3482 108.9C64.7882 112.4 69.0982 115.12 73.2282 114.04C72.5682 108.78 71.6282 103.57 70.4082 98.4098L70.1382 99.2598Z" fill="#FBD1B9"/>
<path d="M118.92 106.8C120.15 104.44 121.78 102.33 123.75 100.54C124.06 100.26 124.03 99.7399 123.75 99.4499C123.44 99.1399 122.97 99.1699 122.66 99.4499C120.6 101.32 118.87 103.55 117.59 106.02C117.4 106.39 117.5 106.85 117.87 107.07C118.22 107.28 118.73 107.17 118.92 106.8Z" fill="#A46E4A"/>
<path d="M120.567 102.829C120.937 104.479 121.307 106.129 121.677 107.789C121.767 108.179 122.237 108.449 122.617 108.329C123.027 108.199 123.247 107.809 123.157 107.389C122.787 105.739 122.417 104.089 122.047 102.429C121.957 102.039 121.487 101.769 121.107 101.889C120.697 102.019 120.477 102.409 120.567 102.829Z" fill="#A46E4A"/>
<path d="M63.1478 101.98C64.9278 104.17 66.6978 106.35 68.4778 108.54C68.7378 108.86 69.2878 108.81 69.5678 108.54C69.8878 108.22 69.8278 107.78 69.5678 107.45C67.7878 105.26 66.0178 103.08 64.2378 100.89C63.9778 100.57 63.4278 100.62 63.1478 100.89C62.8278 101.21 62.8878 101.65 63.1478 101.98Z" fill="#A46E4A"/>
<path d="M64.6 107.67C65.37 107.26 66.13 106.86 66.9 106.45C67.26 106.26 67.39 105.74 67.18 105.4C66.95 105.04 66.51 104.92 66.13 105.12C65.36 105.53 64.6 105.93 63.83 106.34C63.47 106.53 63.34 107.05 63.55 107.39C63.78 107.76 64.22 107.87 64.6 107.67Z" fill="#A46E4A"/>
<path d="M81.6983 94.7595C81.6983 96.8495 80.4783 98.5395 78.9683 98.5395C77.4583 98.5395 76.2383 96.8495 76.2383 94.7595C76.2383 92.6695 77.4583 90.9795 78.9683 90.9795C80.4783 90.9895 81.6983 92.6795 81.6983 94.7595Z" fill="#1A1A1A"/>
<path d="M109.257 94.7595C109.257 96.8495 108.037 98.5395 106.527 98.5395C105.017 98.5395 103.797 96.8495 103.797 94.7595C103.797 92.6695 105.017 90.9795 106.527 90.9795C108.037 90.9795 109.257 92.6795 109.257 94.7595Z" fill="#1A1A1A"/>
<path d="M82.9284 73.5491C83.6684 74.3091 83.3084 75.6691 82.4784 76.3391C81.6584 77.0091 80.5384 77.1591 79.4884 77.2991C77.8784 77.5091 76.2584 77.7091 74.6484 77.9191C76.7784 75.4891 79.3084 72.8591 82.5384 72.8291L82.9284 73.5491Z" fill="#7F4E33"/>
<path d="M101.96 74.4995C101.17 75.3595 101.62 76.6895 102.58 77.2595C103.53 77.8295 104.79 77.8495 105.97 77.8595C107.79 77.8695 109.61 77.8695 111.43 77.8795C108.94 75.6895 105.99 73.3495 102.36 73.7195L101.96 74.4995Z" fill="#7F4E33"/>
<path d="M125.228 60.9999C123.588 57.8599 121.548 54.7999 118.578 52.8599C115.608 50.9299 111.538 50.3599 108.538 52.2499C106.768 50.8599 104.908 49.4199 102.698 48.9799C100.488 48.5399 97.8376 49.4399 97.0376 51.5399C96.9876 48.6899 93.3576 47.0499 90.6376 47.8899C87.9176 48.7299 86.0076 51.1199 84.2676 53.3799C84.7076 50.7799 80.9076 49.3999 78.5076 50.4999C76.1076 51.5899 74.4676 53.9199 72.1276 55.1399C70.2276 53.2599 67.1276 52.7199 64.6976 53.8299C62.2676 54.9399 66.2776 57.6399 66.4576 60.2999C64.2476 60.5799 62.3076 62.3899 61.8976 64.5899C61.4876 66.7799 62.6176 69.1799 64.5776 70.2499C62.2576 73.3799 60.9676 77.2499 60.9376 81.1499C60.9276 83.0199 62.2576 85.5299 63.9276 84.6999C62.9376 89.8199 61.2276 95.3699 66.3876 96.1499L65.2376 96.5199C65.8676 96.6899 66.4776 96.6099 67.0376 96.3499C67.1876 97.5699 67.4776 98.8399 68.3376 99.7199C69.2176 100.61 70.8576 100.83 71.6576 99.8799C70.2176 99.2799 69.2676 97.6899 69.4076 96.1399C69.4776 95.4099 69.7576 94.6899 69.7376 93.9599C69.7276 93.5899 69.5976 93.1999 69.3676 92.8999C69.3776 92.7599 69.3876 92.6099 69.3876 92.4699C69.3376 90.2199 67.9376 88.2699 66.5876 86.4699C68.7476 84.7299 68.9276 81.0399 66.9276 79.1099C69.9276 76.1799 70.0476 70.8199 67.1876 67.7499C70.6276 66.3699 71.3976 60.9399 68.4776 58.6599C69.0076 58.9799 69.5376 58.7999 69.9476 58.4199C70.1676 58.7499 70.4676 59.0199 70.8476 59.1799C72.0976 59.6899 73.6976 58.7199 73.8376 57.3799C74.0276 59.0999 75.6876 60.5399 77.4176 60.4799C78.6876 60.4399 79.8576 59.5999 80.4276 58.4699C80.5876 60.0599 82.6376 61.5899 84.4176 61.1799C86.2376 60.7599 87.5176 59.2699 88.5576 57.6599C88.3376 59.2399 89.9776 61.2699 91.8276 61.2199C93.3776 61.1799 94.6876 60.3299 95.8376 59.2399C96.1776 59.7499 96.7176 60.1699 97.2776 60.4599C99.3476 61.5199 101.908 61.3999 103.988 60.3699C103.978 60.6899 104.018 61.0199 104.138 61.3199C104.828 63.0699 106.978 63.8699 108.848 63.6099C110.708 63.3499 112.348 62.2799 113.918 61.2399C113.378 62.3499 114.068 63.8699 115.258 64.1999C115.378 64.2299 115.498 64.2499 115.618 64.2599C114.528 66.4399 115.118 69.7199 117.558 70.5399C114.828 72.7199 115.268 77.6999 118.338 79.3699C117.078 81.8399 117.608 85.0999 119.578 87.0399C117.598 88.1199 116.928 90.7799 117.668 92.8499C117.078 93.5299 116.738 94.4699 116.628 95.3799C116.458 96.7899 116.678 98.2199 116.448 99.6199C116.218 101.02 115.358 102.47 113.968 102.73C115.958 102.49 117.688 101.11 118.688 99.3699C119.708 99.3399 120.718 99.1299 121.548 98.5599C123.338 97.3099 123.668 94.8399 123.848 92.6599C124.098 89.4599 124.358 86.2599 124.608 83.0599C124.648 82.4899 124.698 81.9299 124.738 81.3599C125.088 76.9699 125.408 72.3999 123.768 68.3099C125.258 68.2699 126.368 66.7499 126.468 65.2599C126.578 63.7399 125.918 62.3199 125.228 60.9999Z" fill="#7F4E33"/>
<path d="M104.208 103.699C104.208 103.609 104.208 103.529 104.208 103.439C104.208 103.329 104.188 103.239 104.138 103.139C104.108 103.039 104.058 102.959 103.978 102.889C103.908 102.819 103.828 102.759 103.728 102.729C103.638 102.679 103.538 102.659 103.428 102.659C103.358 102.669 103.288 102.679 103.228 102.689C103.098 102.729 102.988 102.789 102.888 102.889C102.848 102.939 102.808 102.989 102.768 103.049C102.698 103.169 102.668 103.299 102.668 103.439C102.668 103.529 102.668 103.609 102.668 103.699C102.668 103.809 102.688 103.899 102.738 103.999C102.768 104.089 102.818 104.179 102.898 104.249C102.968 104.319 103.048 104.379 103.148 104.409C103.238 104.459 103.338 104.479 103.448 104.479C103.518 104.469 103.588 104.459 103.648 104.449C103.778 104.409 103.888 104.349 103.988 104.249C104.028 104.199 104.068 104.149 104.108 104.089C104.178 103.969 104.208 103.839 104.208 103.699Z" fill="#7F4E33"/>
<path d="M108.928 103.949C109.018 103.949 109.098 103.949 109.188 103.949C109.298 103.949 109.388 103.929 109.488 103.879C109.588 103.849 109.668 103.799 109.738 103.719C109.808 103.649 109.868 103.569 109.898 103.469C109.948 103.379 109.968 103.279 109.968 103.169C109.958 103.099 109.948 103.029 109.938 102.969C109.898 102.839 109.838 102.729 109.738 102.629C109.688 102.589 109.638 102.549 109.578 102.509C109.458 102.439 109.328 102.409 109.188 102.409C109.098 102.409 109.018 102.409 108.928 102.409C108.818 102.409 108.728 102.429 108.628 102.479C108.528 102.509 108.448 102.559 108.378 102.639C108.308 102.709 108.248 102.789 108.218 102.889C108.168 102.979 108.148 103.079 108.148 103.189C108.158 103.259 108.168 103.329 108.178 103.389C108.218 103.519 108.278 103.629 108.378 103.729C108.428 103.769 108.478 103.809 108.538 103.849C108.668 103.909 108.788 103.949 108.928 103.949Z" fill="#7F4E33"/>
<path d="M80.198 103.17C80.288 103.17 80.368 103.17 80.458 103.17C80.568 103.17 80.658 103.15 80.758 103.1C80.858 103.07 80.938 103.02 81.008 102.94C81.078 102.87 81.138 102.79 81.168 102.69C81.218 102.6 81.238 102.5 81.238 102.39C81.228 102.32 81.218 102.25 81.208 102.19C81.168 102.06 81.108 101.95 81.008 101.85C80.958 101.81 80.908 101.77 80.848 101.73C80.728 101.66 80.598 101.63 80.458 101.63C80.368 101.63 80.288 101.63 80.198 101.63C80.088 101.63 79.998 101.65 79.898 101.7C79.798 101.73 79.718 101.78 79.648 101.86C79.578 101.93 79.518 102.01 79.488 102.11C79.438 102.2 79.418 102.3 79.418 102.41C79.428 102.48 79.438 102.55 79.448 102.61C79.488 102.74 79.548 102.85 79.648 102.95C79.698 102.99 79.748 103.03 79.808 103.07C79.928 103.13 80.058 103.17 80.198 103.17Z" fill="#7F4E33"/>
<path d="M77.3269 107.869C77.4169 107.869 77.4969 107.869 77.5869 107.869C77.6969 107.869 77.7869 107.849 77.8869 107.799C77.9869 107.769 78.0669 107.719 78.1369 107.639C78.2069 107.569 78.2669 107.489 78.2969 107.389C78.3469 107.299 78.3669 107.199 78.3669 107.089C78.3569 107.019 78.3469 106.949 78.3369 106.889C78.2969 106.759 78.2369 106.649 78.1369 106.549C78.0869 106.509 78.0369 106.469 77.9769 106.429C77.8569 106.359 77.7269 106.329 77.5869 106.329C77.4969 106.329 77.4169 106.329 77.3269 106.329C77.2169 106.329 77.1269 106.349 77.0269 106.399C76.9269 106.429 76.8469 106.479 76.7769 106.559C76.7069 106.629 76.6469 106.709 76.6169 106.809C76.5669 106.899 76.5469 106.999 76.5469 107.109C76.5569 107.179 76.5669 107.249 76.5769 107.309C76.6169 107.439 76.6769 107.549 76.7769 107.649C76.8269 107.689 76.8769 107.729 76.9369 107.769C77.0569 107.829 77.1869 107.869 77.3269 107.869Z" fill="#7F4E33"/>
<path d="M92.6467 88.4699C89.5967 90.7399 87.6567 94.1499 86.8767 97.8499C85.9467 102.27 86.6467 106.85 87.8967 111.13C87.9867 111.42 88.3067 111.73 88.6367 111.69C90.2667 111.49 91.8967 111.29 93.5267 111.09C94.4967 110.97 94.5067 109.44 93.5267 109.56C91.8967 109.76 90.2667 109.96 88.6367 110.16C88.8867 110.35 89.1267 110.54 89.3767 110.72C88.2267 106.77 87.4967 102.53 88.3167 98.4499C88.9767 95.1099 90.6467 91.8599 93.4167 89.7999C94.2067 89.2099 93.4467 87.8799 92.6467 88.4699Z" fill="#A46E4A"/>
<path d="M84.0985 114.17C87.9885 117.64 94.2985 117.59 98.1085 114.03C98.8285 113.35 97.7485 112.27 97.0185 112.94C93.8385 115.91 88.4285 115.99 85.1785 113.08C84.4485 112.43 83.3585 113.51 84.0985 114.17Z" fill="#A46E4A"/>
<path d="M124.468 151.899C117.078 162.019 106.238 165.879 93.6485 165.449V165.369C93.3685 165.389 93.0785 165.399 92.7985 165.419C92.5185 165.409 92.2284 165.389 91.9484 165.369V165.449C79.3584 165.879 69.0784 162.019 61.6984 151.899C61.6984 151.899 23.1984 159.299 27.1884 190.359C27.2184 190.569 59.0984 190.839 91.9484 191.059V191.069C92.2284 191.069 92.5185 191.069 92.7985 191.059C93.0785 191.059 93.3685 191.059 93.6485 191.069V191.059C126.508 190.839 158.388 190.569 158.408 190.359C161.588 159.879 124.468 151.899 124.468 151.899Z" fill="#241E21"/>
<mask id="mask3_976_17143" style="mask-type:luminance" maskUnits="userSpaceOnUse" x="26" y="151" width="133" height="41">
<path d="M124.468 151.899C117.078 162.019 106.238 165.879 93.6485 165.449V165.369C93.3685 165.389 93.0785 165.399 92.7985 165.419C92.5185 165.409 92.2284 165.389 91.9484 165.369V165.449C79.3584 165.879 69.0784 162.019 61.6984 151.899C61.6984 151.899 23.1984 159.299 27.1884 190.359C27.2184 190.569 59.0984 190.839 91.9484 191.059V191.069C92.2284 191.069 92.5185 191.069 92.7985 191.059C93.0785 191.059 93.3685 191.059 93.6485 191.069V191.059C126.508 190.839 158.388 190.569 158.408 190.359C161.588 159.879 124.468 151.899 124.468 151.899Z" fill="white"/>
</mask>
<g mask="url(#mask3_976_17143)">
<path d="M38.3477 159.769C46.3677 161.269 54.3977 162.769 62.4777 163.889C70.4877 165.009 78.5377 165.679 86.6177 165.889C102.818 166.319 119.098 165.529 135.218 163.919C144.218 163.019 153.188 161.839 162.108 160.369C163.078 160.209 162.668 158.729 161.698 158.889C145.828 161.499 129.818 163.199 113.758 163.969C97.6877 164.739 81.5277 164.799 65.5477 162.759C56.5577 161.609 47.6477 159.939 38.7477 158.279C37.7877 158.109 37.3777 159.589 38.3477 159.769Z" fill="#241E21"/>
</g>
<mask id="mask4_976_17143" style="mask-type:luminance" maskUnits="userSpaceOnUse" x="26" y="151" width="133" height="41">
<path d="M124.468 151.899C117.078 162.019 106.238 165.879 93.6485 165.449V165.369C93.3685 165.389 93.0785 165.399 92.7985 165.419C92.5185 165.409 92.2284 165.389 91.9484 165.369V165.449C79.3584 165.879 69.0784 162.019 61.6984 151.899C61.6984 151.899 23.1984 159.299 27.1884 190.359C27.2184 190.569 59.0984 190.839 91.9484 191.059V191.069C92.2284 191.069 92.5185 191.069 92.7985 191.059C93.0785 191.059 93.3685 191.059 93.6485 191.069V191.059C126.508 190.839 158.388 190.569 158.408 190.359C161.588 159.879 124.468 151.899 124.468 151.899Z" fill="white"/>
</mask>
<g mask="url(#mask4_976_17143)">
<path d="M28.5703 169.549C47.1903 172.779 66.1303 173.669 85.0003 173.469C103.95 173.279 122.87 172.069 141.79 171.029C152.6 170.439 163.4 169.839 174.21 169.249C175.19 169.199 175.2 167.659 174.21 167.719C155.09 168.769 135.98 169.879 116.86 170.849C98.1303 171.799 79.3403 172.449 60.5903 171.489C50.0003 170.949 39.4303 169.879 28.9703 168.069C28.0103 167.909 27.6003 169.379 28.5703 169.549Z" fill="#241E21"/>
</g>
<mask id="mask5_976_17143" style="mask-type:luminance" maskUnits="userSpaceOnUse" x="26" y="151" width="133" height="41">
<path d="M124.468 151.899C117.078 162.019 106.238 165.879 93.6485 165.449V165.369C93.3685 165.389 93.0785 165.399 92.7985 165.419C92.5185 165.409 92.2284 165.389 91.9484 165.369V165.449C79.3584 165.879 69.0784 162.019 61.6984 151.899C61.6984 151.899 23.1984 159.299 27.1884 190.359C27.2184 190.569 59.0984 190.839 91.9484 191.059V191.069C92.2284 191.069 92.5185 191.069 92.7985 191.059C93.0785 191.059 93.3685 191.059 93.6485 191.069V191.059C126.508 190.839 158.388 190.569 158.408 190.359C161.588 159.879 124.468 151.899 124.468 151.899Z" fill="white"/>
</mask>
<g mask="url(#mask5_976_17143)">
<path d="M23.3803 182.419C27.5203 184.299 31.9903 185.049 36.4903 185.359C41.3803 185.689 46.3003 185.659 51.1903 185.709C61.4203 185.819 71.6503 185.789 81.8703 185.639C92.1003 185.489 102.32 185.199 112.54 184.779C122.76 184.359 132.97 183.819 143.18 183.139C153.39 182.459 163.58 181.649 173.77 180.709C175.04 180.589 176.3 180.469 177.57 180.349C178.54 180.259 178.55 178.719 177.57 178.819C157.31 180.749 137 182.169 116.66 183.069C96.4303 183.959 76.1703 184.339 55.9203 184.209C50.3603 184.169 44.8003 184.169 39.2403 183.959C34.1103 183.769 28.8703 183.229 24.1403 181.079C23.2603 180.689 22.4803 182.009 23.3803 182.419Z" fill="#241E21"/>
</g>
<mask id="mask6_976_17143" style="mask-type:luminance" maskUnits="userSpaceOnUse" x="26" y="151" width="133" height="41">
<path d="M124.468 151.899C117.078 162.019 106.238 165.879 93.6485 165.449V165.369C93.3685 165.389 93.0785 165.399 92.7985 165.419C92.5185 165.409 92.2284 165.389 91.9484 165.369V165.449C79.3584 165.879 69.0784 162.019 61.6984 151.899C61.6984 151.899 23.1984 159.299 27.1884 190.359C27.2184 190.569 59.0984 190.839 91.9484 191.059V191.069C92.2284 191.069 92.5185 191.069 92.7985 191.059C93.0785 191.059 93.3685 191.059 93.6485 191.069V191.059C126.508 190.839 158.388 190.569 158.408 190.359C161.588 159.879 124.468 151.899 124.468 151.899Z" fill="white"/>
</mask>
<g mask="url(#mask6_976_17143)">
<path d="M53.9375 149.099C61.2175 163.479 77.3475 173.029 93.6375 172.599C109.928 172.179 125.528 161.799 132.018 147.069C106.358 150.339 81.2975 150.759 54.5375 147.979L53.9375 149.099Z" fill="#241E21"/>
</g>
<mask id="mask7_976_17143" style="mask-type:luminance" maskUnits="userSpaceOnUse" x="26" y="151" width="133" height="41">
<path d="M124.468 151.899C117.078 162.019 106.238 165.879 93.6485 165.449V165.369C93.3685 165.389 93.0785 165.399 92.7985 165.419C92.5185 165.409 92.2284 165.389 91.9484 165.369V165.449C79.3584 165.879 69.0784 162.019 61.6984 151.899C61.6984 151.899 23.1984 159.299 27.1884 190.359C27.2184 190.569 59.0984 190.839 91.9484 191.059V191.069C92.2284 191.069 92.5185 191.069 92.7985 191.059C93.0785 191.059 93.3685 191.059 93.6485 191.069V191.059C126.508 190.839 158.388 190.569 158.408 190.359C161.588 159.879 124.468 151.899 124.468 151.899Z" fill="white"/>
</mask>
<g mask="url(#mask7_976_17143)">
<path d="M137.098 172.679C137.908 181.179 137.438 189.759 135.698 198.119C135.498 199.079 136.978 199.499 137.178 198.529C138.948 190.039 139.458 181.319 138.638 172.689C138.538 171.709 136.998 171.699 137.098 172.679Z" fill="#241E21"/>
</g>
<mask id="mask8_976_17143" style="mask-type:luminance" maskUnits="userSpaceOnUse" x="26" y="151" width="133" height="41">
<path d="M124.468 151.899C117.078 162.019 106.238 165.879 93.6485 165.449V165.369C93.3685 165.389 93.0785 165.399 92.7985 165.419C92.5185 165.409 92.2284 165.389 91.9484 165.369V165.449C79.3584 165.879 69.0784 162.019 61.6984 151.899C61.6984 151.899 23.1984 159.299 27.1884 190.359C27.2184 190.569 59.0984 190.839 91.9484 191.059V191.069C92.2284 191.069 92.5185 191.069 92.7985 191.059C93.0785 191.059 93.3685 191.059 93.6485 191.069V191.059C126.508 190.839 158.388 190.569 158.408 190.359C161.588 159.879 124.468 151.899 124.468 151.899Z" fill="white"/>
</mask>
<g mask="url(#mask8_976_17143)">
<path d="M44.8598 173.129C45.1198 181.849 47.3898 190.459 51.4398 198.189C52.5898 200.379 53.8798 202.489 55.2998 204.519C55.8598 205.319 57.1898 204.559 56.6298 203.749C51.7498 196.789 48.4698 188.779 47.0898 180.389C46.6998 177.989 46.4698 175.559 46.3998 173.129C46.3698 172.139 44.8298 172.139 44.8598 173.129Z" fill="#241E21"/>
</g>
<mask id="mask9_976_17143" style="mask-type:luminance" maskUnits="userSpaceOnUse" x="26" y="151" width="133" height="41">
<path d="M124.468 151.899C117.078 162.019 106.238 165.879 93.6485 165.449V165.369C93.3685 165.389 93.0785 165.399 92.7985 165.419C92.5185 165.409 92.2284 165.389 91.9484 165.369V165.449C79.3584 165.879 69.0784 162.019 61.6984 151.899C61.6984 151.899 23.1984 159.299 27.1884 190.359C27.2184 190.569 59.0984 190.839 91.9484 191.059V191.069C92.2284 191.069 92.5185 191.069 92.7985 191.059C93.0785 191.059 93.3685 191.059 93.6485 191.069V191.059C126.508 190.839 158.388 190.569 158.408 190.359C161.588 159.879 124.468 151.899 124.468 151.899Z" fill="white"/>
</mask>
<g mask="url(#mask9_976_17143)">
<path d="M158.767 178.75C140.897 182.43 122.517 181.26 104.507 179.32C95.387 178.34 86.287 177.18 77.157 176.27C67.867 175.34 58.557 174.61 49.237 174.08C38.797 173.48 28.347 173.13 17.887 173.02C16.897 173.01 16.897 174.54 17.887 174.55C27.267 174.65 36.647 174.94 46.017 175.44C55.337 175.93 64.647 176.62 73.947 177.5C83.147 178.37 92.317 179.51 101.507 180.53C110.557 181.54 119.647 182.41 128.757 182.63C137.807 182.85 146.897 182.42 155.837 180.86C156.957 180.67 158.067 180.45 159.177 180.22C160.147 180.03 159.737 178.55 158.767 178.75Z" fill="white"/>
</g>
<mask id="mask10_976_17143" style="mask-type:luminance" maskUnits="userSpaceOnUse" x="26" y="151" width="133" height="41">
<path d="M124.468 151.899C117.078 162.019 106.238 165.879 93.6485 165.449V165.369C93.3685 165.389 93.0785 165.399 92.7985 165.419C92.5185 165.409 92.2284 165.389 91.9484 165.369V165.449C79.3584 165.879 69.0784 162.019 61.6984 151.899C61.6984 151.899 23.1984 159.299 27.1884 190.359C27.2184 190.569 59.0984 190.839 91.9484 191.059V191.069C92.2284 191.069 92.5185 191.069 92.7985 191.059C93.0785 191.059 93.3685 191.059 93.6485 191.069V191.059C126.508 190.839 158.388 190.569 158.408 190.359C161.588 159.879 124.468 151.899 124.468 151.899Z" fill="white"/>
</mask>
<g mask="url(#mask10_976_17143)">
<path d="M25.0068 161.899C34.0768 164.359 43.2568 166.409 52.5168 168.039C61.7468 169.669 71.0568 170.899 80.3968 171.709C89.8068 172.529 99.2468 172.929 108.697 172.909C118.097 172.889 127.497 172.459 136.857 171.609C146.197 170.759 155.497 169.499 164.727 167.829C165.877 167.619 167.027 167.409 168.177 167.179C169.147 166.989 168.737 165.509 167.767 165.699C158.557 167.469 149.277 168.839 139.947 169.779C130.687 170.709 121.377 171.239 112.077 171.349C102.727 171.469 93.3668 171.169 84.0368 170.469C74.7368 169.769 65.4568 168.649 56.2568 167.129C47.0268 165.599 37.8668 163.659 28.8168 161.319C27.6868 161.029 26.5568 160.729 25.4268 160.419C24.4568 160.169 24.0568 161.649 25.0068 161.899Z" fill="white"/>
</g>
<mask id="mask11_976_17143" style="mask-type:luminance" maskUnits="userSpaceOnUse" x="26" y="151" width="133" height="41">
<path d="M124.468 151.899C117.078 162.019 106.238 165.879 93.6485 165.449V165.369C93.3685 165.389 93.0785 165.399 92.7985 165.419C92.5185 165.409 92.2284 165.389 91.9484 165.369V165.449C79.3584 165.879 69.0784 162.019 61.6984 151.899C61.6984 151.899 23.1984 159.299 27.1884 190.359C27.2184 190.569 59.0984 190.839 91.9484 191.059V191.069C92.2284 191.069 92.5185 191.069 92.7985 191.059C93.0785 191.059 93.3685 191.059 93.6485 191.069V191.059C126.508 190.839 158.388 190.569 158.408 190.359C161.588 159.879 124.468 151.899 124.468 151.899Z" fill="white"/>
</mask>
<g mask="url(#mask11_976_17143)">
<path d="M145.297 157.32C130.247 157.42 115.197 157.52 100.147 157.63C92.6674 157.68 85.1873 157.73 77.6973 157.78C70.2173 157.83 62.6973 158.06 55.2273 157.54C51.1473 157.26 47.1273 156.64 43.1073 155.88C39.0773 155.11 35.0573 154.27 30.9773 153.76C29.9973 153.64 30.0073 155.17 30.9773 155.29C38.2773 156.21 45.3973 158.17 52.7273 158.87C60.0873 159.57 67.5074 159.39 74.8974 159.34C89.9473 159.24 104.997 159.14 120.047 159.03C128.467 158.97 136.877 158.92 145.297 158.86C146.287 158.85 146.287 157.32 145.297 157.32Z" fill="white"/>
</g>
</g>
</svg>
