<svg width="183" height="183" viewBox="0 0 183 183" fill="none" xmlns="http://www.w3.org/2000/svg">
<mask id="mask0_976_18143" style="mask-type:luminance" maskUnits="userSpaceOnUse" x="0" y="0" width="183" height="183">
<path d="M91.1799 182.36C141.537 182.36 182.36 141.537 182.36 91.18C182.36 40.8227 141.537 0 91.1799 0C40.8226 0 0 40.8227 0 91.18C0 141.537 40.8226 182.36 91.1799 182.36Z" fill="white"/>
</mask>
<g mask="url(#mask0_976_18143)">
<path d="M182.36 0H0V182.36H182.36V0Z" fill="#E0FFAA"/>
</g>
<mask id="mask1_976_18143" style="mask-type:luminance" maskUnits="userSpaceOnUse" x="0" y="0" width="183" height="183">
<path d="M91.1799 182.36C141.537 182.36 182.36 141.537 182.36 91.18C182.36 40.8227 141.537 0 91.1799 0C40.8226 0 0 40.8227 0 91.18C0 141.537 40.8226 182.36 91.1799 182.36Z" fill="white"/>
</mask>
<g mask="url(#mask1_976_18143)">
<path d="M86.8282 173.18C85.7882 177.72 82.5082 182.01 77.8082 183.37C73.1082 184.73 67.2283 182.33 65.9783 177.84C65.3683 179.93 62.7583 181.03 60.4783 180.79C58.1983 180.55 56.1882 179.31 54.2982 178.08C49.0282 174.65 43.7082 170.75 41.1782 165.2C38.6382 159.66 39.9882 152.08 45.6582 149.29C39.9082 141.9 37.6882 132.16 39.7082 123.19C40.6982 118.83 42.7382 114.53 46.3282 111.63C49.9182 108.73 55.2282 107.49 59.5282 109.33C59.1082 101.36 59.6182 91.7199 66.9682 87.7999C69.4182 86.4999 72.2782 86.0899 75.0782 85.8999C83.1182 85.3499 92.8082 87.4699 95.5782 94.6199C100.548 89.3299 107.948 85.5699 115.378 86.5199C122.798 87.4799 129.408 94.2899 128.058 101.25C132.998 97.8699 140.858 100.25 143.468 105.45C146.078 110.66 143.658 117.39 138.648 120.68C144.498 120.78 149.058 126.27 149.458 131.78C149.848 137.29 147.008 142.57 143.468 146.97C147.548 151.51 147.768 158.74 143.968 163.49C142.158 165.75 139.598 167.43 137.958 169.81C136.788 171.5 136.138 173.46 134.908 175.11C132.098 178.88 126.228 180.25 121.878 178.16C119.738 184.34 110.918 187.44 105.018 184.08C102.088 186.64 99.5382 187.33 95.9182 185.75C92.2982 184.17 87.8183 180.42 87.9783 176.66L86.8282 173.18Z" fill="#262B44"/>
<path d="M138.269 160.379C129.799 154.709 119.559 152.429 109.569 150.429C108.959 150.309 108.329 150.169 107.839 149.789C106.999 149.129 108.909 127.059 107.839 117.399L93.5686 118.739L79.2985 117.399C78.2285 127.049 80.1385 149.129 79.2985 149.789C78.8085 150.169 78.1786 150.309 77.5686 150.429C67.5686 152.439 57.3386 154.709 48.8686 160.379C40.3986 166.049 33.9786 175.949 35.3386 186.049C43.8486 186.009 69.6386 186.159 93.6886 186.479V186.529C94.3286 186.519 94.9786 186.509 95.6186 186.499C96.2586 186.509 96.9085 186.519 97.5485 186.529V186.479C121.599 186.159 143.299 186.009 151.809 186.049C153.159 175.949 146.739 166.049 138.269 160.379Z" fill="#F0BF85"/>
<mask id="mask2_976_18143" style="mask-type:luminance" maskUnits="userSpaceOnUse" x="35" y="117" width="117" height="70">
<path d="M138.269 160.379C129.799 154.709 119.559 152.429 109.569 150.429C108.959 150.309 108.329 150.169 107.839 149.789C106.999 149.129 108.909 127.059 107.839 117.399L93.5686 118.739L79.2985 117.399C78.2285 127.049 80.1385 149.129 79.2985 149.789C78.8085 150.169 78.1786 150.309 77.5686 150.429C67.5686 152.439 57.3386 154.709 48.8686 160.379C40.3986 166.049 33.9786 175.949 35.3386 186.049C43.8486 186.009 69.6386 186.159 93.6886 186.479V186.529C94.3286 186.519 94.9786 186.509 95.6186 186.499C96.2586 186.509 96.9085 186.519 97.5485 186.529V186.479C121.599 186.159 143.299 186.009 151.809 186.049C153.159 175.949 146.739 166.049 138.269 160.379Z" fill="white"/>
</mask>
<g mask="url(#mask2_976_18143)">
<path d="M60.3086 117.09C65.9386 113.47 66.1786 111.73 66.4486 113.47C67.7786 122.01 81.2786 142.6 93.5586 142.6C109.449 142.6 118.669 115.78 120.159 109.02C101.789 111.64 83.1887 114.27 64.7687 112.06C65.2787 112.54 65.7786 113.01 66.2886 113.49L60.3086 117.09Z" fill="#D3A06C"/>
</g>
<path d="M123.569 106.32C123.409 104.02 121.949 101.74 119.749 101.07C118.299 100.63 116.629 101.1 115.559 102.12C116.279 89.7697 115.879 70.5397 115.049 70.4697C102.249 69.3897 84.8586 66.7597 72.3986 69.9097V70.2697C69.9986 78.3697 69.7886 90.9197 70.8186 101.49C69.8186 100.93 68.5786 100.74 67.4786 101.08C65.2786 101.75 63.8185 104.04 63.6585 106.33C63.4985 108.63 64.4286 110.88 65.7386 112.77C67.6086 115.46 70.7086 117.62 73.8786 117.6C75.2186 121.77 77.1186 125.74 79.9486 129.05C83.9786 133.77 90.1886 136.95 96.3386 136.12C102.289 135.31 107.269 130.89 110.169 125.64C111.569 123.11 112.549 120.4 113.279 117.6C116.479 117.66 119.589 115.48 121.479 112.77C122.799 110.88 123.729 108.62 123.569 106.32Z" fill="#F0BF85"/>
<path d="M82.3578 100.58C82.3578 102.02 81.2177 103.19 79.8077 103.19C78.3977 103.19 77.2578 102.02 77.2578 100.58C77.2578 99.1397 78.3977 97.9697 79.8077 97.9697C81.2077 97.9697 82.3578 99.1397 82.3578 100.58Z" fill="#1A1A1A"/>
<path d="M108.389 100.58C108.389 102.02 107.249 103.19 105.839 103.19C104.429 103.19 103.289 102.02 103.289 100.58C103.289 99.1397 104.429 97.9697 105.839 97.9697C107.249 97.9697 108.389 99.1397 108.389 100.58Z" fill="#1A1A1A"/>
<path d="M88.5273 115.33C90.2273 119.82 94.3175 121.87 97.2675 115.78L88.5273 115.33Z" fill="white"/>
<path d="M87.7878 115.54C88.4278 117.21 89.4278 118.92 91.0378 119.82C92.5878 120.68 94.2879 120.41 95.6379 119.31C96.6479 118.49 97.3678 117.33 97.9278 116.17C98.1878 115.64 97.8679 115.05 97.2679 115.02C94.7179 114.89 92.1779 114.76 89.6279 114.62C89.2579 114.6 88.8978 114.58 88.5278 114.56C87.5378 114.51 87.5478 116.04 88.5278 116.09C91.0778 116.22 93.6178 116.35 96.1678 116.49C96.5378 116.51 96.8979 116.53 97.2679 116.55C97.0479 116.17 96.8278 115.78 96.6078 115.4C96.0978 116.43 95.4878 117.51 94.5578 118.23C94.1978 118.51 93.8778 118.67 93.4778 118.76C93.2378 118.82 93.3078 118.81 93.0578 118.82C92.9578 118.82 92.8479 118.82 92.7479 118.81C92.6179 118.8 92.7778 118.82 92.6078 118.79C91.8778 118.63 91.2979 118.22 90.7479 117.62C90.0979 116.91 89.6178 116.03 89.2778 115.14C89.1278 114.75 88.7578 114.49 88.3378 114.6C87.9578 114.7 87.6378 115.15 87.7878 115.54Z" fill="#A46E4A"/>
<path d="M115.06 110.18C115.18 109.98 115.31 109.79 115.44 109.6C115.47 109.55 115.5 109.51 115.54 109.47C115.55 109.46 115.66 109.31 115.6 109.39C115.54 109.47 115.65 109.33 115.66 109.31C115.7 109.26 115.74 109.21 115.79 109.16C116.08 108.81 116.4 108.49 116.75 108.19C116.83 108.12 116.92 108.05 117 107.98C117.04 107.95 117.09 107.91 117.13 107.88C117.01 107.97 117.14 107.88 117.16 107.86C117.35 107.72 117.54 107.59 117.74 107.47C118.13 107.22 118.55 107.01 118.97 106.82C119.34 106.66 119.45 106.09 119.25 105.77C119 105.39 118.6 105.32 118.2 105.49C116.35 106.29 114.78 107.7 113.74 109.41C113.53 109.75 113.65 110.27 114.02 110.46C114.38 110.66 114.84 110.55 115.06 110.18Z" fill="#A46E4A"/>
<path d="M116.151 108.81C116.221 108.85 116.291 108.89 116.361 108.94C116.391 108.96 116.411 108.98 116.441 108.99C116.451 109 116.581 109.1 116.481 109.02C116.381 108.94 116.501 109.03 116.521 109.05C116.551 109.08 116.581 109.1 116.611 109.13C116.661 109.18 116.721 109.23 116.771 109.28C116.891 109.39 116.991 109.51 117.101 109.64C117.161 109.72 117.091 109.63 117.071 109.6C117.091 109.63 117.121 109.67 117.141 109.7C117.191 109.77 117.231 109.83 117.271 109.9C117.351 110.03 117.431 110.17 117.491 110.31C117.501 110.34 117.521 110.37 117.531 110.4C117.601 110.55 117.491 110.28 117.521 110.37C117.551 110.45 117.581 110.52 117.601 110.6C117.651 110.75 117.691 110.9 117.721 111.05C117.741 111.13 117.751 111.21 117.761 111.29C117.751 111.26 117.741 111.12 117.751 111.23C117.751 111.28 117.761 111.33 117.761 111.38C117.791 111.78 118.091 112.17 118.531 112.15C118.921 112.13 119.331 111.81 119.301 111.38C119.191 109.78 118.311 108.31 116.921 107.49C116.571 107.29 116.061 107.4 115.871 107.77C115.681 108.13 115.781 108.59 116.151 108.81Z" fill="#A46E4A"/>
<path d="M67.6984 105.52C68.7484 107.26 69.7885 109 70.8385 110.74C71.0485 111.09 71.5285 111.23 71.8885 111.02C72.2485 110.81 72.3784 110.33 72.1684 109.97C71.1184 108.23 70.0784 106.49 69.0284 104.75C68.8184 104.4 68.3385 104.26 67.9785 104.47C67.6185 104.68 67.4884 105.16 67.6984 105.52Z" fill="#A46E4A"/>
<path d="M67.738 110.43C68.438 109.91 69.138 109.39 69.828 108.87C69.998 108.75 70.1279 108.62 70.1779 108.41C70.2279 108.23 70.208 107.98 70.098 107.82C69.988 107.66 69.838 107.51 69.638 107.47C69.448 107.43 69.2079 107.43 69.0479 107.55C68.3479 108.07 67.648 108.59 66.958 109.11C66.788 109.23 66.658 109.36 66.608 109.57C66.558 109.75 66.5779 110 66.6879 110.16C66.7979 110.32 66.948 110.47 67.148 110.51C67.338 110.55 67.578 110.55 67.738 110.43Z" fill="#A46E4A"/>
<path d="M103.251 91.5695C103.401 91.4995 103.591 91.4295 103.831 91.3595C103.951 91.3295 104.071 91.2995 104.191 91.2795C104.241 91.2695 104.301 91.2595 104.351 91.2495C104.401 91.2395 104.401 91.2395 104.351 91.2495C104.381 91.2495 104.401 91.2395 104.431 91.2395C104.941 91.1995 105.371 91.2095 105.771 91.2995C106.701 91.4995 107.451 91.9095 108.081 92.6095C108.361 92.9195 108.881 92.8895 109.171 92.6095C109.481 92.2995 109.451 91.8295 109.171 91.5195C107.511 89.6695 104.701 89.1895 102.491 90.2395C102.121 90.4195 102.021 90.9495 102.211 91.2895C102.431 91.6795 102.881 91.7495 103.251 91.5695Z" fill="#262B44"/>
<path d="M78.9896 92.7496C79.5996 91.9796 80.3396 91.5196 81.2496 91.2796C81.3696 91.2496 81.4895 91.2196 81.5995 91.1996C81.6495 91.1896 81.7096 91.1796 81.7596 91.1696C81.8096 91.1596 81.8096 91.1596 81.7596 91.1696C81.7896 91.1696 81.8095 91.1596 81.8395 91.1596C82.0795 91.1396 82.3195 91.1296 82.5595 91.1396C82.6295 91.1396 82.6896 91.1496 82.7596 91.1496C82.7796 91.1496 82.9495 91.1696 82.8395 91.1496C82.9595 91.1696 83.0795 91.1896 83.1995 91.2196C83.4495 91.2796 83.6895 91.3496 83.9295 91.4496C84.3095 91.6096 84.7696 91.2796 84.8696 90.9096C84.9896 90.4696 84.7195 90.1196 84.3295 89.9696C82.1395 89.0796 79.3795 89.8096 77.9095 91.6596C77.6495 91.9796 77.5895 92.4296 77.9095 92.7496C78.1795 93.0196 78.7396 93.0796 78.9896 92.7496Z" fill="#262B44"/>
<path d="M55.4897 156.399C60.5497 160.729 94.0597 177.889 94.0597 177.889C94.0597 177.889 127.34 161.659 132.46 156.919C149.11 159.779 151.6 179.439 152.25 185.389C115.53 189.869 86.9097 212.169 36.3597 187.789C35.5797 187.419 34.5697 187.619 33.9497 187.049C33.0497 186.229 33.1097 184.849 33.3597 183.679C38.3797 159.779 55.4897 156.399 55.4897 156.399Z" fill="#8CA3C3"/>
<path d="M76.7708 150.159C80.6008 154.489 85.1108 159.509 91.1808 160.249C96.2008 160.859 101.371 158.859 105.351 155.919C107.761 154.149 109.841 151.959 111.411 149.399C111.671 148.979 111.011 148.589 110.751 149.009C108.081 153.349 103.801 156.739 99.0108 158.459C96.7608 159.259 94.3608 159.709 91.9708 159.549C89.4508 159.389 87.2008 158.419 85.1208 157.009C82.1408 154.989 79.6908 152.279 77.3208 149.609C76.9808 149.239 76.4408 149.789 76.7708 150.159Z" fill="#EF6A55"/>
<path d="M93.5601 111.6C96.1701 109.81 98.6701 107.86 101.05 105.76C101.46 105.4 101.27 104.58 100.71 104.48C97.8302 103.97 94.9501 103.47 92.0701 102.96C92.2601 103.21 92.4502 103.45 92.6302 103.7C92.6002 100.98 92.5601 98.2496 92.5301 95.5296C92.5201 94.5396 90.9802 94.5396 91.0002 95.5296C91.0302 98.2496 91.0702 100.98 91.1002 103.7C91.1002 104.01 91.3301 104.38 91.6601 104.44C94.5401 104.95 97.4201 105.45 100.3 105.96C100.19 105.53 100.07 105.11 99.9602 104.68C97.6802 106.69 95.2801 108.55 92.7801 110.28C91.9801 110.83 92.7501 112.16 93.5601 111.6Z" fill="#A46E4A"/>
<path d="M138.069 102.91C141.539 104.3 144.169 107.76 144.499 111.49C144.839 115.33 142.899 119.2 139.639 121.24C138.889 121.71 139.379 122.83 140.229 122.64C144.439 121.73 148.299 125.17 149.979 128.73C151.989 132.99 149.819 137.5 146.439 140.3C144.469 141.93 142.119 143.06 139.779 144.04C139.389 144.2 139.129 144.55 139.239 144.98C139.339 145.34 139.799 145.68 140.179 145.52C144.819 143.58 149.539 140.92 151.529 136.02C152.479 133.68 152.579 131.09 151.639 128.74C150.729 126.47 149.209 124.46 147.249 123C145.119 121.4 142.469 120.59 139.819 121.16C140.019 121.63 140.209 122.09 140.409 122.56C143.329 120.74 145.399 117.64 145.919 114.23C146.449 110.79 145.389 107.37 143.139 104.74C141.879 103.26 140.269 102.15 138.469 101.43C137.559 101.07 137.159 102.55 138.069 102.91Z" fill="#262B44"/>
<path d="M62.8407 91.36C57.9907 93.88 55.2807 99.56 56.2007 104.91C56.5107 104.6 56.8308 104.28 57.1408 103.97C51.8308 103.08 46.3307 104.75 42.3007 108.3C38.1507 111.97 36.1608 117.56 36.7508 123.03C37.0908 126.17 38.1907 129.2 40.0907 131.73C40.1807 131.38 40.2708 131.03 40.3708 130.68C37.0408 132.94 35.0208 136.83 34.9808 140.86C34.9508 144.98 37.2108 148.74 40.6508 150.93C42.5608 152.15 44.8007 152.83 47.0707 152.84C48.0607 152.84 48.0607 151.31 47.0707 151.31C43.5507 151.29 40.1407 149.39 38.1907 146.47C36.2307 143.52 36.0307 139.76 37.4407 136.53C38.2307 134.72 39.5008 133.13 41.1408 132.01C41.4508 131.8 41.6807 131.31 41.4207 130.96C38.3607 126.89 37.4207 121.46 38.8307 116.58C40.2107 111.79 43.9507 108.01 48.5907 106.29C51.1807 105.33 54.0008 104.99 56.7408 105.45C57.3508 105.55 57.7907 105.11 57.6807 104.51C56.8707 99.81 59.4208 94.88 63.6208 92.69C64.4908 92.23 63.7207 90.9 62.8407 91.36Z" fill="#262B44"/>
<path d="M122.871 75.83C122.371 73.51 123.741 54.71 96.4809 59.06C95.5609 59.21 94.6008 59.4 93.7108 59.09C92.9808 58.84 92.3508 58.27 91.6708 57.84C89.8108 56.65 87.6208 56.52 85.5308 56.73C78.1608 57.48 71.1308 62.38 66.8008 69.8L67.0308 69.78C66.3308 70.97 65.8509 72.3 65.4909 73.63C63.5709 80.69 64.4308 88.13 65.3108 95.38C65.4908 96.9 65.7008 98.48 66.5608 99.77C67.4208 101.06 69.1608 101.97 70.6708 101.44C72.1908 100.91 72.7308 98.6 71.3408 97.82C73.5408 97.2 75.0009 95.1 75.3809 92.95C75.7609 90.8 75.2509 88.61 74.6409 86.51C77.5609 87.53 81.1409 86.52 83.0009 84.15C84.8609 81.78 84.8609 78.24 82.9909 75.87C87.8209 78.92 94.5508 78.98 99.4408 76.02C100.961 78.22 103.021 80.26 105.681 81.01C106.981 81.38 108.931 80.69 110.711 79.62C110.541 81.82 111.751 84.11 113.761 85.24C111.831 86.49 110.721 88.78 110.971 90.98C111.221 93.18 112.831 95.19 114.991 96.02C113.561 97.5 112.441 99.43 112.671 101.43C112.681 101.53 112.701 101.63 112.721 101.73C113.251 104.25 116.581 105.17 118.591 103.45L120.471 101.83C120.461 101.74 120.451 101.65 120.431 101.56C120.461 101.62 120.491 101.69 120.521 101.75L120.491 101.8L122.201 100.34C122.201 100.35 125.021 85.75 122.871 75.83Z" fill="#262B44"/>
<path d="M120.473 101.86L120.503 101.81L120.473 101.83C120.473 101.85 120.473 101.85 120.473 101.86Z" fill="#262B44"/>
<path d="M53.7096 155.47C51.9196 156.13 51.4496 158.43 51.4996 160.34C51.6896 167.07 55.1696 173.64 60.6296 177.58C66.0896 181.53 73.4096 182.76 79.8696 180.83C83.1896 179.84 89.3996 178.05 92.8696 177.84C97.4096 177.57 98.5496 180.04 102.99 181.04C109.08 182.41 115.46 180.95 121.35 178.85C126.53 177 131.78 174.43 134.81 169.84C137.84 165.25 137.65 158.18 133.13 155.05L93.0495 177.88L53.7096 155.47Z" fill="#4F657F"/>
<path d="M54.5312 176.78C54.5312 179.52 54.5312 182.27 54.5312 185.01C54.5312 186 56.0613 186 56.0613 185.01C56.0613 182.27 56.0613 179.52 56.0613 176.78C56.0713 175.79 54.5312 175.79 54.5312 176.78Z" fill="#4F657F"/>
<path d="M131.419 175.8C130.869 178.83 130.769 181.92 131.169 184.97C131.219 185.38 131.479 185.74 131.939 185.74C132.309 185.74 132.759 185.39 132.709 184.97C132.329 182.06 132.389 179.1 132.909 176.2C132.979 175.79 132.799 175.37 132.369 175.26C131.989 175.16 131.489 175.39 131.419 175.8Z" fill="#4F657F"/>
<path d="M99.0008 74.3894C98.6508 76.0694 97.8308 77.5893 96.6008 78.7893C95.6108 79.7593 94.2607 80.7193 92.7907 80.5293C92.3607 80.4793 91.7908 80.2593 91.7708 79.7493C91.7608 79.3593 92.1808 79.1293 92.5208 79.0293C93.9308 78.6393 94.3408 80.1393 93.8908 81.2193C93.0708 83.1893 90.5908 83.4193 88.7508 83.5993C87.7808 83.6893 87.7708 85.2293 88.7508 85.1293C91.1408 84.8993 93.9907 84.4893 95.1707 82.0793C96.0907 80.1993 95.4607 77.5093 93.0307 77.4293C91.2007 77.3693 89.3908 79.2093 90.6408 80.9693C91.8508 82.6793 94.4708 82.1293 95.9808 81.1893C98.2708 79.7693 99.9208 77.4093 100.471 74.7793C100.681 73.8293 99.2008 73.4194 99.0008 74.3894Z" fill="#262B44"/>
<path d="M68.4297 66.29C75.6897 62.18 84.6097 61.65 92.7097 63.63C100.81 65.61 108.18 69.91 114.8 74.98C117.54 77.08 120.45 79.42 123.9 79.51C129.54 79.65 133.6 73.24 132.97 67.63C132.34 62.02 128.47 57.34 124.44 53.39C120.3 49.33 115.74 45.6 110.44 43.25C101.83 39.43 92.0198 39.57 82.6498 40.45C80.7698 40.63 78.8297 40.85 77.1797 41.78C75.4797 42.73 74.2497 44.35 73.2197 46C70.9697 49.61 69.4197 53.65 68.6697 57.83L68.4297 66.29Z" fill="#EF6A55"/>
<path d="M109.561 45.8998C110.281 43.7098 111.431 40.3398 114.211 40.4098C115.111 40.4298 116.151 40.8198 116.501 41.6598C116.691 42.1098 116.561 42.7898 116.281 43.3098C115.941 43.9698 115.481 44.5697 114.961 45.1097C113.791 46.3197 112.301 47.1498 110.671 47.5298C109.711 47.7598 110.121 49.2398 111.081 49.0098C112.881 48.5898 114.541 47.6698 115.861 46.3798C117.111 45.1598 118.471 43.3298 118.041 41.4898C117.721 40.0898 116.341 39.1798 114.991 38.9498C113.411 38.6798 111.961 39.1698 110.811 40.2698C109.371 41.6598 108.681 43.6298 108.071 45.4898C107.771 46.4298 109.251 46.8298 109.561 45.8998Z" fill="#EF6A55"/>
<path d="M69.7308 60.4201C73.9208 60.4701 78.1307 60.4301 82.3207 60.6801C86.0707 60.9001 89.8508 61.4101 93.3808 62.7601C95.3508 63.5101 97.2108 64.5601 98.8308 65.9101C99.5808 66.5401 100.671 65.4601 99.9207 64.8201C93.7307 59.6601 85.3508 59.1001 77.6208 58.9701C74.9908 58.9301 72.3608 58.9001 69.7308 58.8701C68.7408 58.8701 68.7408 60.4101 69.7308 60.4201Z" fill="#A3362B"/>
<path d="M80.6784 42.9397C77.3484 42.9997 74.4784 45.7397 74.1784 49.0297C74.1384 49.4397 74.5585 49.7996 74.9485 49.7996C75.3985 49.7996 75.6785 49.4497 75.7185 49.0297C75.7385 48.8097 75.8084 48.4497 75.9084 48.1297C76.0184 47.7797 76.0685 47.6597 76.2285 47.3497C76.5485 46.7297 76.8685 46.3297 77.3785 45.8497C78.2785 45.0197 79.4884 44.4897 80.6884 44.4697C81.0984 44.4597 81.4585 44.1197 81.4585 43.6997C81.4485 43.2897 81.0984 42.9297 80.6784 42.9397Z" fill="#A3362B"/>
<path d="M126.531 61.1899C128.861 63.1099 129.941 66.2999 129.181 69.2299C128.931 70.1899 130.411 70.5899 130.661 69.6399C131.551 66.2099 130.351 62.3699 127.611 60.0999C127.291 59.8399 126.841 59.7899 126.521 60.0999C126.261 60.3699 126.211 60.9199 126.531 61.1899Z" fill="#A3362B"/>
</g>
</svg>
