<svg width="183" height="183" viewBox="0 0 183 183" fill="none" xmlns="http://www.w3.org/2000/svg">
<mask id="mask0_976_16697" style="mask-type:luminance" maskUnits="userSpaceOnUse" x="0" y="0" width="183" height="183">
<path d="M91.18 182.36C141.537 182.36 182.36 141.537 182.36 91.18C182.36 40.8227 141.537 0 91.18 0C40.8227 0 0 40.8227 0 91.18C0 141.537 40.8227 182.36 91.18 182.36Z" fill="white"/>
</mask>
<g mask="url(#mask0_976_16697)">
<path d="M91.18 182.36C141.537 182.36 182.36 141.537 182.36 91.18C182.36 40.8227 141.537 0 91.18 0C40.8227 0 0 40.8227 0 91.18C0 141.537 40.8227 182.36 91.18 182.36Z" fill="#F1FFDF"/>
</g>
<mask id="mask1_976_16697" style="mask-type:luminance" maskUnits="userSpaceOnUse" x="0" y="0" width="183" height="183">
<path d="M91.18 182.36C141.537 182.36 182.36 141.537 182.36 91.18C182.36 40.8227 141.537 0 91.18 0C40.8227 0 0 40.8227 0 91.18C0 141.537 40.8227 182.36 91.18 182.36Z" fill="white"/>
</mask>
<g mask="url(#mask1_976_16697)">
<path d="M89.6211 27.1803C89.8411 25.8903 91.1511 24.8803 92.4511 25.0103C93.7511 25.1303 94.8511 26.3703 94.8211 27.6803C93.2011 27.6903 91.5711 27.7003 89.9511 27.7103L89.6211 27.1803Z" fill="#C17E2F"/>
<path d="M137.21 139.98C128.27 133.99 117.47 131.6 106.92 129.48C106.28 129.35 105.61 129.21 105.09 128.81C104.21 128.12 106.21 120.47 105.09 110.29L90.0301 111.7L74.9701 110.29C73.8501 120.48 75.8501 128.12 74.9701 128.81C74.4501 129.21 73.7801 129.35 73.1401 129.48C62.5901 131.6 51.7901 134 42.8501 139.98C33.9101 145.97 27.1401 179.62 28.5701 190.28C37.5501 190.23 62.6001 191.48 87.9901 191.81V191.87C88.6701 191.86 89.3501 191.85 90.0301 191.84C90.7101 191.85 91.3901 191.86 92.0701 191.87V191.81C117.45 191.48 142.51 190.23 151.49 190.28C152.92 179.62 146.15 145.96 137.21 139.98Z" fill="#FBD1B9"/>
<mask id="mask2_976_16697" style="mask-type:luminance" maskUnits="userSpaceOnUse" x="28" y="110" width="124" height="82">
<path d="M137.21 139.98C128.27 133.99 117.47 131.6 106.92 129.48C106.28 129.35 105.61 129.21 105.09 128.81C104.21 128.12 106.21 120.47 105.09 110.29L90.0301 111.7L74.9701 110.29C73.8501 120.48 75.8501 128.12 74.9701 128.81C74.4501 129.21 73.7801 129.35 73.1401 129.48C62.5901 131.6 51.7901 134 42.8501 139.98C33.9101 145.97 27.1401 179.62 28.5701 190.28C37.5501 190.23 62.6001 191.48 87.9901 191.81V191.87C88.6701 191.86 89.3501 191.85 90.0301 191.84C90.7101 191.85 91.3901 191.86 92.0701 191.87V191.81C117.45 191.48 142.51 190.23 151.49 190.28C152.92 179.62 146.15 145.96 137.21 139.98Z" fill="white"/>
</mask>
<g mask="url(#mask2_976_16697)">
<path d="M54.9297 109.95C60.8697 106.13 61.1197 104.29 61.4097 106.13C62.8097 115.15 77.0697 136.87 90.0197 136.87C106.79 136.87 116.52 108.56 118.09 101.43C98.7097 104.2 79.0697 106.97 59.6397 104.64C60.1697 105.14 60.7097 105.65 61.2397 106.15L54.9297 109.95Z" fill="#DBA78A"/>
</g>
<path d="M62.7882 59.99C58.7082 71.68 59.7182 92.16 62.7882 104.08C62.8082 104.14 62.8182 104.21 62.8382 104.27C64.5082 110.66 67.1682 117.05 72.1882 122.02C77.2082 127 84.9282 130.36 92.5682 129.48C99.9682 128.63 106.168 123.97 109.778 118.42C113.388 112.88 114.778 106.51 115.778 100.23C117.528 89.31 117.078 60.29 115.838 60.2C99.9082 59.06 78.2882 56.29 62.7882 59.6V59.99Z" fill="#FBD1B9"/>
<path d="M115.149 95.7099C115.539 93.2999 118.959 91.7999 121.699 92.5099C124.439 93.2199 126.249 95.6299 126.449 98.0499C126.649 100.47 125.499 102.86 123.859 104.85C121.129 108.17 116.319 110.75 111.699 109.72C112.429 104.74 113.489 99.7899 114.849 94.9099L115.149 95.7099Z" fill="#FBD1B9"/>
<path d="M63.2093 95.7099C62.8193 93.2999 59.3993 91.7999 56.6593 92.5099C53.9193 93.2199 52.1093 95.6299 51.9093 98.0499C51.7093 100.47 52.8593 102.86 54.4993 104.85C57.2293 108.17 62.0393 110.75 66.6593 109.72C65.9293 104.74 64.8693 99.7899 63.5093 94.9099L63.2093 95.7099Z" fill="#FBD1B9"/>
<path d="M80.7714 92.8305C80.7714 94.5205 79.5214 95.8905 77.9814 95.8905C76.4414 95.8905 75.1914 94.5205 75.1914 92.8305C75.1914 91.1405 76.4414 89.7705 77.9814 89.7705C79.5214 89.7705 80.7714 91.1405 80.7714 92.8305Z" fill="#1A1A1A"/>
<path d="M103.978 92.8305C103.978 94.5205 102.728 95.8905 101.188 95.8905C99.6484 95.8905 98.3984 94.5205 98.3984 92.8305C98.3984 91.1405 99.6484 89.7705 101.188 89.7705C102.738 89.7705 103.978 91.1405 103.978 92.8305Z" fill="#1A1A1A"/>
<path d="M139.35 139.801C133.89 136.141 127.75 133.811 121.39 132.061C119.97 134.621 118.13 136.941 115.83 138.891C110.65 143.281 103.84 145.281 97.1098 146.211C82.4698 148.231 65.9398 144.781 56.6198 133.501C51.9498 135.071 47.4698 137.071 43.3798 139.811C34.2898 145.901 27.3998 179.731 28.8598 190.581C37.9898 190.531 63.4798 191.781 89.2998 192.121V192.181C89.9898 192.171 90.6798 192.161 91.3698 192.151C92.0598 192.161 92.7498 192.171 93.4398 192.181V192.121C119.26 191.781 144.94 194.511 154.07 194.551C155.53 183.701 148.45 145.891 139.35 139.801Z" fill="#FFB753"/>
<path d="M95.2787 82.1102C99.3187 83.5002 103.479 84.2502 107.659 84.3602C104.999 78.5602 98.2288 76.9902 94.2188 81.2502L95.2787 82.1102Z" fill="#262B44"/>
<path d="M72.9884 86.9006C77.1984 86.2006 81.2284 84.8806 84.9484 82.9806C79.8384 79.1506 73.1484 80.9906 71.6484 86.6406L72.9884 86.9006Z" fill="#262B44"/>
<path d="M124.972 68.9099C125.922 68.1499 126.282 66.7499 126.422 65.4299C126.922 60.3899 124.762 55.1299 121.042 52.3499C122.442 52.6599 120.172 52.6299 120.552 51.0599C120.942 49.4999 119.692 47.5799 118.932 46.1999C116.212 41.2599 114.802 39.2199 109.692 39.3699C108.472 39.4099 107.222 39.4999 106.082 39.9399C105.762 39.0899 105.282 38.3299 104.652 37.7499C102.982 36.2199 100.422 36.1199 98.6517 37.5199C97.9917 34.8099 95.4417 33.0699 92.9717 33.0699C90.5017 33.0699 88.1817 34.4999 86.3317 36.3699C85.5617 31.9299 80.3817 29.8099 76.8517 31.8699C74.0117 33.5299 72.3817 37.0899 72.0717 40.7599C69.1717 40.9699 66.4017 42.7899 64.1717 45.0099C63.0817 46.0999 62.0017 47.4699 62.0017 49.1199C62.0017 49.7799 62.2917 50.4199 62.7017 50.8899C62.5617 50.9499 62.4317 51.0199 62.3117 51.0899C58.4017 53.4699 55.6517 58.1599 55.2117 63.1899C55.2717 63.2199 55.3417 63.2299 55.4117 63.2599C54.1517 65.5499 53.0517 68.1099 53.1117 70.8099C53.1717 73.5499 54.7817 76.4099 57.1617 76.8099C55.2217 79.1699 55.2317 83.2699 57.1817 85.6199C56.0817 87.1499 56.5817 89.5999 57.8417 90.9599C57.8517 90.9699 57.8717 90.9899 57.8817 90.9999C59.7117 92.9299 62.9817 92.1199 63.8317 89.5899C65.8717 83.5599 69.7917 71.1599 70.2217 63.5899C71.1917 66.0799 73.7317 67.6399 76.0917 67.1999C78.4517 66.7599 80.4217 64.3699 80.6517 61.6499C81.0017 64.4799 84.3317 65.1399 86.8117 64.7499C89.9117 64.2599 92.9417 63.2299 95.7717 61.6999C93.2017 63.1899 92.5617 67.5399 94.2517 70.2099C95.9317 72.8799 99.3317 73.6999 102.032 72.5499C103.522 71.9099 104.812 70.7699 105.902 69.4499C106.862 70.1899 108.192 70.1799 109.202 69.5499C107.792 71.2399 107.172 73.7799 107.712 76.0499C108.362 78.7599 110.632 80.8499 113.092 81.0099C112.122 81.8699 112.872 85.5399 114.572 88.9199C115.882 91.5199 119.812 90.4999 119.672 87.5899L119.612 86.3699C119.572 85.5099 119.552 84.5599 120.022 83.8899C120.532 83.1499 121.432 82.9999 122.202 82.6699C124.652 81.6399 126.102 78.4899 125.932 75.5199C125.792 73.1499 124.772 70.9599 123.332 69.2199C123.862 69.3899 124.502 69.2899 124.972 68.9099Z" fill="#262B44"/>
<path d="M86.3016 103.11C86.8816 102.07 87.5616 101.11 88.3716 100.23C89.0616 99.4705 90.0216 98.3505 91.1116 98.2205C91.6916 98.1505 92.1816 98.5505 92.6316 98.8605C93.1516 99.2305 93.6616 99.6105 94.1616 100.01C95.2016 100.84 96.2016 101.72 97.1616 102.64C97.8716 103.32 98.9616 102.24 98.2516 101.55C97.1316 100.47 95.9516 99.4605 94.7216 98.5105C93.6316 97.6705 92.4116 96.5205 90.9316 96.7005C89.5716 96.8705 88.4816 97.9005 87.5616 98.8405C86.5516 99.8805 85.6916 101.06 84.9816 102.32C84.4816 103.19 85.8116 103.97 86.3016 103.11Z" fill="#A46E4A"/>
<path d="M87.4318 110.47C88.1718 111.76 89.6818 112.59 91.1718 112.42C92.7018 112.24 93.9818 111.2 94.4718 109.74C94.6018 109.35 94.3218 108.9 93.9318 108.79C93.5118 108.67 93.1218 108.93 92.9818 109.33C92.9218 109.52 92.8218 109.71 92.6618 109.94C92.6518 109.96 92.5818 110.04 92.6318 109.98C92.5918 110.03 92.5418 110.08 92.5018 110.13C92.4118 110.23 92.3118 110.32 92.2018 110.41C92.0918 110.5 92.3418 110.33 92.1318 110.46C92.0818 110.49 92.0418 110.52 91.9918 110.55C91.8718 110.62 91.7518 110.69 91.6318 110.74C91.7218 110.7 91.5718 110.76 91.5518 110.77C91.4918 110.79 91.4218 110.81 91.3618 110.83C91.2918 110.85 91.2318 110.86 91.1618 110.88C91.1418 110.88 90.9718 110.9 91.0818 110.89C90.1218 110.98 89.2218 110.52 88.7418 109.69C88.5318 109.33 88.0418 109.21 87.6918 109.41C87.3418 109.63 87.2218 110.11 87.4318 110.47Z" fill="#A46E4A"/>
<path d="M117.161 103.151C118.751 101.471 120.571 100.051 122.581 98.9107C122.941 98.7107 123.061 98.2107 122.861 97.8607C122.651 97.5007 122.171 97.3807 121.811 97.5807C119.691 98.7807 117.751 100.291 116.081 102.061C115.791 102.361 115.781 102.851 116.081 103.151C116.361 103.431 116.881 103.451 117.161 103.151Z" fill="#A46E4A"/>
<path d="M118.941 100.68C119.131 101.5 119.331 102.33 119.521 103.15C119.611 103.54 120.081 103.81 120.471 103.69C120.881 103.56 121.111 103.16 121.011 102.74C120.821 101.92 120.621 101.09 120.431 100.27C120.341 99.8799 119.871 99.6099 119.481 99.7299C119.071 99.8699 118.841 100.27 118.941 100.68Z" fill="#A46E4A"/>
<path d="M56.6784 96.8202C58.1484 98.4802 59.6084 100.13 61.0784 101.79C61.3584 102.1 61.8884 102.07 62.1684 101.79C62.4784 101.48 62.4484 101.01 62.1684 100.7C60.6984 99.0402 59.2384 97.3902 57.7684 95.7302C57.4884 95.4202 56.9584 95.4502 56.6784 95.7302C56.3684 96.0402 56.3984 96.5002 56.6784 96.8202Z" fill="#A46E4A"/>
<path d="M58.6805 101.191C59.3905 100.781 60.1005 100.371 60.8205 99.9707C61.1704 99.7707 61.3204 99.2707 61.1004 98.9207C60.8704 98.5707 60.4204 98.4307 60.0504 98.6407C59.3404 99.0507 58.6305 99.4607 57.9105 99.8707C57.5605 100.071 57.4105 100.571 57.6305 100.921C57.8505 101.271 58.3005 101.411 58.6805 101.191Z" fill="#A46E4A"/>
<path d="M79.2019 102.62C79.2919 102.62 79.3819 102.62 79.4819 102.62C79.5919 102.62 79.6819 102.6 79.7819 102.55C79.8819 102.52 79.9619 102.47 80.0319 102.39C80.1019 102.32 80.1619 102.24 80.1919 102.14C80.2419 102.05 80.2619 101.95 80.2619 101.84C80.2519 101.77 80.2419 101.7 80.2319 101.64C80.1919 101.51 80.1319 101.4 80.0319 101.3C79.9819 101.26 79.9319 101.22 79.8719 101.18C79.7519 101.11 79.6219 101.08 79.4819 101.08C79.3919 101.08 79.3019 101.08 79.2019 101.08C79.0919 101.08 79.0019 101.1 78.9019 101.15C78.8019 101.18 78.7219 101.23 78.6519 101.31C78.5819 101.38 78.5219 101.46 78.4919 101.56C78.4419 101.65 78.4219 101.75 78.4219 101.86C78.4319 101.93 78.4419 102 78.4519 102.06C78.4919 102.19 78.5519 102.3 78.6519 102.4C78.7019 102.44 78.7519 102.48 78.8119 102.52C78.9419 102.58 79.0719 102.62 79.2019 102.62Z" fill="#A46E4A"/>
<path d="M74.582 106.81C74.582 106.9 74.582 106.99 74.582 107.09C74.582 107.2 74.602 107.29 74.652 107.39C74.682 107.49 74.732 107.57 74.812 107.64C74.882 107.71 74.962 107.77 75.062 107.8C75.152 107.85 75.252 107.87 75.362 107.87C75.432 107.86 75.502 107.85 75.562 107.84C75.692 107.8 75.802 107.74 75.902 107.64C75.942 107.59 75.982 107.54 76.022 107.48C76.092 107.36 76.122 107.23 76.122 107.09C76.122 107 76.122 106.91 76.122 106.81C76.122 106.7 76.102 106.61 76.052 106.51C76.022 106.41 75.972 106.33 75.892 106.26C75.822 106.18 75.742 106.13 75.642 106.1C75.552 106.05 75.452 106.03 75.342 106.03C75.272 106.04 75.202 106.05 75.142 106.06C75.012 106.1 74.902 106.16 74.802 106.26C74.762 106.31 74.722 106.36 74.682 106.42C74.612 106.54 74.582 106.67 74.582 106.81Z" fill="#A46E4A"/>
<path d="M107.619 164.08C104.229 160.45 99.2892 158.66 94.3892 157.87C89.7992 157.12 85.0892 157.15 80.5092 157.94C79.2792 158.15 77.9192 158.5 77.2392 159.55C76.8592 160.13 76.7492 160.84 76.6592 161.53C74.8492 174.37 73.6992 187.3 73.1992 200.26L73.4092 201.9C76.1692 202.56 79.0292 202.84 81.8692 202.71C81.7992 198.39 82.1992 194.07 83.0492 189.84C84.6092 189.94 86.1692 190.05 87.7292 190.15C88.5992 194.6 89.0092 199.14 88.9392 203.67C94.4992 203.34 100.059 203.01 105.619 202.68C103.659 196.33 100.539 190.34 96.4792 185.08C101.619 183.94 107.349 182.38 109.949 177.81C112.409 173.48 110.999 167.71 107.619 164.08ZM102.209 175.35C101.539 176.67 100.179 177.51 98.7892 178C95.0392 179.33 90.9092 178.53 87.0092 177.72C86.5992 177.63 86.1492 177.53 85.8592 177.22C85.4992 176.84 85.4792 176.25 85.4792 175.72C85.4692 172.4 85.2692 169.08 84.8892 165.78L85.8192 165.75C89.7092 164.98 93.8392 165.46 97.4592 167.09C99.0792 167.82 100.639 168.82 101.649 170.29C102.649 171.76 103.019 173.76 102.209 175.35Z" fill="white"/>
<path d="M126.052 159.72C127.212 171.49 128.902 183.21 131.132 194.83C131.762 198.11 132.432 201.38 133.142 204.64C133.352 205.61 134.832 205.2 134.622 204.23C132.132 192.81 130.142 181.27 128.692 169.67C128.282 166.36 127.912 163.04 127.582 159.72C127.492 158.74 125.952 158.73 126.052 159.72Z" fill="#C17E2F"/>
<path d="M130.009 163.39C129.379 166.85 128.259 170.21 127.639 173.68C127.469 174.65 128.949 175.06 129.119 174.09C129.749 170.63 130.869 167.27 131.489 163.8C131.669 162.83 130.189 162.42 130.009 163.39Z" fill="#C17E2F"/>
<path d="M50.1913 149.22C51.4813 162.75 52.0513 176.36 51.9013 189.95C51.8613 193.75 51.7613 197.55 51.6013 201.35C51.5613 202.34 53.1013 202.34 53.1413 201.35C53.7013 187.77 53.5413 174.15 52.6513 160.59C52.4013 156.8 52.1013 153.01 51.7413 149.23C51.6413 148.24 50.1013 148.24 50.1913 149.22Z" fill="#C17E2F"/>
<path d="M48.3894 155.28C49.5694 156.67 50.7494 158.06 51.9294 159.46C52.1894 159.77 52.7494 159.75 53.0194 159.46C53.3194 159.13 53.2994 158.7 53.0194 158.37C51.8394 156.98 50.6594 155.59 49.4794 154.19C49.2194 153.88 48.6594 153.9 48.3894 154.19C48.0894 154.52 48.1094 154.95 48.3894 155.28Z" fill="#C17E2F"/>
<path d="M53.5591 136.591C61.4191 144.201 71.5291 149.431 82.2791 151.481C93.1191 153.551 104.399 152.261 114.549 147.961C120.289 145.531 125.599 142.171 130.229 138.001C130.969 137.341 129.879 136.251 129.139 136.911C121.119 144.121 110.959 148.811 100.289 150.381C89.7691 151.931 78.8791 150.181 69.2791 145.631C63.8891 143.071 58.9191 139.661 54.6291 135.501C53.9391 134.811 52.8491 135.901 53.5591 136.591Z" fill="white"/>
<path d="M54.9609 59.7908C76.8209 64.5708 95.3409 69.5108 127.031 55.9308C128.141 62.2308 127.451 25.4308 87.1709 27.4208C60.3609 28.7408 54.9609 59.7908 54.9609 59.7908Z" fill="#FFB753"/>
<path d="M98.4013 70.7108C106.971 72.0608 115.801 73.4008 124.401 72.1908C128.621 71.5908 132.691 70.3808 136.321 68.6308C137.141 68.2408 137.951 67.8008 138.471 67.1808C139.001 66.5308 139.151 65.7408 139.121 64.9808C138.981 61.4908 135.291 57.6208 127.031 54.3008C105.061 64.6208 54.2113 59.8108 54.9613 59.8508C54.9613 59.8608 84.5413 68.5308 98.4013 70.7108Z" fill="#C17E2F"/>
<path d="M92.0406 26.8307C103.261 31.1307 112.151 40.8007 115.971 52.1407C117.061 55.3807 117.741 58.7407 117.951 62.1507C118.011 63.1307 119.551 63.1407 119.491 62.1507C119.101 55.8907 117.231 49.7907 114.161 44.3307C111.091 38.8707 106.851 34.0907 101.781 30.4107C98.9106 28.3207 95.7706 26.6307 92.4606 25.3607C91.5306 25.0007 91.1306 26.4807 92.0406 26.8307Z" fill="#C17E2F"/>
<path d="M91.362 27.0306C95.832 36.0406 96.932 46.2106 97.132 56.1306C97.192 58.9706 97.172 61.8106 97.132 64.6506C97.122 65.6406 98.652 65.6406 98.672 64.6506C98.812 54.4906 98.712 44.0906 95.822 34.2606C95.012 31.5106 93.972 28.8306 92.692 26.2506C92.242 25.3706 90.922 26.1406 91.362 27.0306Z" fill="#C17E2F"/>
<path d="M91.6899 25.8707C85.6199 33.7407 81.9399 43.3707 81.0799 53.2607C80.8399 56.0407 80.8299 58.8307 81.0399 61.6107C81.1199 62.5907 82.6499 62.6007 82.5799 61.6107C81.8299 51.9307 83.9199 42.1007 88.5199 33.5507C89.8299 31.1307 91.3299 28.8207 93.0099 26.6407C93.2699 26.3107 93.0599 25.7807 92.7299 25.5907C92.3499 25.3607 91.9499 25.5407 91.6899 25.8707Z" fill="#C17E2F"/>
<path d="M92.0317 26.2406C80.2517 30.6706 69.8417 39.0906 64.8517 50.8606C63.4617 54.1306 62.5517 57.5606 62.1317 61.0906C62.0117 62.0706 63.5517 62.0606 63.6717 61.0906C65.1117 48.9406 73.0217 38.5506 83.2517 32.2306C86.1617 30.4306 89.2517 28.9306 92.4517 27.7306C93.3517 27.3706 92.9617 25.8906 92.0317 26.2406Z" fill="#C17E2F"/>
</g>
</svg>
