<svg width="412" height="196" viewBox="0 0 412 196" fill="none" xmlns="http://www.w3.org/2000/svg">
<path d="M-23.4998 14.0923C-36.8323 40.3995 -6.49998 65.5992 -6.99974 84.5254V195.592H416.793C418.459 190.529 420.791 168.996 416.793 123.374C411.795 66.3463 438.267 67.4648 432 45.0924C418 -4.89013 442.78 27.0317 416.793 3.37391C390.805 -20.2839 349.186 88.6944 312 75.3739C278.5 63.3739 264.427 45.0924 206 45.0924C183.588 45.0924 124.5 88.874 98.5 69.874C69.9711 49.026 55.579 32.1898 35 26.0923C14.421 19.9949 -12.9997 -6.62614 -23.4998 14.0923Z" fill="url(#paint0_linear_1286_28646)"/>
<defs>
<linearGradient id="paint0_linear_1286_28646" x1="203" y1="-186.126" x2="203" y2="319.374" gradientUnits="userSpaceOnUse">
<stop stop-color="#72F7D7" stop-opacity="0"/>
<stop offset="1" stop-color="#72F7D7"/>
</linearGradient>
</defs>
</svg>
