<svg width="412" height="290" viewBox="0 0 412 290" fill="none" xmlns="http://www.w3.org/2000/svg">
<path opacity="0.75" d="M26.9834 4.58862C0.996082 21.7809 -6.50024 72.7436 -7 96.076V321.089H416.792C418.458 314.846 419.222 245.89 416.792 189.557C411.795 73.6647 388.806 49.1043 367.816 61.3845C346.827 73.6647 322.339 39.2802 296.351 10.1147C270.364 -19.0507 235.881 73.6647 228.884 49.1043C221.888 24.5439 199.083 23.4269 171.413 86.8658C160.03 112.961 122.437 97.3039 102.446 61.3844C82.4562 25.4649 81.4567 72.1295 63.4655 57.7003C45.4743 43.2711 59.4675 -16.9017 26.9834 4.58862Z" fill="url(#paint0_linear_939_16924)"/>
<defs>
<linearGradient id="paint0_linear_939_16924" x1="205.896" y1="-212.411" x2="205.896" y2="338.911" gradientUnits="userSpaceOnUse">
<stop stop-color="#72F7D7" stop-opacity="0"/>
<stop offset="0.827977" stop-color="#72F7D7"/>
</linearGradient>
</defs>
</svg>
