<svg width="412" height="2126" viewBox="0 0 412 2126" fill="none" xmlns="http://www.w3.org/2000/svg">
<g clip-path="url(#clip0_1930_60587)">
<path d="M117 628.5C105 634.5 105.225 649.07 128 661C159.5 677.5 196 676 230 692" stroke="white" stroke-width="2" stroke-linecap="round" stroke-dasharray="12 12"/>
<path d="M266.5 207C274.334 212.167 288.209 240.7 266.5 267C240.501 298.5 127 279 141.5 325" stroke="white" stroke-width="2" stroke-linecap="round" stroke-dasharray="12 12"/>
<path d="M194.5 388C210.833 397 245.5 420.7 253.5 443.5C263.5 472 203.5 512.5 176 556" stroke="white" stroke-width="2" stroke-linecap="round" stroke-dasharray="12 12"/>
<path d="M290 763C294 770 296 778 300 782C305 787 298.5 814 307.5 815C316.5 816 320.5 824 319.5 837.5C318.5 851 314.5 874 327 876.5C339.5 879 329.5 906.5 338.5 909.5C347.5 912.5 353.5 913 353.5 961" stroke="#121212" stroke-width="2" stroke-linecap="round" stroke-dasharray="12 12"/>
<path d="M295 1424C287.5 1454 261.634 1490.18 235 1499C158 1524.5 193.5 1499 148 1576.09" stroke="white" stroke-width="2" stroke-linecap="round" stroke-dasharray="12 12"/>
<path d="M90.5 1098.22C83.6667 1130.05 87.5 1201.52 157.5 1232.72" stroke="white" stroke-width="2" stroke-linecap="round" stroke-dasharray="12 12"/>
<path d="M255.5 1255C280.167 1255 328 1263.2 322 1296C319.348 1310.5 316 1325.67 315.5 1334" stroke="white" stroke-width="2" stroke-linecap="round" stroke-dasharray="12 12"/>
<path d="M320.5 1027.72C309 1033.89 301.1 1037.92 251.5 1038.72C189.5 1039.72 190.5 1012.72 124.5 1038.72" stroke="#121212" stroke-width="2" stroke-linecap="round" stroke-dasharray="12 12"/>
<path d="M123 1827.5C66.8334 1847.83 29.0002 1888.5 148.5 1964" stroke="white" stroke-width="2" stroke-linecap="round" stroke-dasharray="12 12"/>
<path d="M119 1644C111.5 1657.17 107.8 1683.3 153 1682.5C198.2 1681.7 240.5 1687.17 256 1690" stroke="white" stroke-width="2" stroke-linecap="round" stroke-dasharray="12 12"/>
<path d="M345.5 1712C368.167 1725.17 373.6 1761.2 214 1800" stroke="white" stroke-width="2" stroke-linecap="round" stroke-dasharray="12 12"/>
</g>
<defs>
<clipPath id="clip0_1930_60587">
<rect width="412" height="2126" fill="white"/>
</clipPath>
</defs>
</svg>
